<svg width="661" height="651" viewBox="0 0 661 651" fill="none" xmlns="http://www.w3.org/2000/svg">
<path d="M103.109 592.378C230.728 670.541 437.647 670.541 565.28 592.378C692.914 514.216 692.899 387.499 565.28 309.337C437.662 231.174 230.728 231.156 103.094 309.337C-24.5396 387.517 -24.5243 514.216 103.109 592.378Z" fill="#FAFAFA"/>
<path d="M440.983 606.735C466.785 606.735 487.702 595.047 487.702 580.628C487.702 566.209 466.785 554.52 440.983 554.52C415.181 554.52 394.265 566.209 394.265 580.628C394.265 595.047 415.181 606.735 440.983 606.735Z" fill="#F0F0F0"/>
<path d="M75.6602 129.154V218.977C75.6602 221.924 77.4271 223.138 79.6206 221.656L257.506 101.242C258.657 100.36 259.616 99.1736 260.304 97.7778C260.991 96.3819 261.39 94.816 261.467 93.2064V3.31133C261.467 0.364825 259.685 -0.84949 257.506 0.632689L79.6206 121.046C78.4589 121.932 77.4937 123.129 76.805 124.539C76.1163 125.949 75.7239 127.531 75.6602 129.154V129.154Z" fill="#F0F0F0"/>
<path d="M88.0444 127.743L141.358 91.6706C143.811 90.0099 145.776 91.3492 145.776 94.6528V157.458C145.692 159.249 145.248 160.992 144.481 162.543C143.713 164.095 142.643 165.412 141.358 166.387L88.0444 202.477C85.6072 204.12 83.627 202.78 83.627 199.477V136.707C83.7095 134.911 84.1526 133.163 84.9202 131.605C85.6878 130.047 86.7582 128.724 88.0444 127.743V127.743Z" fill="#FAFAFA"/>
<path d="M131.213 123.011L115.356 161.547L107.283 156.083C106.508 155.586 105.598 155.461 104.746 155.734C103.894 156.007 103.165 156.657 102.713 157.547L83.627 196.137V199.512C83.627 202.816 85.6072 204.155 88.0444 202.513L141.358 166.422C142.64 165.445 143.708 164.127 144.476 162.576C145.243 161.025 145.688 159.284 145.776 157.494V135.404L135.113 122.296C134.875 121.906 134.549 121.601 134.171 121.415C133.794 121.229 133.38 121.17 132.975 121.244C132.571 121.318 132.192 121.523 131.881 121.835C131.57 122.147 131.339 122.554 131.213 123.011V123.011Z" fill="#263238"/>
<path d="M91.6393 150.726C94.9335 148.207 97.675 144.813 99.6414 140.82C101.608 136.827 102.744 132.347 102.957 127.743C102.957 123.868 101.891 121.064 100.139 119.564L88.0444 127.743C86.7622 128.721 85.6943 130.039 84.9269 131.59C84.1595 133.141 83.7142 134.882 83.627 136.672V151.619C85.7138 153.047 88.5166 152.833 91.6393 150.726Z" fill="#263238"/>
<path d="M165.67 81.0812L245.778 26.8477C247.606 25.6155 249.083 26.4905 249.083 28.812C249.003 30.113 248.661 31.3733 248.087 32.4904C247.513 33.6075 246.721 34.5498 245.778 35.2408L165.67 89.4564C163.842 90.6886 162.364 89.8135 162.364 87.4921C162.447 86.1942 162.789 84.9375 163.364 83.8237C163.938 82.7099 164.728 81.7704 165.67 81.0812Z" fill="#FAFAFA"/>
<path d="M165.67 99.6353L245.778 45.4019C247.606 44.1697 249.083 45.0447 249.083 47.3662C249.003 48.6672 248.661 49.9275 248.087 51.0446C247.513 52.1617 246.721 53.104 245.778 53.795L165.67 108.01C163.842 109.243 162.364 108.368 162.364 106.064C162.445 104.763 162.786 103.503 163.36 102.386C163.935 101.269 164.726 100.326 165.67 99.6353V99.6353Z" fill="#FAFAFA"/>
<path d="M165.67 118.189L245.778 63.9738C247.606 62.7417 249.083 63.6167 249.083 65.9203C249.003 67.2212 248.661 68.4815 248.087 69.5986C247.513 70.7157 246.721 71.6581 245.778 72.349L165.67 126.564C163.842 127.814 162.364 126.939 162.364 124.618C162.445 123.317 162.786 122.057 163.36 120.94C163.935 119.823 164.726 118.88 165.67 118.189Z" fill="#FAFAFA"/>
<path d="M165.67 136.743L245.778 82.528C247.606 81.2958 249.083 82.1708 249.083 84.4923C249 85.7901 248.658 87.0469 248.084 88.1607C247.509 89.2744 246.719 90.214 245.778 90.9032L165.67 145.226C163.842 146.458 162.364 145.583 162.364 143.261C162.433 141.945 162.769 140.667 163.344 139.533C163.919 138.399 164.716 137.443 165.67 136.743V136.743Z" fill="#FAFAFA"/>
<path d="M38.4924 411.767V279.96C38.5656 278.35 38.9626 276.782 39.6508 275.386C40.3391 273.989 41.2992 272.803 42.4529 271.924L176.987 180.851C179.165 179.369 180.947 180.566 180.947 183.53V315.336C180.871 316.946 180.472 318.512 179.784 319.907C179.096 321.303 178.138 322.49 176.987 323.372L42.4529 414.445C40.2594 415.927 38.4924 414.731 38.4924 411.767Z" fill="#F0F0F0"/>
<path d="M38.4924 405.177V411.767C38.4924 414.731 40.2594 415.927 42.4529 414.445L176.987 323.372C178.138 322.49 179.096 321.304 179.784 319.908C180.472 318.512 180.871 316.946 180.947 315.336V308.729L38.4924 405.177Z" fill="#263238"/>
<path d="M103.582 285.639L117.291 284.8C118.966 284.693 119.423 285.8 118.311 287.3L102.561 308.301C101.449 309.783 100.55 309.372 100.55 307.408V289.407C100.556 288.447 100.872 287.524 101.434 286.825C101.997 286.126 102.764 285.703 103.582 285.639Z" fill="#263238"/>
<path d="M100.047 319.819C98.404 319.844 96.785 319.357 95.3552 318.408C91.9736 316.104 90.1152 311.265 90.1152 304.943C90.1152 292.05 97.8686 276.371 107.404 269.853C112.111 266.657 116.544 266.175 119.956 268.461C123.368 270.746 125.211 275.603 125.211 281.907C125.211 294.818 117.442 310.479 107.922 316.997C105.552 318.728 102.837 319.701 100.047 319.819V319.819ZM115.279 268.264C112.676 268.385 110.145 269.302 107.937 270.925C98.6912 277.175 91.1815 292.443 91.1815 304.943C91.1815 310.872 92.8571 315.283 95.9036 317.336C98.9501 319.39 103.032 318.908 107.404 315.944C116.65 309.676 124.16 294.515 124.16 281.907C124.16 275.979 122.484 271.586 119.438 269.514C118.163 268.678 116.725 268.247 115.264 268.264H115.279Z" fill="#263238"/>
<path d="M45.911 157.476L37.5788 151.869C33.6031 148.744 28.0737 148.869 21.9654 153.012C9.77932 161.226 0 182.066 0 199.566V203.548C0 221.049 20.0765 240.049 20.0765 240.049L28.2717 245.496C28.2717 245.496 23.3516 238.906 23.9152 237.549C29.3532 224.62 43.9003 188.084 43.9003 173.798V169.816C43.9312 166.933 43.6184 164.06 42.9711 161.28L43.9003 161.905L45.911 157.476ZM21.9502 197.602C15.8571 201.709 10.9675 198.37 10.9675 190.173C14.2272 189.566 22.4376 173.137 21.9502 167.869C28.0432 163.762 32.9176 167.101 32.9328 175.298C32.7264 179.766 31.6244 184.114 29.7162 187.989C27.808 191.864 25.1473 195.158 21.9502 197.602Z" fill="#263238"/>
<g opacity="0.2">
<path opacity="0.2" d="M45.911 157.476L37.5788 151.869C33.6031 148.744 28.0737 148.869 21.9654 153.012C9.77932 161.226 0 182.066 0 199.566V203.548C0 221.049 20.0765 240.049 20.0765 240.049L28.2717 245.496C28.2717 245.496 23.3516 238.906 23.9152 237.549C29.3532 224.62 43.9003 188.084 43.9003 173.798V169.816C43.9312 166.933 43.6184 164.06 42.9711 161.28L43.9003 161.905L45.911 157.476ZM21.9502 197.602C15.8571 201.709 10.9675 198.37 10.9675 190.173C14.2272 189.566 22.4376 173.137 21.9502 167.869C28.0432 163.762 32.9176 167.101 32.9328 175.298C32.7264 179.766 31.6244 184.114 29.7162 187.989C27.808 191.864 25.1473 195.158 21.9502 197.602Z" fill="black"/>
</g>
<path d="M45.9111 157.476C45.82 157.4 45.7231 157.334 45.6217 157.279C41.7069 154.708 36.4821 155.065 30.7242 158.958C22.0416 164.851 14.5319 177.19 10.9218 190.173C9.52571 195.112 8.7859 200.274 8.72827 205.477V209.512C8.72827 222.995 21.7522 238.638 27.7386 245.12C27.8681 245.256 28.0055 245.381 28.1499 245.495C28.1499 245.495 28.1499 245.495 28.1499 245.495C28.5019 245.748 28.8951 245.911 29.3043 245.975C29.7135 246.039 30.1295 246.001 30.5256 245.865C30.9217 245.729 31.2891 245.497 31.604 245.184C31.9189 244.871 32.1744 244.484 32.3541 244.049C37.5331 231.548 52.5982 194.262 52.5982 179.762V175.78C52.6896 166.78 50.0848 160.422 45.9111 157.476ZM19.9395 198.691C19.813 197.842 19.7518 196.981 19.7567 196.119C19.9579 191.649 21.0559 187.298 22.9617 183.42C24.8674 179.541 27.527 176.244 30.7242 173.798C31.3629 173.366 32.0302 172.996 32.7196 172.69C37.8378 170.512 41.7069 173.958 41.7069 181.226C41.5017 185.692 40.4001 190.038 38.4917 193.911C36.5832 197.783 33.9219 201.073 30.7242 203.512C25.3471 207.191 20.8687 204.977 19.9395 198.691Z" fill="#263238"/>
<path d="M41.7068 181.244C41.5017 185.71 40.4001 190.056 38.4916 193.929C36.5831 197.802 33.9218 201.091 30.724 203.53C25.3468 207.102 20.8684 204.977 19.9392 198.691C20.6372 198.403 21.3105 198.038 21.9499 197.602C25.1452 195.157 27.8035 191.863 29.7092 187.987C31.6148 184.112 32.714 179.764 32.9175 175.298C32.9245 174.429 32.8581 173.562 32.7195 172.708C37.8377 170.53 41.7068 173.976 41.7068 181.244Z" fill="#263238"/>
<g opacity="0.2">
<path opacity="0.2" d="M41.7068 181.244C41.5017 185.71 40.4001 190.056 38.4916 193.929C36.5831 197.802 33.9218 201.091 30.724 203.53C25.3468 207.102 20.8684 204.977 19.9392 198.691C20.6372 198.403 21.3105 198.038 21.9499 197.602C25.1452 195.157 27.8035 191.863 29.7092 187.987C31.6148 184.112 32.714 179.764 32.9175 175.298C32.9245 174.429 32.8581 173.562 32.7195 172.708C37.8377 170.53 41.7068 173.976 41.7068 181.244Z" fill="black"/>
</g>
<path d="M201.755 402.964C201.755 402.964 207.254 361.891 195.038 326.569C182.821 291.247 166.355 289.068 157.824 294.086C149.294 299.104 154.778 318.694 162.394 331.855C172.539 349.123 189.295 386.303 188.747 419.696L201.755 402.964Z" fill="#263238"/>
<path opacity="0.2" d="M201.755 402.964C201.755 402.964 207.254 361.891 195.038 326.569C182.821 291.247 166.355 289.068 157.824 294.086C149.294 299.104 154.778 318.694 162.394 331.855C172.539 349.123 189.295 386.303 188.747 419.696L201.755 402.964Z" fill="black"/>
<path d="M196.272 405.571C196.135 405.566 196.001 405.53 195.876 405.463C195.752 405.396 195.64 405.301 195.548 405.183C195.456 405.065 195.384 404.926 195.339 404.775C195.293 404.623 195.274 404.463 195.282 404.303C197.293 348.07 173.332 306.087 162.989 297.908C162.876 297.819 162.779 297.704 162.703 297.571C162.628 297.438 162.576 297.289 162.55 297.132C162.523 296.976 162.524 296.815 162.551 296.658C162.578 296.501 162.631 296.353 162.707 296.22C162.783 296.088 162.88 295.974 162.994 295.886C163.107 295.797 163.235 295.736 163.368 295.706C163.502 295.675 163.639 295.675 163.773 295.707C163.906 295.739 164.033 295.801 164.146 295.89C176.332 305.426 199.364 348.355 197.338 404.41C197.334 404.569 197.304 404.725 197.248 404.87C197.192 405.014 197.112 405.144 197.013 405.252C196.913 405.36 196.797 405.444 196.67 405.499C196.542 405.554 196.407 405.578 196.272 405.571Z" fill="white"/>
<path d="M199.592 451.733C197.506 445.59 192.113 438.732 178.267 431.411C164.42 424.089 154.001 414.321 152.082 407.25C151.504 405.296 151.429 403.187 151.865 401.184C152.301 399.181 153.229 397.372 154.534 395.982C154.534 395.982 141.48 394.196 139.835 384.821C137.779 372.999 149.188 372.231 149.188 372.231C149.188 372.231 134.214 347.516 130.239 336.516C126.263 325.516 130.848 324.855 140.505 329.052C150.163 333.248 168.564 354.374 171.412 360.82C171.412 360.82 176.393 353.677 181.755 358.374C187.117 363.07 187.376 377.124 184.208 382.196C186.344 381.729 188.55 381.998 190.559 382.971C192.568 383.944 194.293 385.579 195.525 387.678C200.979 396.053 202.776 417 202.776 417L199.592 451.733Z" fill="#263238"/>
<path d="M200.568 446.018C200.336 446.014 200.112 445.921 199.93 445.753C199.749 445.586 199.619 445.352 199.562 445.089C192.159 408.928 157.018 351.212 135.189 332.855C135.078 332.762 134.984 332.645 134.912 332.509C134.839 332.374 134.79 332.223 134.768 332.066C134.745 331.908 134.749 331.747 134.78 331.591C134.81 331.435 134.867 331.288 134.946 331.158C135.025 331.028 135.125 330.917 135.24 330.833C135.356 330.748 135.484 330.69 135.619 330.664C135.753 330.637 135.891 330.642 136.023 330.678C136.156 330.714 136.282 330.78 136.393 330.872C158.495 349.462 194.078 407.91 201.588 444.518C201.648 444.832 201.6 445.162 201.455 445.436C201.309 445.709 201.078 445.906 200.811 445.982L200.568 446.018Z" fill="white"/>
<path d="M476.291 81.8849C476.11 81.8823 475.932 81.8271 475.773 81.7242L471.493 78.8131C471.375 78.7334 471.271 78.6272 471.188 78.5006C471.105 78.374 471.045 78.2294 471.009 78.0752C470.974 77.9209 470.965 77.76 470.982 77.6017C471 77.4433 471.044 77.2906 471.112 77.1522C471.18 77.0139 471.271 76.8926 471.379 76.7952C471.487 76.6979 471.61 76.6265 471.742 76.585C471.873 76.5436 472.01 76.5329 472.145 76.5536C472.28 76.5743 472.411 76.626 472.529 76.7058L476.809 79.6168C476.927 79.6964 477.031 79.8025 477.114 79.9291C477.197 80.0557 477.258 80.2003 477.294 80.3546C477.329 80.5089 477.338 80.6698 477.32 80.8282C477.302 80.9866 477.258 81.1394 477.19 81.2777C477.099 81.4626 476.968 81.6161 476.81 81.7227C476.652 81.8293 476.473 81.8853 476.291 81.8849V81.8849Z" fill="white"/>
<path d="M199.592 187.762V453.446C199.592 456.411 201.359 457.607 203.537 456.125L467.883 277.21C469.034 276.328 469.992 275.142 470.68 273.746C471.368 272.35 471.767 270.784 471.843 269.174V3.49006C471.843 0.525711 470.061 -0.670744 467.883 0.811432L203.537 179.726C202.387 180.608 201.431 181.795 200.745 183.191C200.06 184.587 199.665 186.153 199.592 187.762V187.762Z" fill="#455A64"/>
<path d="M230.529 236.835C230.529 246.103 236.424 249.603 243.721 244.674L453.275 102.832V69.3311L243.721 211.156C236.424 216.102 230.529 227.585 230.529 236.835Z" fill="#F5F5F5"/>
<path d="M471.096 57.3125C478.378 52.3838 484.288 55.8839 484.288 65.1341C484.288 74.3844 478.378 85.8847 471.096 90.8134L453.351 102.832V69.3307L471.096 57.3125Z" fill="#263238"/>
<path d="M464.699 85.5457C463.941 85.5583 463.193 85.33 462.536 84.8849C461.727 84.2499 461.079 83.3705 460.661 82.3395C460.243 81.3085 460.07 80.1643 460.16 79.0276C460.27 76.2325 460.949 73.509 462.142 71.0854C463.335 68.6618 465.006 66.6088 467.015 65.0986C467.782 64.3651 468.721 63.9228 469.708 63.8305C470.695 63.7382 471.682 64.0002 472.539 64.5818C473.395 65.1634 474.081 66.037 474.503 67.0862C474.926 68.1355 475.066 69.3109 474.905 70.4559C474.792 73.2499 474.111 75.9718 472.919 78.3947C471.726 80.8176 470.057 82.8714 468.051 84.3849C467.04 85.1093 465.884 85.5096 464.699 85.5457V85.5457ZM470.351 66.3486C469.534 66.3959 468.741 66.6913 468.051 67.2058C466.368 68.5161 464.967 70.2652 463.958 72.3162C462.948 74.3672 462.358 76.6643 462.232 79.0276C462.075 79.7388 462.121 80.4907 462.363 81.1682C462.606 81.8456 463.031 82.4112 463.574 82.778C464.117 83.1449 464.747 83.2929 465.369 83.1993C465.99 83.1057 466.569 82.7757 467.015 82.2598C468.699 80.9516 470.101 79.2029 471.111 77.1515C472.12 75.1001 472.71 72.802 472.834 70.438C472.912 69.7299 472.829 69.0102 472.594 68.3517C472.358 67.6932 471.979 67.1192 471.493 66.6879C471.146 66.4547 470.751 66.3374 470.351 66.3486V66.3486Z" fill="white"/>
<path d="M474.144 130.636L271.551 267.674C270.396 268.551 269.434 269.736 268.746 271.133C268.058 272.53 267.662 274.099 267.591 275.71V348.801C267.591 351.765 269.358 352.962 271.551 351.48L474.144 214.388C475.298 213.509 476.258 212.323 476.946 210.926C477.635 209.53 478.032 207.962 478.105 206.352V133.315C478.029 130.35 476.262 129.154 474.144 130.636Z" fill="#263238"/>
<path opacity="0.2" d="M474.144 130.636L271.551 267.674C270.396 268.551 269.434 269.736 268.746 271.133C268.058 272.53 267.662 274.099 267.591 275.71V348.801C267.591 351.765 269.358 352.962 271.551 351.48L474.144 214.388C475.298 213.509 476.258 212.323 476.946 210.926C477.635 209.53 478.032 207.962 478.105 206.352V133.315C478.029 130.35 476.262 129.154 474.144 130.636Z" fill="white"/>
<path d="M345.2 230.013L381.91 205.155C383.738 203.923 385.216 204.798 385.216 207.12C385.133 208.418 384.791 209.674 384.216 210.788C383.642 211.902 382.852 212.841 381.91 213.531L345.2 238.388C343.372 239.62 341.895 238.745 341.895 236.424C341.977 235.126 342.32 233.869 342.894 232.755C343.468 231.642 344.258 230.702 345.2 230.013V230.013Z" fill="white"/>
<path d="M341.895 253.174C341.895 255.496 343.418 256.371 345.2 255.139L456.169 180.03C457.109 179.336 457.897 178.392 458.468 177.276C459.04 176.159 459.379 174.9 459.459 173.601C459.459 171.297 457.936 170.422 456.169 171.655L345.2 246.763C344.258 247.453 343.468 248.392 342.894 249.506C342.32 250.62 341.977 251.876 341.895 253.174Z" fill="white"/>
<path d="M341.895 269.924C341.895 272.246 343.418 273.121 345.2 271.889L456.169 196.78C457.109 196.086 457.897 195.143 458.468 194.026C459.04 192.909 459.379 191.65 459.459 190.351C459.459 188.048 457.936 187.173 456.169 188.405L345.2 263.513C344.258 264.203 343.468 265.142 342.894 266.256C342.32 267.37 341.977 268.626 341.895 269.924Z" fill="white"/>
<path d="M341.895 286.675C341.895 288.996 343.418 289.871 345.2 288.639L456.169 213.53C457.109 212.836 457.897 211.893 458.468 210.776C459.04 209.659 459.379 208.401 459.459 207.102C459.459 204.798 457.936 203.923 456.169 205.155L345.2 280.264C344.258 280.953 343.468 281.893 342.894 283.006C342.32 284.12 341.977 285.377 341.895 286.675V286.675Z" fill="white"/>
<path d="M277.796 271.853L325.565 239.513C327.759 238.049 329.526 239.245 329.526 242.192V298.496C329.451 300.107 329.054 301.674 328.366 303.07C327.678 304.466 326.718 305.653 325.565 306.532L277.796 338.854C275.618 340.337 273.835 339.14 273.835 336.194V279.889C273.909 278.278 274.306 276.711 274.994 275.314C275.682 273.918 276.642 272.732 277.796 271.853V271.853Z" fill="white"/>
<path d="M316.487 267.621L302.275 302.157L295.039 297.264C294.34 296.792 293.51 296.663 292.73 296.908C291.95 297.152 291.285 297.749 290.881 298.568L273.835 333.158V336.176C273.835 339.14 275.618 340.337 277.796 338.854L325.565 306.532C326.719 305.654 327.679 304.468 328.367 303.071C329.056 301.675 329.453 300.107 329.526 298.497V278.728L319.914 266.978C319.696 266.65 319.407 266.396 319.077 266.244C318.747 266.091 318.388 266.045 318.038 266.111C317.688 266.177 317.359 266.352 317.086 266.617C316.813 266.883 316.606 267.229 316.487 267.621V267.621Z" fill="#263238"/>
<path d="M281.01 292.46C283.963 290.201 286.421 287.158 288.184 283.578C289.946 279.998 290.964 275.98 291.155 271.853C291.256 270.482 291.08 269.103 290.641 267.828C290.201 266.552 289.511 265.417 288.626 264.513L277.796 271.853C276.642 272.731 275.682 273.917 274.994 275.314C274.306 276.71 273.909 278.278 273.835 279.888V293.282C275.679 294.532 278.207 294.353 281.01 292.46Z" fill="#263238"/>
<path d="M474.144 239.513L271.551 376.552C270.398 377.43 269.438 378.616 268.749 380.013C268.061 381.409 267.664 382.977 267.591 384.588V457.732C267.591 460.679 269.358 461.875 271.551 460.411L474.144 323.282C475.298 322.404 476.258 321.218 476.946 319.821C477.635 318.425 478.032 316.857 478.105 315.247V242.191C478.029 239.245 476.262 238.084 474.144 239.513Z" fill="#263238"/>
<path opacity="0.2" d="M474.144 239.513L271.551 376.552C270.398 377.43 269.438 378.616 268.749 380.013C268.061 381.409 267.664 382.977 267.591 384.588V457.732C267.591 460.679 269.358 461.875 271.551 460.411L474.144 323.282C475.298 322.404 476.258 321.218 476.946 319.821C477.635 318.425 478.032 316.857 478.105 315.247V242.191C478.029 239.245 476.262 238.084 474.144 239.513Z" fill="white"/>
<path d="M345.2 338.89L381.91 314.05C383.738 312.818 385.216 313.693 385.216 315.996C385.135 317.297 384.794 318.558 384.22 319.675C383.645 320.792 382.854 321.734 381.91 322.425L345.2 347.265C343.372 348.497 341.895 347.622 341.895 345.319C341.975 344.018 342.316 342.757 342.891 341.64C343.465 340.523 344.256 339.581 345.2 338.89Z" fill="white"/>
<path d="M341.895 362.069C341.895 364.373 343.418 365.248 345.2 364.016L456.169 288.907C457.107 288.215 457.894 287.274 458.465 286.161C459.037 285.047 459.377 283.792 459.459 282.496C459.459 280.175 457.936 279.3 456.169 280.532L345.2 355.641C344.256 356.331 343.465 357.274 342.891 358.391C342.316 359.508 341.975 360.768 341.895 362.069Z" fill="white"/>
<path d="M341.895 378.819C341.895 381.123 343.418 381.998 345.2 380.766L456.169 305.658C457.107 304.965 457.894 304.025 458.465 302.911C459.037 301.798 459.377 300.543 459.459 299.247C459.459 296.925 457.936 296.05 456.169 297.283L345.2 372.391C344.256 373.082 343.465 374.024 342.891 375.141C342.316 376.258 341.975 377.518 341.895 378.819Z" fill="white"/>
<path d="M341.895 395.57C341.895 397.873 343.418 398.748 345.2 397.516L456.169 322.408C457.107 321.716 457.894 320.775 458.465 319.661C459.037 318.548 459.377 317.293 459.459 315.997C459.459 313.676 457.936 312.801 456.169 314.033L345.2 389.141C344.256 389.832 343.465 390.774 342.891 391.892C342.316 393.009 341.975 394.269 341.895 395.57Z" fill="white"/>
<path d="M277.796 380.748L325.565 348.408C327.759 346.926 329.526 348.122 329.526 351.087V407.374C329.455 408.985 329.059 410.553 328.371 411.95C327.682 413.347 326.721 414.533 325.565 415.409L277.796 447.749C275.618 449.232 273.835 448.035 273.835 445.071V388.784C273.909 387.173 274.306 385.606 274.994 384.209C275.682 382.813 276.642 381.627 277.796 380.748V380.748Z" fill="white"/>
<path d="M316.487 376.516L302.275 411.052L295.039 406.142C294.692 405.908 294.309 405.757 293.912 405.698C293.516 405.638 293.113 405.67 292.727 405.793C292.34 405.915 291.979 406.126 291.662 406.413C291.345 406.699 291.08 407.056 290.881 407.463L273.835 442.053V445.071C273.835 448.035 275.618 449.232 277.796 447.749L325.565 415.41C326.719 414.535 327.679 413.352 328.367 411.958C329.056 410.565 329.453 409 329.526 407.392V387.606L319.914 375.873C319.699 375.54 319.411 375.281 319.08 375.125C318.749 374.969 318.388 374.921 318.036 374.987C317.683 375.053 317.353 375.23 317.08 375.5C316.807 375.769 316.602 376.121 316.487 376.516V376.516Z" fill="#263238"/>
<path d="M281.01 401.338C283.963 399.084 286.421 396.044 288.183 392.466C289.946 388.889 290.964 384.874 291.155 380.749C291.256 379.378 291.08 377.999 290.641 376.724C290.201 375.448 289.511 374.313 288.626 373.409L277.796 380.749C276.642 381.628 275.682 382.813 274.994 384.21C274.306 385.607 273.909 387.174 273.835 388.785V402.178C275.679 403.41 278.207 403.231 281.01 401.338Z" fill="#263238"/>
<path d="M471.843 14.8653V3.49007C471.843 0.525712 470.061 -0.670746 467.883 0.811433L203.552 179.726C202.399 180.605 201.438 181.791 200.75 183.188C200.062 184.584 199.665 186.152 199.592 187.762V199.155L471.843 14.8653Z" fill="#263238"/>
<path d="M439.414 24.4369C438.561 25.0929 437.853 25.9744 437.345 27.0104C436.837 28.0464 436.543 29.2079 436.489 30.4012C436.489 32.5976 437.799 33.4905 439.414 32.3834C440.271 31.7365 440.984 30.8599 441.495 29.8259C442.007 28.792 442.301 27.6304 442.353 26.4369C442.353 24.2405 441.043 23.3476 439.414 24.4369Z" fill="#F5F5F5"/>
<path d="M451.067 16.6506C450.212 17.3046 449.5 18.1854 448.99 19.2217C448.479 20.2579 448.183 21.4205 448.127 22.6155C448.127 24.8121 449.452 25.6872 451.067 24.5978C451.924 23.947 452.638 23.067 453.149 22.0301C453.66 20.9932 453.954 19.8289 454.007 18.633C454.007 16.347 452.697 15.4719 451.067 16.6506Z" fill="#F5F5F5"/>
<path d="M462.72 8.68621C461.863 9.33313 461.149 10.2098 460.638 11.2437C460.127 12.2777 459.833 13.4394 459.78 14.6329C459.78 16.8294 461.09 17.7223 462.72 16.633C463.572 15.977 464.28 15.0955 464.789 14.0594C465.297 13.0233 465.59 11.8618 465.644 10.6684C465.644 8.47191 464.334 7.57901 462.72 8.68621Z" fill="#F5F5F5"/>
<path d="M476.064 568.842C476.524 570.215 476.842 571.648 477.008 573.11C477.437 574.623 477.537 576.237 477.298 577.807C476.271 579.81 474.64 581.289 472.728 581.95C471.367 582.317 469.956 582.348 468.584 582.04C467.212 581.733 465.91 581.094 464.761 580.164C461.973 578.217 459.887 575.842 455.926 574.539C453.101 573.825 450.441 572.406 448.127 570.378C445.934 568.324 443.009 562.61 447.198 561.289C451.387 559.967 460.511 564.628 468.813 565.057L476.064 568.842Z" fill="#263238"/>
<path d="M475.668 562.414C475.668 562.414 476.155 569.235 476.155 570.074C476.155 572.378 468.904 575.431 467.564 570.074L466.406 562.825L475.668 562.414Z" fill="#F28F8F"/>
<path d="M466.772 412.75C469.265 417.047 471.549 421.507 473.611 426.107C473.611 426.107 474.327 436.036 474.327 442.643C474.327 454.786 472.728 464.162 471.281 488.091C473.637 492.798 474.986 498.104 475.211 503.555C475.82 514.395 475.835 514.27 475.896 564.271C474.509 565.148 472.985 565.692 471.416 565.87C469.846 566.048 468.262 565.856 466.757 565.306L453.047 495.287L451.524 467.805L447.229 433.643L466.772 412.75Z" fill="#37474F"/>
<path d="M434.327 581.36C434.815 581.95 434.647 583.146 434.875 585.111C435.129 586.621 435.195 588.167 435.073 589.7C434.274 591.824 432.83 593.523 431.022 594.468C429.707 595.024 428.309 595.255 426.914 595.148C425.52 595.04 424.159 594.596 422.918 593.843C419.963 592.307 417.632 590.271 413.565 589.539C410.687 589.249 407.896 588.232 405.385 586.557C402.994 584.771 399.475 579.593 403.496 577.628C407.518 575.664 417.602 579.182 425.873 578.396L434.327 581.36Z" fill="#263238"/>
<path d="M436.23 572.788C436.23 572.788 434.707 580.574 434.296 582.307C433.382 586.467 425.507 586.682 425.507 581.878L426.04 570.806L436.23 572.788Z" fill="#F28F8F"/>
<path d="M448.996 414.874C452.941 423.963 456.749 431.981 456.871 441.66C457.16 462.143 449.909 484.697 447.244 499.501C448.038 504.859 448.263 510.311 447.914 515.733C447.381 521.93 435.332 578.235 435.332 578.235C435.332 578.235 428.63 579.878 425.781 576.324L429.163 467.911L430.077 436.428L448.996 414.874Z" fill="#37474F"/>
<path d="M443.572 359.356L446.055 375.481L458.485 374.41L455.88 356.141L443.572 359.356Z" fill="#FFA8A7"/>
<path d="M471.601 373.231C470.367 368.856 465.629 364.088 460.938 365.124C453.891 366.528 446.945 368.558 440.161 371.195C435.819 372.981 431.859 377.428 431.493 394.178L430.138 436.322C432.015 438.278 434.267 439.675 436.703 440.393C443.299 442.518 447.655 443.786 457.678 441.215C470.732 437.875 473.84 428.607 473.84 428.607C473.84 428.607 473.337 406.303 472.941 394.178C472.621 383.874 472.438 376.249 471.601 373.231Z" fill="#455A64"/>
<path d="M438.272 338.766L374.98 318.64C369.253 317.479 366.861 333.873 372.589 335.016L437.586 342.712L438.272 338.766Z" fill="#263238"/>
<path d="M420.069 372.766L407.136 373.231C407.136 373.231 409.086 350.677 410.29 347.712C411.493 344.748 414.372 344.141 417.236 343.194C420.099 342.248 420.084 340.641 420.084 340.641L417.51 340.337C415.255 340.069 414.357 336.766 415.332 334.533C415.804 333.498 416.565 331.855 417.936 332.301L421.348 333.39C421.401 331.626 421.026 329.88 420.267 328.355C419.125 326.872 418.363 327.337 416.078 326.408C414.387 325.712 410.929 324.48 408.142 325.819C405.354 327.158 403.237 333.301 402.521 337.641C401.796 342.659 400.622 347.573 399.017 352.302C396.534 360.337 392.924 376.838 392.544 383.445C392.376 386.499 392.62 388.32 395.514 389.124C398.408 389.927 419.703 389.981 419.703 389.981L420.069 372.766Z" fill="#FFA8A7"/>
<path d="M434.372 340.266C434.372 340.266 431.326 345.481 431.752 346.052C432.44 346.59 433.203 346.983 434.007 347.213L434.372 340.266Z" fill="#FFA8A7"/>
<path d="M443.558 323.801C440.663 325.587 435.667 328.676 434.281 341.105C432.864 353.855 434.738 357.963 436.2 359.659C437.205 360.802 442.598 360.873 445.34 359.909C448.721 358.731 456.353 355.32 459.841 348.766C463.939 341.052 464.853 330.73 460.237 326.623C457.889 324.534 455.126 323.18 452.208 322.686C449.291 322.192 446.314 322.576 443.558 323.801V323.801Z" fill="#FFA8A7"/>
<path d="M452.072 477.679L458.668 455.822C463.78 453.697 468.361 450.113 471.996 445.393C471.996 445.393 470.473 451.625 460.054 458.018L452.819 478.697V490.197L452.072 477.679Z" fill="#263238"/>
<path d="M433.687 327.998C434.631 331.051 436.23 338.551 442.902 341.676C442.902 341.676 443.862 336.909 447.274 337.409C450.686 337.909 451.28 343.034 449.178 346.212C447.076 349.391 445.035 348.248 445.035 348.248C445.035 348.248 444.578 355.087 448.477 358.194C449.929 359.198 451.56 359.793 453.241 359.932C454.922 360.072 456.608 359.752 458.165 358.998C460.405 357.802 463.588 351.498 465.447 346.319C469.377 335.391 469.94 326.676 463.923 323.855C463.177 318.891 461.273 317.015 457.434 316.087C449.178 314.105 442.933 320.462 436.002 319.337C432.453 318.748 432.59 324.498 433.687 327.998Z" fill="#263238"/>
<path d="M464.121 325.587L468.021 322.748C467.681 322.191 467.173 321.806 466.6 321.672C466.028 321.538 465.433 321.665 464.937 322.026C464.44 322.387 464.08 322.956 463.929 323.618C463.777 324.279 463.846 324.983 464.121 325.587V325.587Z" fill="#263238"/>
<path d="M417.175 372.463C417.175 372.463 435.378 371.231 440.024 371.195C444.67 371.16 449.605 380.463 446.711 386.803C444.791 390.963 438.805 392.392 431.265 392.82C423.725 393.249 416.124 393.249 416.124 393.249C416.124 393.249 409.345 384.195 417.175 372.463Z" fill="#455A64"/>
<path d="M431.493 392.82C431.493 392.82 443.024 392.642 446.802 386.803C446.802 386.803 445.918 390.374 441.44 392.571C438.23 394.017 434.85 394.872 431.417 395.106L431.493 392.82Z" fill="#37474F"/>
<path d="M374.98 318.64C369.253 317.479 366.861 333.873 372.589 335.016L381.728 336.087C378.011 335.641 380.586 320.408 383.419 321.301L374.98 318.64Z" fill="#455A64"/>
<path d="M605.479 314.265C605.48 317.589 604.626 320.837 603.03 323.584C601.433 326.331 599.167 328.45 596.527 329.664C593.888 330.879 590.997 331.133 588.233 330.393C585.469 329.653 582.959 327.953 581.031 325.515L580.101 324.194C577.933 320.804 576.958 316.568 577.376 312.36C577.794 308.151 579.574 304.292 582.349 301.577C585.124 298.863 588.681 297.5 592.288 297.771C595.895 298.042 599.275 299.925 601.732 303.032L602.691 304.39C604.5 307.245 605.478 310.708 605.479 314.265V314.265Z" fill="#455A64"/>
<path d="M605.479 314.265C605.48 317.589 604.627 320.837 603.03 323.584C601.433 326.331 599.167 328.45 596.528 329.664C593.888 330.879 590.998 331.133 588.233 330.393C585.469 329.652 582.959 327.953 581.031 325.515L580.102 324.194L521.365 241.031L546.118 224.281L601.732 302.997L602.692 304.354C604.507 307.22 605.485 310.696 605.479 314.265V314.265Z" fill="#455A64"/>
<path d="M556.887 291.318C559.354 294.351 562.711 296.173 566.28 296.415C569.848 296.658 573.363 295.303 576.112 292.624C578.861 289.946 580.64 286.143 581.089 281.986C581.539 277.828 580.625 273.626 578.533 270.228V270.228L571.267 259.96C573.438 263.351 574.416 267.591 573.997 271.803C573.578 276.015 571.795 279.877 569.016 282.592C566.237 285.307 562.674 286.666 559.065 286.389C555.455 286.112 552.074 284.219 549.621 281.103L556.887 291.318Z" fill="#263238"/>
<path d="M545.173 93.5453C549.608 94.1238 553.895 95.7585 557.771 98.349L539.903 86.1701C527.915 76.5092 510.656 77.0806 491.479 90.0452C455.271 114.564 425.902 174.19 425.902 223.227C425.902 247.317 432.894 264.532 444.425 272.71L444.669 272.889L463.74 285.764C460.358 283.185 457.41 279.898 455.042 276.068C459.741 276.671 464.493 276.351 469.102 275.121C470.778 274.693 472.468 274.175 474.19 273.532C473.964 273.452 473.745 273.351 473.535 273.228C472.618 272.725 471.741 272.128 470.915 271.443C469.415 270.218 468.08 268.737 466.954 267.05C465.414 264.739 464.163 262.184 463.237 259.46C461.996 259.671 460.744 259.778 459.49 259.782C456.525 259.851 453.583 259.163 450.869 257.764C450.234 257.423 449.618 257.035 449.025 256.603C448.492 256.21 447.959 255.746 447.502 255.281C446.4 249.237 445.864 243.069 445.903 236.888C445.903 187.869 475.271 128.225 511.509 103.706C516.136 100.542 521.038 97.9679 526.133 96.0275C527.505 96.685 528.796 97.5559 529.971 98.6168C531.215 99.7356 532.336 101.031 533.307 102.474C534.852 104.79 536.108 107.351 537.039 110.081C538.286 109.877 539.543 109.775 540.802 109.778C544.246 109.669 547.652 110.637 550.672 112.581C551.437 113.07 552.165 113.631 552.851 114.26C552.576 112.832 552.287 111.421 551.937 110.081C550.561 104.132 548.269 98.5281 545.173 93.5453V93.5453Z" fill="#263238"/>
<path d="M557.771 98.3494L556.735 97.6887C553.134 95.4778 549.213 94.0728 545.174 93.5458C540.838 92.979 536.453 93.214 532.18 94.2422C530.122 94.6996 528.087 95.2958 526.087 96.0279C520.993 97.9683 516.091 100.543 511.464 103.707C475.226 128.225 445.857 187.869 445.857 236.888C445.819 243.069 446.355 249.236 447.457 255.281C447.655 256.37 447.883 257.406 448.112 258.442C449.469 264.763 451.825 270.729 455.058 276.032C456.501 278.365 458.162 280.503 460.008 282.407C461.186 283.621 462.438 284.731 463.756 285.728C475.713 294.782 492.697 293.996 511.433 281.282C547.672 256.763 577.04 197.137 577.04 148.1C577.025 123.582 569.667 106.35 557.771 98.3494ZM550.612 112.635C551.376 113.124 552.104 113.685 552.79 114.314C553.938 115.408 554.985 116.641 555.912 117.993C560.482 124.707 562.904 135.154 562.904 148.154C562.904 191.012 536.095 245.513 504.366 266.996C496.368 272.353 488.676 275.282 482.141 275.282C479.415 275.319 476.711 274.712 474.19 273.496C473.965 273.416 473.746 273.315 473.535 273.192C472.618 272.689 471.741 272.091 470.915 271.406C469.887 270.561 468.937 269.591 468.082 268.514V268.514C467.701 268.049 467.335 267.531 466.97 267.014C465.43 264.703 464.179 262.148 463.253 259.424C460.933 252.218 459.826 244.552 459.993 236.852C459.993 236.281 459.993 235.727 459.993 235.066C460.663 192.387 487.183 139.118 518.501 117.939C519.217 117.457 519.948 116.975 520.68 116.528C525.73 113.221 531.245 111.001 536.963 109.975C538.21 109.77 539.467 109.669 540.726 109.671C543.436 109.644 546.124 110.251 548.631 111.457C549.318 111.777 549.981 112.165 550.612 112.618V112.635Z" fill="#455A64"/>
<path opacity="0.6" d="M556.781 143.19C556.781 186.048 529.971 240.549 498.242 262.032C490.245 267.389 482.567 270.318 476.017 270.318C473.296 270.355 470.597 269.748 468.081 268.532V268.532C467.7 268.068 467.335 267.55 466.969 267.032C465.43 264.721 464.178 262.166 463.252 259.442C460.932 252.236 459.825 244.571 459.993 236.87C459.993 236.299 459.993 235.745 459.993 235.085C460.663 192.405 487.183 139.136 518.501 117.957C519.217 117.475 519.948 116.993 520.679 116.547C525.73 113.239 531.245 111.02 536.963 109.993C538.21 109.788 539.467 109.687 540.726 109.689C543.436 109.662 546.124 110.269 548.631 111.475C549.043 111.957 549.423 112.475 549.789 112.993C554.359 119.743 556.781 130.19 556.781 143.19Z" fill="white"/>
</svg>
