<svg width="661" height="651" viewBox="0 0 661 651" fill="none" xmlns="http://www.w3.org/2000/svg">
<path d="M96.7995 591.025C225.873 670.983 435.127 671.001 564.2 591.025C693.274 511.048 693.259 381.42 564.2 301.462C435.142 221.504 225.873 221.504 96.7995 301.462C-32.2742 381.42 -32.2588 511.085 96.7995 591.025Z" fill="#F0F0F0"/>
<path d="M591.605 434.451C591.605 434.451 593.223 424.806 606.347 417.353C619.118 410.046 626.481 411.744 635.246 407.561C644.011 403.378 637.711 383.722 613.68 392.454C591.667 400.455 589.433 423.052 589.433 423.052L591.605 434.451Z" fill="#37474F"/>
<path opacity="0.2" d="M591.605 434.451C591.605 434.451 593.223 424.806 606.347 417.353C619.118 410.046 626.481 411.744 635.246 407.561C644.011 403.378 637.711 383.722 613.68 392.454C591.667 400.455 589.433 423.052 589.433 423.052L591.605 434.451Z" fill="black"/>
<path d="M589.295 430.835C589.208 430.852 589.119 430.852 589.033 430.835C588.927 430.792 588.83 430.724 588.747 430.637C588.664 430.549 588.596 430.443 588.547 430.324C588.499 430.206 588.47 430.077 588.464 429.945C588.457 429.813 588.472 429.681 588.509 429.556C591.59 419.107 599.292 409.461 609.336 403.579C622.214 396.107 631.379 398.482 631.765 398.591C631.981 398.65 632.169 398.807 632.288 399.03C632.406 399.253 632.445 399.522 632.396 399.779C632.347 400.036 632.214 400.259 632.026 400.399C631.838 400.54 631.611 400.586 631.395 400.528C631.302 400.528 622.383 398.226 610.075 405.369C600.447 410.959 592.976 420.239 590.049 430.214C589.986 430.391 589.881 430.544 589.747 430.653C589.614 430.763 589.457 430.826 589.295 430.835V430.835Z" fill="#FAFAFA"/>
<path d="M589.711 422.431C589.711 422.431 591.251 416.95 597.182 406.227C607.41 387.631 624.093 379.502 631.395 368.87C639.251 357.398 625.665 350.31 613.449 354.256C606.455 356.558 600.078 364.121 596.735 369.217C589.653 380.301 585.595 393.685 585.105 407.579L589.711 422.431Z" fill="#37474F"/>
<path d="M587.415 422.87C587.193 422.86 586.983 422.748 586.831 422.556C586.678 422.365 586.595 422.11 586.599 421.847C587.313 409.779 590.208 398.035 595.087 387.412C604.329 367.737 618.039 360.741 618.625 360.449C618.82 360.394 619.024 360.424 619.203 360.532C619.381 360.64 619.522 360.819 619.599 361.038C619.677 361.257 619.686 361.501 619.626 361.728C619.566 361.954 619.441 362.148 619.272 362.275C609.623 368.004 601.691 377.111 596.55 388.362C591.797 398.702 588.975 410.135 588.278 421.883C588.276 422.015 588.252 422.145 588.208 422.266C588.163 422.387 588.099 422.497 588.019 422.588C587.939 422.68 587.844 422.752 587.741 422.8C587.637 422.849 587.526 422.872 587.415 422.87V422.87Z" fill="#FAFAFA"/>
<path d="M139.485 438.872C128.409 430.049 127.917 406.301 129.519 391.376C132.06 367.628 121.816 362.148 116.594 372.633C114.068 377.73 110.895 388.8 111.249 401.698C111.819 421.902 119.198 446.07 137.067 454.838L139.485 438.872Z" fill="#37474F"/>
<path opacity="0.2" d="M139.485 438.872C128.409 430.049 127.917 406.301 129.519 391.376C132.06 367.628 121.816 362.148 116.594 372.633C114.068 377.73 110.895 388.8 111.249 401.698C111.819 421.902 119.198 446.07 137.067 454.838L139.485 438.872Z" fill="black"/>
<path d="M137.206 453.487C137.024 453.486 136.849 453.408 136.713 453.268C117.966 434.251 115.023 400.291 120.23 376.744C120.255 376.624 120.3 376.511 120.362 376.411C120.424 376.312 120.502 376.228 120.592 376.165C120.681 376.101 120.78 376.059 120.883 376.041C120.986 376.022 121.092 376.029 121.193 376.058C121.294 376.088 121.389 376.142 121.473 376.215C121.557 376.289 121.627 376.381 121.681 376.487C121.735 376.594 121.77 376.711 121.785 376.833C121.801 376.956 121.796 377.08 121.77 377.2C116.687 400.199 119.506 433.374 137.76 451.879C137.837 451.956 137.9 452.051 137.946 452.157C137.992 452.264 138.019 452.38 138.026 452.499C138.033 452.619 138.02 452.738 137.988 452.851C137.955 452.964 137.904 453.069 137.837 453.158C137.762 453.27 137.666 453.358 137.556 453.415C137.446 453.472 137.325 453.497 137.206 453.487Z" fill="#FAFAFA"/>
<path d="M156.138 482.715C146.494 490.935 124.327 498.041 117.118 483.957C110.417 470.859 114.9 465.141 101.298 467.406C87.6957 469.671 84.5686 457.14 87.7882 446.545C91.0077 435.949 77.6058 420.623 87.3876 408.676C97.1695 396.729 102.792 421.573 108.461 424.258C114.13 426.943 117.596 421.152 124.127 425.372C130.659 429.592 131.29 446.855 137.652 447.184C148.066 447.75 165.596 447.659 166.921 458.674C168.246 469.69 156.138 482.715 156.138 482.715Z" fill="#37474F"/>
<path d="M160.128 477.892H160.051C109.601 471.645 90.0838 419.435 88.8823 411.836C88.864 411.716 88.8659 411.593 88.8878 411.474C88.9097 411.355 88.9512 411.242 89.0098 411.142C89.0685 411.042 89.1432 410.956 89.2296 410.89C89.3161 410.825 89.4127 410.779 89.5138 410.758C89.615 410.736 89.7187 410.739 89.8191 410.765C89.9196 410.79 90.0147 410.84 90.0991 410.909C90.1835 410.979 90.2555 411.067 90.311 411.17C90.3665 411.272 90.4045 411.387 90.4227 411.507C91.5934 418.978 110.71 469.964 160.235 476.084C160.337 476.095 160.435 476.13 160.525 476.187C160.615 476.244 160.694 476.321 160.759 476.415C160.823 476.508 160.871 476.616 160.901 476.731C160.93 476.847 160.939 476.968 160.929 477.089C160.902 477.316 160.806 477.524 160.658 477.672C160.51 477.821 160.321 477.899 160.128 477.892V477.892Z" fill="#FAFAFA"/>
<path d="M104.964 454.509C101.78 454.509 98.6019 454.203 95.4597 453.596C95.2598 453.551 95.0829 453.415 94.9675 453.217C94.852 453.018 94.8075 452.774 94.8435 452.536C94.8601 452.418 94.8966 452.305 94.9509 452.203C95.0052 452.102 95.0762 452.015 95.1595 451.947C95.2429 451.878 95.337 451.831 95.4362 451.807C95.5354 451.783 95.6377 451.782 95.7369 451.806C101.49 452.929 107.36 452.929 113.113 451.806C113.315 451.757 113.525 451.804 113.698 451.938C113.871 452.071 113.993 452.279 114.037 452.518C114.058 452.636 114.058 452.757 114.039 452.875C114.02 452.992 113.981 453.104 113.925 453.205C113.87 453.305 113.798 453.391 113.714 453.458C113.63 453.525 113.536 453.572 113.437 453.596C110.647 454.245 107.807 454.551 104.964 454.509V454.509Z" fill="#FAFAFA"/>
<path d="M120.015 459.972H119.845C119.648 459.919 119.476 459.777 119.366 459.575C119.257 459.373 119.219 459.129 119.26 458.894C120.816 450.759 121.186 442.369 120.354 434.086C120.321 433.844 120.371 433.596 120.492 433.397C120.613 433.199 120.796 433.065 121.001 433.026C121.205 432.988 121.414 433.047 121.581 433.191C121.749 433.335 121.861 433.551 121.894 433.794C122.787 442.33 122.411 450.986 120.785 459.369C120.729 459.554 120.623 459.713 120.484 459.822C120.346 459.931 120.181 459.983 120.015 459.972V459.972Z" fill="#FAFAFA"/>
<path d="M25.6007 388.49L49.7856 371.939C50.9494 371.245 52.2339 370.884 53.5366 370.884C54.8392 370.884 56.1238 371.245 57.2875 371.939L60.3684 374.04C61.4633 374.883 62.3746 376.02 63.0279 377.36C63.6811 378.7 64.0578 380.204 64.1271 381.749V414.851C64.0554 416.395 63.6777 417.898 63.0246 419.238C62.3716 420.577 61.4616 421.715 60.3684 422.56L36.1989 439.11C35.0351 439.804 33.7506 440.166 32.4479 440.166C31.1453 440.166 29.8607 439.804 28.697 439.11L25.6161 437.01C24.524 436.165 23.6157 435.027 22.9652 433.687C22.3147 432.347 21.9404 430.844 21.8728 429.301V396.199C21.9423 394.658 22.3158 393.158 22.9633 391.819C23.6107 390.48 24.5141 389.34 25.6007 388.49Z" fill="#37474F"/>
<path opacity="0.5" d="M25.6007 388.49L49.7856 371.939C50.9494 371.245 52.2339 370.884 53.5366 370.884C54.8392 370.884 56.1238 371.245 57.2875 371.939L60.3684 374.04C61.4633 374.883 62.3746 376.02 63.0279 377.36C63.6811 378.7 64.0578 380.204 64.1271 381.749V414.851C64.0554 416.395 63.6777 417.898 63.0246 419.238C62.3716 420.577 61.4616 421.715 60.3684 422.56L36.1989 439.11C35.0351 439.804 33.7506 440.166 32.4479 440.166C31.1453 440.166 29.8607 439.804 28.697 439.11L25.6161 437.01C24.524 436.165 23.6157 435.027 22.9652 433.687C22.3147 432.347 21.9404 430.844 21.8728 429.301V396.199C21.9423 394.658 22.3158 393.158 22.9633 391.819C23.6107 390.48 24.5141 389.34 25.6007 388.49Z" fill="#FAFAFA"/>
<path d="M64.0958 381.749C64.0958 378.899 62.4167 377.749 60.3371 379.173L36.1676 395.724C35.0744 396.569 34.1644 397.707 33.5114 399.046C32.8584 400.385 32.4807 401.888 32.4089 403.433V436.534C32.4089 439.366 34.088 440.517 36.1676 439.11L60.3371 422.56C61.4303 421.715 62.3403 420.577 62.9933 419.238C63.6463 417.898 64.024 416.395 64.0958 414.851V381.749Z" fill="#37474F"/>
<path d="M21.8567 429.3C21.9195 430.85 22.2916 432.36 22.9423 433.707C23.593 435.053 24.5038 436.198 25.5999 437.045L28.6808 439.146C29.7378 439.775 30.8953 440.132 32.0769 440.192C33.2585 440.251 34.4374 440.013 35.5358 439.493C33.7643 440.297 32.4549 439.11 32.4549 436.57V403.433C32.4958 401.882 32.8782 400.37 33.564 399.048L22.9966 391.741C22.3245 393.069 21.9482 394.578 21.9029 396.126L21.8567 429.3Z" fill="#37474F"/>
<path opacity="0.1" d="M21.8567 429.3C21.9195 430.85 22.2916 432.36 22.9423 433.707C23.593 435.053 24.5038 436.198 25.5999 437.045L28.6808 439.146C29.7378 439.775 30.8953 440.132 32.0769 440.192C33.2585 440.251 34.4374 440.013 35.5358 439.493C33.7643 440.297 32.4549 439.11 32.4549 436.57V403.433C32.4958 401.882 32.8782 400.37 33.564 399.048L22.9966 391.741C22.3245 393.069 21.9482 394.578 21.9029 396.126L21.8567 429.3Z" fill="black"/>
<path d="M38.0157 405.698L58.5806 391.577C59.1197 391.193 59.5665 391.577 59.5665 392.253V408.694C59.5488 409.105 59.4504 409.506 59.2793 409.864C59.1082 410.223 58.8689 410.529 58.5806 410.758L38.0157 424.989C37.4611 425.373 37.0144 424.989 37.0144 424.295V407.854C37.0218 407.425 37.1167 407.005 37.2911 406.63C37.4655 406.254 37.7142 405.935 38.0157 405.698V405.698Z" fill="#FAFAFA"/>
<path d="M37.0144 406.392L49.2917 411.124L59.5665 390.883L49.6306 412.823L37.0144 406.392Z" fill="#E0E0E0"/>
<path d="M25.6 304.952L49.7849 288.401C50.9465 287.699 52.232 287.332 53.5359 287.332C54.8399 287.332 56.1253 287.699 57.2869 288.401L60.3678 290.502C61.4578 291.347 62.3638 292.486 63.0117 293.826C63.6596 295.166 64.031 296.668 64.0956 298.211V331.312C64.0264 332.855 63.6497 334.356 62.9963 335.693C62.3429 337.03 61.4315 338.164 60.337 339.002L36.1674 355.553C35.0058 356.255 33.7204 356.622 32.4164 356.622C31.1125 356.622 29.8271 356.255 28.6655 355.553L25.5846 353.47C24.4919 352.616 23.5847 351.467 22.937 350.118C22.2892 348.769 21.9191 347.257 21.8567 345.707V312.66C21.9279 311.118 22.3038 309.616 22.954 308.277C23.6042 306.938 24.5105 305.799 25.6 304.952Z" fill="#37474F"/>
<path opacity="0.5" d="M25.6 304.952L49.7849 288.401C50.9465 287.699 52.232 287.332 53.5359 287.332C54.8399 287.332 56.1253 287.699 57.2869 288.401L60.3678 290.502C61.4578 291.347 62.3638 292.486 63.0117 293.826C63.6596 295.166 64.031 296.668 64.0956 298.211V331.312C64.0264 332.855 63.6497 334.356 62.9963 335.693C62.3429 337.03 61.4315 338.164 60.337 339.002L36.1674 355.553C35.0058 356.255 33.7204 356.622 32.4164 356.622C31.1125 356.622 29.8271 356.255 28.6655 355.553L25.5846 353.47C24.4919 352.616 23.5847 351.467 22.937 350.118C22.2892 348.769 21.9191 347.257 21.8567 345.707V312.66C21.9279 311.118 22.3038 309.616 22.954 308.277C23.6042 306.938 24.5105 305.799 25.6 304.952Z" fill="#FAFAFA"/>
<path d="M64.0958 298.211C64.0958 295.361 62.4167 294.21 60.3371 295.635L36.1676 312.186C35.0727 313.028 34.1614 314.165 33.5082 315.505C32.8549 316.845 32.4782 318.349 32.4089 319.895V353.014C32.4089 355.846 34.088 356.997 36.1676 355.572L60.3371 339.021C61.4317 338.183 62.343 337.049 62.9964 335.712C63.6498 334.375 64.0265 332.873 64.0958 331.33V298.211Z" fill="#37474F"/>
<path d="M21.8567 345.707C21.9279 347.25 22.3038 348.751 22.954 350.09C23.6041 351.429 24.5105 352.568 25.5999 353.416L28.6808 355.498C29.7355 356.135 30.8927 356.497 32.075 356.56C33.2572 356.623 34.4372 356.386 35.5358 355.864C33.7643 356.649 32.4549 355.48 32.4549 352.941V319.895C32.4958 318.344 32.8782 316.832 33.564 315.51L22.9966 308.203C22.3245 309.531 21.9482 311.04 21.9029 312.588L21.8567 345.707Z" fill="#37474F"/>
<path opacity="0.1" d="M21.8567 345.707C21.9279 347.25 22.3038 348.751 22.954 350.09C23.6041 351.429 24.5105 352.568 25.5999 353.416L28.6808 355.498C29.7355 356.135 30.8927 356.497 32.075 356.56C33.2572 356.623 34.4372 356.386 35.5358 355.864C33.7643 356.649 32.4549 355.48 32.4549 352.941V319.895C32.4958 318.344 32.8782 316.832 33.564 315.51L22.9966 308.203C22.3245 309.531 21.9482 311.04 21.9029 312.588L21.8567 345.707Z" fill="black"/>
<path d="M48.0135 338.4L45.518 338.071C42.129 337.742 38.093 336.244 38.093 330.417C38.1906 328.301 38.7073 326.243 39.6013 324.408C40.4952 322.574 41.7412 321.015 43.2381 319.858C45.4563 318.342 47.3357 318.963 48.0597 321.155C48.7896 317.904 50.5067 315.087 52.8813 313.245C55.7311 311.309 58.0264 312.88 58.0264 316.771C58.0264 322.397 54.0212 329.558 50.6476 334.509L48.0135 338.4Z" fill="#FAFAFA"/>
<path d="M25.6007 221.486L49.7856 204.936C50.9472 204.233 52.2326 203.867 53.5366 203.867C54.8405 203.867 56.1259 204.233 57.2875 204.936L60.3684 207.036C61.463 207.875 62.3744 209.009 63.0277 210.346C63.6811 211.682 64.0579 213.184 64.1271 214.727V247.828C64.059 249.374 63.6829 250.879 63.0295 252.219C62.3761 253.559 61.4642 254.696 60.3684 255.537L36.1989 272.088C35.0373 272.79 33.7519 273.156 32.4479 273.156C31.144 273.156 29.8586 272.79 28.697 272.088L25.6161 270.005C24.5266 269.158 23.6203 268.018 22.9701 266.679C22.3199 265.34 21.944 263.839 21.8728 262.296V229.14C21.9494 227.608 22.3262 226.119 22.9733 224.79C23.6205 223.462 24.5201 222.33 25.6007 221.486V221.486Z" fill="#37474F"/>
<path opacity="0.5" d="M25.6007 221.486L49.7856 204.936C50.9472 204.233 52.2326 203.867 53.5366 203.867C54.8405 203.867 56.1259 204.233 57.2875 204.936L60.3684 207.036C61.463 207.875 62.3744 209.009 63.0277 210.346C63.6811 211.682 64.0579 213.184 64.1271 214.727V247.828C64.059 249.374 63.6829 250.879 63.0295 252.219C62.3761 253.559 61.4642 254.696 60.3684 255.537L36.1989 272.088C35.0373 272.79 33.7519 273.156 32.4479 273.156C31.144 273.156 29.8586 272.79 28.697 272.088L25.6161 270.005C24.5266 269.158 23.6203 268.018 22.9701 266.679C22.3199 265.34 21.944 263.839 21.8728 262.296V229.14C21.9494 227.608 22.3262 226.119 22.9733 224.79C23.6205 223.462 24.5201 222.33 25.6007 221.486V221.486Z" fill="#FAFAFA"/>
<path d="M36.1676 272.033C34.088 273.458 32.4089 272.307 32.4089 269.475V236.374C32.477 234.828 32.8532 233.324 33.5065 231.984C34.1599 230.644 35.0719 229.506 36.1676 228.665L60.3371 212.115C62.4167 210.69 64.0958 211.841 64.0958 214.672V247.773C64.0277 249.319 63.6516 250.824 62.9982 252.164C62.3448 253.504 61.4329 254.641 60.3371 255.482" fill="#37474F"/>
<path d="M21.8567 262.241C21.9279 263.784 22.3038 265.285 22.954 266.624C23.6041 267.963 24.5105 269.102 25.5999 269.95L28.6808 272.032C29.7355 272.669 30.8927 273.031 32.075 273.094C33.2572 273.157 34.4372 272.92 35.5358 272.398C33.7643 273.183 32.4549 272.014 32.4549 269.475V236.374C32.4958 234.823 32.8782 233.312 33.564 231.99L22.9966 224.683C22.3245 226.011 21.9482 227.519 21.9029 229.067L21.8567 262.241Z" fill="#37474F"/>
<path opacity="0.1" d="M21.8567 262.241C21.9279 263.784 22.3038 265.285 22.954 266.624C23.6041 267.963 24.5105 269.102 25.5999 269.95L28.6808 272.032C29.7355 272.669 30.8927 273.031 32.075 273.094C33.2572 273.157 34.4372 272.92 35.5358 272.398C33.7643 273.183 32.4549 272.014 32.4549 269.475V236.374C32.4958 234.823 32.8782 233.312 33.564 231.99L22.9966 224.683C22.3245 226.011 21.9482 227.519 21.9029 229.067L21.8567 262.241Z" fill="black"/>
<path d="M43.8391 241.58C43.8391 241.58 46.6581 233.871 46.92 232.757C47.06 230.849 47.06 228.929 46.92 227.021C46.92 226.29 49.4925 224.226 50.3244 226.345C51.1246 228.599 51.2762 231.103 50.7557 233.469L57.0253 229.14C58.3501 228.227 58.8892 229.505 58.9047 230.528C58.8617 231.695 58.5055 232.815 57.888 233.725C57.888 233.725 59.1511 233.287 59.1511 235.278C59.1136 235.978 58.9579 236.662 58.6933 237.29C58.4287 237.918 58.0605 238.476 57.6107 238.932C57.6107 238.932 58.0112 239.297 58.0266 240.758C57.8409 242.191 57.2155 243.492 56.2705 244.412C56.4786 244.988 56.5735 245.613 56.5478 246.239C56.4703 247.113 56.2226 247.955 55.8243 248.696C55.426 249.438 54.888 250.06 54.2525 250.513L43.9778 257.656L43.8391 241.58Z" fill="#FAFAFA"/>
<path d="M37.8932 263.977L42.4066 260.853L42.345 242.22L37.8162 245.344L37.8932 263.977Z" fill="#FAFAFA"/>
<path d="M12.3678 123.681L49.4308 98.3067C51.2113 97.2348 53.1799 96.6761 55.1767 96.6761C57.1734 96.6761 59.142 97.2348 60.9225 98.3067L65.5438 101.504C67.2216 102.796 68.6181 104.54 69.6193 106.594C70.6205 108.648 71.1981 110.954 71.3051 113.323V164.071C71.1899 166.427 70.6083 168.719 69.6074 170.76C68.6064 172.8 67.2144 174.533 65.5438 175.817L28.5732 201.245C26.7901 202.317 24.8189 202.876 22.8197 202.876C20.8204 202.876 18.8493 202.317 17.0661 201.245L12.4448 198.049C10.7716 196.752 9.37945 195.006 8.38119 192.953C7.38292 190.9 6.80662 188.596 6.69897 186.229V135.482C6.79796 133.125 7.36258 130.83 8.34728 128.78C9.33197 126.73 10.7092 124.983 12.3678 123.681V123.681Z" fill="#37474F"/>
<path opacity="0.1" d="M12.3678 123.681L49.4308 98.3067C51.2113 97.2348 53.1799 96.6761 55.1767 96.6761C57.1734 96.6761 59.142 97.2348 60.9225 98.3067L65.5438 101.504C67.2216 102.796 68.6181 104.54 69.6193 106.594C70.6205 108.648 71.1981 110.954 71.3051 113.323V164.071C71.1899 166.427 70.6083 168.719 69.6074 170.76C68.6064 172.8 67.2144 174.533 65.5438 175.817L28.5732 201.245C26.7901 202.317 24.8189 202.876 22.8197 202.876C20.8204 202.876 18.8493 202.317 17.0661 201.245L12.4448 198.049C10.7716 196.752 9.37945 195.006 8.38119 192.953C7.38292 190.9 6.80662 188.596 6.69897 186.229V135.482C6.79796 133.125 7.36258 130.83 8.34728 128.78C9.33197 126.73 10.7092 124.983 12.3678 123.681V123.681Z" fill="black"/>
<path d="M71.3668 113.012C71.3668 110.473 70.3193 104.152 64.8199 108.153C59.3205 112.153 32.3012 130.257 28.5733 132.888C25.9865 134.571 23.9439 137.224 22.7659 140.432L25.7081 143.94L71.3668 113.012Z" fill="#37474F"/>
<path opacity="0.2" d="M71.3668 113.012C71.3668 110.473 70.3193 104.152 64.8199 108.153C59.3205 112.153 32.3012 130.257 28.5733 132.888C25.9865 134.571 23.9439 137.224 22.7659 140.432L25.7081 143.94L71.3668 113.012Z" fill="black"/>
<path d="M28.573 201.245C25.3843 203.419 22.8118 201.665 22.8118 197.318V146.588C22.9163 144.216 23.4928 141.907 24.4941 139.849C25.4955 137.792 26.8932 136.045 28.573 134.751L65.5436 109.377C68.7323 107.203 71.3048 108.975 71.3048 113.323V164.07C71.1896 166.427 70.608 168.719 69.6071 170.759C68.6062 172.8 67.2141 174.533 65.5436 175.817" fill="#37474F"/>
<path opacity="0.1" d="M28.573 201.245C25.3843 203.419 22.8118 201.665 22.8118 197.318V146.588C22.9163 144.216 23.4928 141.907 24.4941 139.849C25.4955 137.792 26.8932 136.045 28.573 134.751L65.5436 109.377C68.7323 107.203 71.3048 108.975 71.3048 113.323V164.07C71.1896 166.427 70.608 168.719 69.6071 170.759C68.6062 172.8 67.2141 174.533 65.5436 175.817" fill="black"/>
<path d="M6.62192 186.23C6.72956 188.596 7.30586 190.9 8.30413 192.953C9.30239 195.007 10.6945 196.752 12.3678 198.049L16.9891 201.246C18.6103 202.214 20.3864 202.764 22.2001 202.859C24.0137 202.953 25.8237 202.59 27.5103 201.794C24.7991 203.018 22.7349 201.209 22.7349 197.318V146.588C22.8051 144.212 23.3885 141.897 24.4294 139.866L8.23938 128.777C7.20265 130.81 6.62442 133.125 6.5603 135.5L6.62192 186.23Z" fill="#37474F"/>
<path opacity="0.2" d="M6.62192 186.23C6.72956 188.596 7.30586 190.9 8.30413 192.953C9.30239 195.007 10.6945 196.752 12.3678 198.049L16.9891 201.246C18.6103 202.214 20.3864 202.764 22.2001 202.859C24.0137 202.953 25.8237 202.59 27.5103 201.794C24.7991 203.018 22.7349 201.209 22.7349 197.318V146.588C22.8051 144.212 23.3885 141.897 24.4294 139.866L8.23938 128.777C7.20265 130.81 6.62442 133.125 6.5603 135.5L6.62192 186.23Z" fill="black"/>
<path d="M48.1982 128.832L53.0044 138.879L63.7875 133.655C64.8042 133.162 65.2201 134.586 64.4807 136.084L56.7014 151.795L58.5346 165.204C58.704 166.482 57.6411 168.254 56.7323 168.236L47.0583 167.889L37.4305 181.407C36.5216 182.686 35.4587 182.357 35.6282 180.841L37.4921 164.856L29.7899 159.796C29.0505 159.321 29.4664 157.33 30.4831 156.435L41.2662 146.936L46.0724 130.294C46.4267 128.777 47.7361 127.882 48.1982 128.832Z" fill="#FAFAFA"/>
<path d="M569.269 360.65C550.783 371.081 520.899 371.081 502.444 360.65C483.99 350.219 483.959 333.248 502.444 322.89C520.93 312.532 550.814 312.459 569.269 322.89C587.723 333.321 587.662 350.219 569.269 360.65Z" fill="#E0E0E0"/>
<path d="M149.036 481.747C149.201 484.403 149.891 486.976 151.049 489.258C152.208 491.54 153.804 493.466 155.706 494.881L342.608 622.755C344.675 623.999 346.961 624.647 349.278 624.647C351.596 624.647 353.882 623.999 355.949 622.755L611.662 447.659C613.678 446.397 615.365 444.508 616.541 442.193C617.718 439.879 618.34 437.227 618.34 434.524C618.34 431.822 617.718 429.17 616.541 426.856C615.365 424.541 613.678 422.651 611.662 421.39L424.776 293.516C422.709 292.272 420.423 291.624 418.105 291.624C415.788 291.624 413.502 292.272 411.435 293.516L155.722 468.612C153.816 470.025 152.218 471.95 151.056 474.232C149.895 476.514 149.203 479.089 149.036 481.747V481.747Z" fill="#37474F"/>
<path d="M226.151 420.386L155.706 468.612C153.691 469.874 152.004 471.764 150.827 474.078C149.65 476.393 149.028 479.044 149.028 481.747C149.028 484.45 149.65 487.101 150.827 489.416C152.004 491.73 153.691 493.62 155.706 494.881L342.608 622.755C344.664 624.029 346.96 624.658 349.278 624.582V420.386H226.151Z" fill="#263238"/>
<path d="M142.782 468.886C140.922 467.394 139.386 465.401 138.3 463.071C137.213 460.741 136.606 458.139 136.528 455.478V190.979C136.651 188.234 137.319 185.561 138.478 183.18C139.637 180.799 141.254 178.777 143.198 177.278L398.911 2.27299C400.842 0.83723 403.065 0.0522938 405.343 0.00252345C407.621 -0.0472469 409.868 0.640036 411.841 1.99051C413.815 3.34099 415.441 5.30361 416.544 7.66752C417.648 10.0314 418.188 12.7073 418.105 15.4075V279.815C417.981 282.56 417.313 285.232 416.153 287.613C414.994 289.993 413.378 292.016 411.435 293.516L155.722 468.612C153.735 469.863 151.528 470.54 149.28 470.588C147.031 470.635 144.805 470.052 142.782 468.886V468.886Z" fill="#455A64"/>
<path d="M167.814 203.218L138.546 183.124C137.35 185.479 136.682 188.158 136.605 190.906V455.478C136.525 458.175 137.065 460.848 138.168 463.209C139.27 465.57 140.894 467.531 142.865 468.88C144.836 470.23 147.08 470.918 149.356 470.871C151.632 470.824 153.854 470.043 155.783 468.612L184.944 448.646L167.814 203.218Z" fill="#263238"/>
<path d="M149.036 199.565V464.045C149.036 469.087 152.025 471.133 155.706 468.612L411.42 293.516C413.362 292.016 414.979 289.993 416.138 287.613C417.297 285.232 417.966 282.56 418.09 279.815V15.3344C418.09 10.2925 415.101 8.24647 411.42 10.7674L155.706 185.846C153.764 187.351 152.148 189.377 150.99 191.76C149.831 194.144 149.162 196.818 149.036 199.565V199.565Z" fill="#37474F"/>
<path d="M155.707 477.746L342.608 605.712C344.675 606.956 346.961 607.604 349.279 607.604C351.596 607.604 353.882 606.956 355.949 605.712L611.662 430.615C615.359 428.094 615.359 424.002 611.662 421.481L424.776 293.516C422.709 292.272 420.423 291.624 418.105 291.624C415.788 291.624 413.502 292.272 411.435 293.516L155.722 468.612C152.025 471.133 152.025 475.225 155.707 477.746Z" fill="#455A64"/>
<path d="M159.296 200.532L407.846 30.3684C410.049 28.8522 411.851 30.0761 411.851 33.1086V262.058C411.774 263.705 411.371 265.307 410.675 266.735C409.979 268.162 409.01 269.376 407.846 270.279L159.296 440.443C157.077 441.959 155.291 440.735 155.291 437.702V208.698C155.372 207.06 155.776 205.467 156.472 204.049C157.168 202.631 158.135 201.426 159.296 200.532Z" fill="#FAFAFA"/>
<path d="M177.396 470.896L414.763 308.313C415.796 307.692 416.939 307.368 418.098 307.368C419.257 307.368 420.399 307.692 421.433 308.313L433.587 316.625C433.989 316.787 434.339 317.094 434.586 317.504C434.834 317.913 434.967 318.404 434.967 318.908C434.967 319.412 434.834 319.903 434.586 320.313C434.339 320.722 433.989 321.03 433.587 321.192L196.174 483.756C195.14 484.377 193.998 484.701 192.839 484.701C191.68 484.701 190.538 484.377 189.504 483.756L177.396 475.408C177.009 475.235 176.676 474.926 176.441 474.523C176.206 474.12 176.081 473.642 176.081 473.152C176.081 472.662 176.206 472.183 176.441 471.78C176.676 471.377 177.009 471.069 177.396 470.896V470.896Z" fill="#263238"/>
<path d="M208.682 492.324L446.049 329.741C447.083 329.12 448.225 328.796 449.384 328.796C450.543 328.796 451.685 329.12 452.719 329.741L527.4 380.891C527.802 381.053 528.152 381.36 528.399 381.769C528.647 382.179 528.78 382.67 528.78 383.174C528.78 383.678 528.647 384.169 528.399 384.579C528.152 384.988 527.802 385.296 527.4 385.458L290.31 547.785C289.274 548.406 288.129 548.73 286.968 548.73C285.806 548.73 284.661 548.406 283.625 547.785L208.698 496.854C208.298 496.695 207.951 496.392 207.705 495.987C207.458 495.582 207.324 495.095 207.323 494.596C207.321 494.096 207.451 493.608 207.695 493.201C207.939 492.794 208.284 492.487 208.682 492.324V492.324Z" fill="#263238"/>
<path d="M421.463 402.921L428.904 397.824C429.212 397.605 429.196 397.24 428.904 397.02L420.308 391.138C420.125 391.026 419.921 390.968 419.715 390.968C419.509 390.968 419.305 391.026 419.122 391.138L411.697 396.235C411.373 396.436 411.389 396.801 411.697 397.039L420.293 402.921C420.474 403.03 420.675 403.087 420.878 403.087C421.081 403.087 421.282 403.03 421.463 402.921ZM406.798 382.698L399.373 387.722C399.05 387.941 399.065 388.307 399.373 388.544L407.969 394.426C408.153 394.534 408.356 394.59 408.562 394.59C408.768 394.59 408.971 394.534 409.155 394.426L416.596 389.33C416.904 389.11 416.888 388.745 416.596 388.526L408 382.625C407.809 382.526 407.6 382.48 407.392 382.493C407.183 382.506 406.98 382.576 406.798 382.698V382.698ZM382.783 399.139L370.213 407.817C369.889 408.036 369.92 408.401 370.213 408.639L378.808 414.521C378.993 414.629 379.196 414.685 379.402 414.685C379.607 414.685 379.81 414.629 379.995 414.521L392.565 405.917C392.873 405.698 392.857 405.332 392.565 405.113L383.969 399.213C383.789 399.093 383.589 399.024 383.383 399.012C383.177 398.999 382.972 399.043 382.783 399.139V399.139ZM395.938 390.133L388.498 395.23C388.19 395.431 388.205 395.796 388.498 396.034L397.094 401.916C397.277 402.028 397.48 402.087 397.687 402.087C397.893 402.087 398.096 402.028 398.28 401.916L405.705 396.819C406.028 396.6 406.013 396.235 405.705 396.016L397.109 390.133C396.927 390.024 396.727 389.967 396.524 389.967C396.32 389.967 396.12 390.024 395.938 390.133V390.133ZM366.778 410.1L359.353 415.124C359.029 415.343 359.06 415.708 359.353 415.946L367.948 421.828C368.132 421.94 368.335 421.999 368.541 421.999C368.748 421.999 368.951 421.94 369.134 421.828L376.575 416.75C376.883 416.53 376.867 416.165 376.575 415.946L367.979 410.045C367.789 409.943 367.581 409.894 367.373 409.904C367.164 409.913 366.96 409.981 366.778 410.1V410.1ZM355.917 417.535L348.493 422.614C348.169 422.833 348.184 423.198 348.493 423.436L357.088 429.318C357.273 429.426 357.476 429.482 357.681 429.482C357.887 429.482 358.09 429.426 358.274 429.318L365.715 424.221C366.023 424.002 366.007 423.637 365.715 423.417L357.119 417.517C356.931 417.409 356.725 417.354 356.516 417.357C356.308 417.361 356.103 417.421 355.917 417.535V417.535ZM389.73 441.466L397.155 436.369C397.463 436.15 397.448 435.785 397.155 435.565L388.513 429.738C388.33 429.626 388.126 429.567 387.92 429.567C387.714 429.567 387.511 429.626 387.327 429.738L379.902 434.835C379.579 435.036 379.609 435.401 379.902 435.639L388.498 441.521C388.691 441.634 388.905 441.688 389.12 441.679C389.335 441.669 389.545 441.596 389.73 441.466V441.466ZM378.855 448.901L386.295 443.804C386.603 443.585 386.588 443.238 386.295 443L377.653 437.045C377.47 436.933 377.266 436.874 377.06 436.874C376.854 436.874 376.65 436.933 376.467 437.045L369.011 442.178C368.688 442.379 368.719 442.745 369.011 442.982L377.607 448.864C377.795 448.995 378.009 449.066 378.227 449.073C378.445 449.079 378.661 449.02 378.855 448.901V448.901ZM367.995 456.336L375.435 451.239C375.743 451.038 375.728 450.673 375.435 450.435L366.839 444.553C366.656 444.441 366.452 444.383 366.246 444.383C366.04 444.383 365.836 444.441 365.653 444.553L358.228 449.613C357.905 449.833 357.92 450.198 358.228 450.417L366.824 456.299C367.003 456.414 367.202 456.477 367.405 456.484C367.609 456.49 367.811 456.439 367.995 456.336V456.336ZM357.211 463.771L364.652 458.674C364.96 458.473 364.944 458.108 364.652 457.87L356.056 451.988C355.873 451.876 355.669 451.818 355.463 451.818C355.257 451.818 355.053 451.876 354.87 451.988L347.322 457.14C346.998 457.359 347.014 457.724 347.322 457.943L355.917 463.826C356.109 463.936 356.319 463.988 356.532 463.979C356.744 463.969 356.951 463.898 357.134 463.771H357.211ZM410.603 410.356L418.028 405.259C418.352 405.04 418.336 404.693 418.028 404.455L409.432 398.573C409.249 398.461 409.046 398.403 408.839 398.403C408.633 398.403 408.43 398.461 408.246 398.573L400.821 403.67C400.498 403.889 400.513 404.236 400.821 404.474L409.417 410.356C409.6 410.468 409.804 410.527 410.01 410.527C410.216 410.527 410.42 410.468 410.603 410.356ZM400.59 434.104L417.165 422.741C417.474 422.522 417.458 422.157 417.165 421.938L396.292 407.652C396.109 407.54 395.906 407.482 395.699 407.482C395.493 407.482 395.29 407.54 395.106 407.652L386.541 413.516C386.218 413.735 386.233 414.101 386.541 414.338L397.602 421.901C397.941 422.139 397.956 422.504 397.602 422.705L390.747 427.418C390.439 427.619 390.454 427.984 390.747 428.222L399.343 434.104C399.54 434.213 399.757 434.263 399.974 434.25C400.191 434.238 400.403 434.162 400.59 434.031V434.104ZM345.057 424.97L337.632 430.067C337.309 430.268 337.324 430.633 337.632 430.871L346.228 436.753C346.413 436.861 346.615 436.917 346.821 436.917C347.027 436.917 347.23 436.861 347.414 436.753L354.855 431.656C355.163 431.437 355.147 431.072 354.855 430.852L346.259 424.97C346.074 424.855 345.867 424.795 345.658 424.795C345.449 424.795 345.243 424.855 345.057 424.97V424.97ZM334.274 432.405L326.834 437.502C326.526 437.721 326.541 438.068 326.834 438.306L335.43 444.188C335.613 444.3 335.816 444.359 336.023 444.359C336.229 444.359 336.432 444.3 336.616 444.188L344.041 439.091C344.364 438.872 344.349 438.507 344.041 438.287L335.445 432.405C335.254 432.28 335.039 432.215 334.821 432.215C334.603 432.215 334.388 432.28 334.197 432.405H334.274ZM279.989 515.798C280.173 515.91 280.376 515.968 280.582 515.968C280.789 515.968 280.992 515.91 281.175 515.798L288.616 510.701C288.924 510.482 288.908 510.116 288.616 509.897L280.02 504.015C279.837 503.903 279.633 503.844 279.427 503.844C279.221 503.844 279.017 503.903 278.834 504.015L271.409 509.112C271.085 509.331 271.101 509.678 271.409 509.915L279.989 515.798ZM247.316 491.849L239.876 496.945C239.568 497.146 239.583 497.512 239.876 497.749L248.472 503.631C248.656 503.739 248.859 503.795 249.065 503.795C249.27 503.795 249.473 503.739 249.658 503.631L257.083 498.535C257.406 498.315 257.391 497.95 257.083 497.731L248.487 491.849C248.306 491.739 248.105 491.682 247.902 491.682C247.698 491.682 247.498 491.739 247.316 491.849ZM264.8 509.294C264.984 509.406 265.187 509.465 265.393 509.465C265.6 509.465 265.803 509.406 265.986 509.294L273.411 504.198C273.735 503.978 273.704 503.631 273.411 503.394L264.831 497.512C264.648 497.399 264.444 497.341 264.238 497.341C264.032 497.341 263.828 497.399 263.645 497.512L256.205 502.608C255.897 502.827 255.912 503.175 256.205 503.412L264.8 509.294ZM299.106 520.255L306.546 515.158C306.854 514.939 306.839 514.574 306.546 514.354L297.951 508.454C297.766 508.346 297.563 508.29 297.358 508.29C297.152 508.29 296.949 508.346 296.765 508.454L289.34 513.551C289.016 513.752 289.032 514.117 289.34 514.354L297.935 520.237C298.109 520.357 298.303 520.428 298.504 520.444C298.704 520.46 298.905 520.42 299.091 520.328L299.106 520.255ZM287.06 527.653C287.243 527.766 287.446 527.824 287.653 527.824C287.859 527.824 288.063 527.766 288.246 527.653L295.686 522.557C295.994 522.337 295.979 521.972 295.686 521.753L287.091 515.871C286.907 515.758 286.704 515.7 286.497 515.7C286.291 515.7 286.088 515.758 285.904 515.871L278.418 521.077C278.094 521.278 278.11 521.643 278.418 521.881L287.06 527.653ZM258.099 484.541L250.659 489.62C250.351 489.839 250.366 490.204 250.659 490.442L259.255 496.324C259.439 496.432 259.642 496.488 259.848 496.488C260.054 496.488 260.256 496.432 260.441 496.324L267.866 491.227C268.189 491.008 268.174 490.643 267.866 490.424L259.347 484.541C259.155 484.421 258.941 484.359 258.723 484.359C258.506 484.359 258.292 484.421 258.099 484.541ZM312.477 447.275L305.037 452.372C304.729 452.591 304.744 452.956 305.037 453.176L313.632 459.058C313.816 459.17 314.019 459.229 314.225 459.229C314.432 459.229 314.635 459.17 314.819 459.058L322.243 453.961C322.567 453.76 322.536 453.395 322.243 453.157L313.663 447.275C313.479 447.167 313.276 447.111 313.07 447.111C312.864 447.111 312.661 447.167 312.477 447.275V447.275ZM269.021 477.033L261.596 482.112C261.273 482.331 261.288 482.696 261.596 482.934L270.192 488.816C270.376 488.924 270.579 488.98 270.785 488.98C270.991 488.98 271.194 488.924 271.378 488.816L278.818 483.738C279.126 483.518 279.111 483.153 278.818 482.916L270.223 477.033C270.036 476.922 269.831 476.865 269.622 476.865C269.413 476.865 269.208 476.922 269.021 477.033V477.033ZM323.337 439.84L315.897 444.937C315.589 445.156 315.604 445.503 315.897 445.741L324.492 451.623C324.676 451.735 324.879 451.794 325.086 451.794C325.292 451.794 325.495 451.735 325.679 451.623L333.104 446.526C333.427 446.307 333.412 445.96 333.104 445.722L324.508 439.84C324.326 439.731 324.126 439.674 323.923 439.674C323.719 439.674 323.519 439.731 323.337 439.84ZM301.602 454.71L294.177 459.807C293.853 460.026 293.884 460.391 294.177 460.611L302.772 466.511C302.957 466.619 303.16 466.675 303.365 466.675C303.571 466.675 303.774 466.619 303.958 466.511L311.383 461.433C311.707 461.213 311.676 460.848 311.383 460.611L302.772 454.747C302.592 454.636 302.393 454.575 302.19 454.569C301.988 454.562 301.786 454.611 301.602 454.71V454.71ZM290.741 462.163L283.316 467.242C282.993 467.461 283.024 467.826 283.316 468.046L291.989 473.946C292.171 474.054 292.371 474.11 292.575 474.11C292.778 474.11 292.978 474.054 293.16 473.946L300.6 468.868C300.908 468.648 300.893 468.283 300.6 468.046L291.989 462.182C291.799 462.054 291.585 461.986 291.367 461.982C291.149 461.979 290.934 462.041 290.741 462.163V462.163ZM279.881 469.598L272.456 474.677C272.133 474.896 272.164 475.261 272.456 475.499L281.052 481.381C281.236 481.489 281.439 481.545 281.645 481.545C281.851 481.545 282.054 481.489 282.238 481.381L289.678 476.303C289.987 476.083 289.971 475.718 289.678 475.481L281.083 469.598C280.896 469.487 280.691 469.43 280.482 469.43C280.273 469.43 280.068 469.487 279.881 469.598V469.598ZM335.414 478.641L342.824 473.581C343.147 473.362 343.132 472.996 342.824 472.759L334.228 466.876C334.045 466.764 333.841 466.706 333.635 466.706C333.429 466.706 333.225 466.764 333.042 466.876L325.602 471.955C325.294 472.174 325.309 472.539 325.602 472.777L334.197 478.659C334.387 478.77 334.596 478.826 334.808 478.823C335.019 478.82 335.227 478.758 335.414 478.641V478.641ZM430.814 366.257L423.373 371.281C423.065 371.482 423.081 371.847 423.373 372.085L431.969 377.967C432.154 378.075 432.356 378.131 432.562 378.131C432.768 378.131 432.971 378.075 433.155 377.967L440.58 372.87C440.904 372.651 440.888 372.286 440.58 372.067L431.985 366.184C431.798 366.086 431.595 366.042 431.392 366.055C431.188 366.067 430.99 366.137 430.814 366.257V366.257ZM417.658 375.263L410.233 380.415C409.91 380.634 409.925 381 410.233 381.237L418.814 387.119C418.997 387.231 419.2 387.29 419.407 387.29C419.613 387.29 419.816 387.231 420 387.119L427.44 382.041C427.748 381.822 427.733 381.456 427.44 381.237L418.845 375.337C418.665 375.217 418.464 375.148 418.259 375.136C418.053 375.123 417.848 375.167 417.658 375.263V375.263ZM441.674 358.822L434.234 363.974C433.925 364.193 433.941 364.559 434.234 364.796L442.829 370.678C443.014 370.786 443.217 370.842 443.422 370.842C443.628 370.842 443.831 370.786 444.015 370.678L451.44 365.582C451.764 365.362 451.748 364.997 451.44 364.778L442.845 358.877C442.666 358.764 442.467 358.7 442.265 358.69C442.062 358.681 441.86 358.726 441.674 358.822V358.822ZM385.448 427.582L392.888 422.431C393.196 422.212 393.181 421.846 392.888 421.627L384.292 415.745C384.109 415.633 383.906 415.574 383.699 415.574C383.493 415.574 383.29 415.633 383.106 415.745L375.666 420.823C375.358 421.043 375.373 421.408 375.666 421.645L384.262 427.528C384.442 427.644 384.644 427.71 384.849 427.719C385.055 427.729 385.26 427.682 385.448 427.582V427.582ZM453.736 351.406C453.551 351.298 453.348 351.242 453.142 351.242C452.937 351.242 452.734 351.298 452.549 351.406L445.124 356.484C444.801 356.703 444.816 357.069 445.124 357.306L453.72 363.188C453.904 363.301 454.107 363.359 454.313 363.359C454.52 363.359 454.723 363.301 454.906 363.188L462.347 358.11C462.655 357.891 462.639 357.525 462.347 357.288L453.736 351.406ZM346.274 471.206L353.699 466.127C354.023 465.908 354.007 465.543 353.699 465.305L345.104 459.423C344.919 459.315 344.716 459.259 344.511 459.259C344.305 459.259 344.102 459.315 343.917 459.423L336.446 464.447C336.138 464.666 336.154 465.031 336.446 465.251L345.042 471.151C345.229 471.277 345.438 471.347 345.652 471.357C345.867 471.366 346.08 471.314 346.274 471.206V471.206ZM479.476 380.013L486.917 374.916C487.225 374.697 487.209 374.332 486.917 374.113L478.321 368.23C478.138 368.118 477.934 368.06 477.728 368.06C477.522 368.06 477.318 368.118 477.135 368.23L469.694 373.327C469.386 373.528 469.402 373.893 469.694 374.131L478.29 380.013C478.474 380.125 478.677 380.184 478.883 380.184C479.09 380.184 479.293 380.125 479.476 380.013V380.013ZM456.37 379.045L463.795 373.948C464.118 373.729 464.103 373.364 463.795 373.144L455.199 367.262C455.016 367.15 454.812 367.092 454.606 367.092C454.4 367.092 454.196 367.15 454.013 367.262L446.572 372.359C446.264 372.56 446.28 372.925 446.572 373.163L455.168 379.045C455.35 379.154 455.55 379.211 455.754 379.211C455.957 379.211 456.157 379.154 456.339 379.045H456.37ZM466.059 359.809C465.875 359.701 465.672 359.645 465.466 359.645C465.26 359.645 465.057 359.701 464.873 359.809L457.448 364.906C457.125 365.107 457.14 365.472 457.448 365.709L466.044 371.592C466.228 371.7 466.431 371.756 466.637 371.756C466.842 371.756 467.045 371.7 467.23 371.592L474.67 366.495C474.978 366.276 474.963 365.91 474.67 365.691L466.059 359.809ZM468.339 358.256L489.166 372.542C489.35 372.65 489.553 372.706 489.759 372.706C489.964 372.706 490.167 372.65 490.352 372.542L497.792 367.445C498.1 367.226 498.085 366.86 497.792 366.641L476.842 352.374C476.658 352.266 476.455 352.21 476.249 352.21C476.043 352.21 475.84 352.266 475.656 352.374L468.231 357.452C467.923 357.653 467.938 358.019 468.277 358.256H468.339ZM443.153 374.697L435.712 379.794C435.404 379.995 435.42 380.36 435.712 380.598L444.308 386.48C444.491 386.592 444.695 386.651 444.901 386.651C445.107 386.651 445.311 386.592 445.494 386.48L452.919 381.383C453.243 381.164 453.227 380.799 452.919 380.579L444.323 374.697C444.137 374.57 443.926 374.5 443.711 374.494C443.496 374.487 443.283 374.545 443.091 374.661L443.153 374.697ZM361.309 430.633L353.869 435.73C353.561 435.949 353.576 436.296 353.869 436.534L362.464 442.416C362.648 442.528 362.851 442.587 363.057 442.587C363.264 442.587 363.467 442.528 363.65 442.416L371.075 437.319C371.399 437.1 371.384 436.753 371.075 436.515L362.48 430.633C362.298 430.524 362.098 430.467 361.894 430.467C361.691 430.467 361.49 430.524 361.309 430.633ZM467.399 387.412C467.583 387.524 467.786 387.582 467.992 387.582C468.199 387.582 468.402 387.524 468.585 387.412L476.01 382.315C476.334 382.096 476.318 381.749 476.01 381.511L467.415 375.629C467.231 375.517 467.028 375.458 466.822 375.458C466.615 375.458 466.412 375.517 466.228 375.629L458.788 380.726C458.48 380.945 458.496 381.292 458.788 381.529L467.399 387.412ZM372.169 423.198L364.729 428.295C364.421 428.496 364.436 428.861 364.729 429.099L373.324 434.981C373.508 435.093 373.711 435.152 373.918 435.152C374.124 435.152 374.327 435.093 374.511 434.981L381.936 429.884C382.259 429.665 382.244 429.3 381.936 429.08L373.34 423.198C373.162 423.095 372.968 423.041 372.77 423.041C372.572 423.041 372.377 423.095 372.2 423.198H372.169ZM290.772 508.29C290.957 508.397 291.16 508.454 291.365 508.454C291.571 508.454 291.774 508.397 291.958 508.29L299.399 503.193C299.707 502.974 299.691 502.608 299.399 502.389L290.803 496.507C290.62 496.395 290.416 496.336 290.21 496.336C290.004 496.336 289.8 496.395 289.617 496.507L282.192 501.604C281.868 501.804 281.884 502.17 282.192 502.407L290.772 508.29ZM274.444 490.022L267.003 495.118C266.695 495.319 266.711 495.685 267.003 495.922L275.599 501.804C275.783 501.912 275.986 501.969 276.192 501.969C276.398 501.969 276.601 501.912 276.785 501.804L284.21 496.708C284.533 496.489 284.518 496.123 284.21 495.904L275.614 490.022C275.426 489.929 275.221 489.891 275.018 489.91C274.814 489.929 274.618 490.005 274.444 490.131V490.022ZM302.772 500.982L310.213 495.886C310.521 495.666 310.505 495.301 310.213 495.082L301.617 489.2C301.434 489.088 301.23 489.029 301.024 489.029C300.818 489.029 300.614 489.088 300.431 489.2L293.006 494.278C292.682 494.497 292.713 494.863 293.006 495.1L301.602 500.982C301.783 501.09 301.984 501.146 302.187 501.146C302.39 501.146 302.59 501.09 302.772 500.982V500.982ZM313.648 493.547L321.073 488.451C321.396 488.232 321.365 487.866 321.073 487.629L312.477 481.746C312.293 481.638 312.09 481.582 311.884 481.582C311.678 481.582 311.475 481.638 311.291 481.746L303.866 486.825C303.558 487.044 303.573 487.409 303.866 487.647L312.462 493.529C312.652 493.646 312.863 493.707 313.078 493.707C313.292 493.707 313.504 493.646 313.694 493.529L313.648 493.547ZM324.431 486.094L331.856 481.016C332.179 480.797 332.148 480.431 331.856 480.194L323.276 474.311C323.091 474.203 322.888 474.147 322.682 474.147C322.477 474.147 322.274 474.203 322.089 474.311L314.649 479.39C314.341 479.609 314.356 479.974 314.649 480.212L323.245 486.094C323.446 486.224 323.672 486.291 323.901 486.288C324.131 486.284 324.355 486.211 324.554 486.076L324.431 486.094ZM285.304 482.715L277.863 487.793C277.555 488.012 277.571 488.378 277.863 488.615L286.459 494.497C286.643 494.605 286.846 494.661 287.052 494.661C287.258 494.661 287.461 494.605 287.645 494.497L295.07 489.401C295.394 489.181 295.378 488.816 295.07 488.597L286.49 482.715C286.305 482.607 286.102 482.551 285.897 482.551C285.691 482.551 285.488 482.607 285.304 482.715ZM296.164 475.28L288.723 480.358C288.415 480.577 288.431 480.943 288.723 481.18L297.319 487.062C297.502 487.175 297.706 487.233 297.912 487.233C298.118 487.233 298.322 487.175 298.505 487.062L305.946 481.984C306.254 481.765 306.238 481.399 305.946 481.162L297.35 475.28C297.167 475.169 296.964 475.11 296.759 475.106C296.553 475.103 296.349 475.156 296.164 475.261V475.28ZM339.62 445.521L332.179 450.618C331.856 450.837 331.887 451.203 332.179 451.422L340.775 457.304C340.958 457.416 341.162 457.475 341.368 457.475C341.574 457.475 341.778 457.416 341.961 457.304L349.386 452.207C349.71 452.006 349.679 451.641 349.386 451.404L340.79 445.521C340.61 445.411 340.41 445.352 340.207 445.348C340.004 445.345 339.803 445.398 339.62 445.503V445.521ZM328.744 452.975L321.258 458.035C320.934 458.254 320.965 458.619 321.258 458.839L329.838 464.739C330.022 464.847 330.225 464.903 330.431 464.903C330.637 464.903 330.839 464.847 331.024 464.739L338.464 459.661C338.772 459.441 338.757 459.076 338.464 458.839L329.869 452.956C329.693 452.856 329.501 452.804 329.306 452.804C329.112 452.804 328.919 452.856 328.744 452.956V452.975ZM350.526 438.068L343.086 443.165C342.778 443.384 342.793 443.749 343.086 443.969L351.681 449.851C351.865 449.963 352.068 450.022 352.274 450.022C352.481 450.022 352.684 449.963 352.867 449.851L360.292 444.754C360.616 444.553 360.585 444.188 360.292 443.95L351.712 438.068C351.529 437.956 351.325 437.897 351.119 437.897C350.913 437.897 350.709 437.956 350.526 438.068V438.068ZM307.07 467.826L299.645 472.905C299.322 473.124 299.337 473.489 299.645 473.727L308.241 479.609C308.425 479.717 308.628 479.773 308.834 479.773C309.04 479.773 309.243 479.717 309.427 479.609L316.867 474.531C317.175 474.311 317.16 473.946 316.867 473.709L308.272 467.826C308.079 467.706 307.865 467.644 307.648 467.644C307.43 467.644 307.216 467.706 307.024 467.826H307.07ZM317.93 460.391L310.474 465.47C310.151 465.689 310.166 466.054 310.474 466.292L319.07 472.174C319.255 472.282 319.457 472.338 319.663 472.338C319.869 472.338 320.072 472.282 320.256 472.174L327.697 467.096C328.005 466.876 327.989 466.511 327.697 466.274L319.101 460.391C318.914 460.273 318.705 460.211 318.492 460.211C318.28 460.211 318.071 460.273 317.884 460.391H317.93ZM309.997 512.893L317.437 507.796C317.745 507.577 317.73 507.212 317.437 506.993L308.842 501.092C308.657 500.984 308.454 500.928 308.249 500.928C308.043 500.928 307.84 500.984 307.655 501.092L300.231 506.17C299.907 506.39 299.938 506.755 300.231 506.993L308.811 512.875C308.988 512.977 309.182 513.032 309.379 513.035C309.576 513.038 309.771 512.99 309.951 512.893H309.997ZM246.269 505.257L237.673 499.375C237.49 499.263 237.286 499.204 237.08 499.204C236.874 499.204 236.67 499.263 236.487 499.375L229.047 504.472C228.739 504.673 228.754 505.038 229.047 505.275L237.642 511.158C237.826 511.27 238.029 511.328 238.235 511.328C238.442 511.328 238.645 511.27 238.829 511.158L246.253 506.061C246.577 505.842 246.546 505.476 246.223 505.257H246.269ZM262.536 510.92L253.94 505.038C253.757 504.926 253.554 504.867 253.347 504.867C253.141 504.867 252.937 504.926 252.754 505.038L241.324 512.875C241.016 513.094 241.031 513.441 241.324 513.679L249.92 519.561C250.103 519.673 250.306 519.731 250.513 519.731C250.719 519.731 250.922 519.673 251.106 519.561L262.536 511.724C262.859 511.505 262.829 511.158 262.49 510.92H262.536ZM233.083 493.876L224.487 487.994C224.304 487.882 224.1 487.823 223.894 487.823C223.688 487.823 223.484 487.882 223.301 487.994L214.151 494.26C213.827 494.479 213.858 494.844 214.151 495.082L222.746 500.964C222.931 501.072 223.134 501.128 223.339 501.128C223.545 501.128 223.748 501.072 223.932 500.964L233.067 494.698C233.452 494.479 233.452 494.114 233.036 493.876H233.083ZM240.092 489.072C240.275 489.184 240.478 489.242 240.685 489.242C240.891 489.242 241.094 489.184 241.278 489.072L248.703 483.975C249.026 483.756 249.011 483.409 248.703 483.171L240.107 477.289C239.924 477.177 239.72 477.118 239.514 477.118C239.308 477.118 239.104 477.177 238.921 477.289L231.481 482.386C231.173 482.605 231.188 482.952 231.481 483.19L240.092 489.072ZM277.632 517.423L269.037 511.541C268.853 511.429 268.65 511.371 268.444 511.371C268.237 511.371 268.034 511.429 267.85 511.541L253.555 521.333C253.247 521.552 253.262 521.917 253.555 522.136L262.151 528.019C262.334 528.131 262.538 528.189 262.744 528.189C262.95 528.189 263.154 528.131 263.337 528.019L277.632 518.227C277.987 517.953 277.971 517.606 277.632 517.423ZM284.764 529.352L276.169 523.47C275.985 523.358 275.782 523.299 275.576 523.299C275.369 523.299 275.166 523.358 274.983 523.47L265.802 529.645C265.494 529.864 265.509 530.229 265.802 530.448L274.397 536.349C274.582 536.457 274.785 536.513 274.99 536.513C275.196 536.513 275.399 536.457 275.583 536.349L284.734 530.083C285.119 529.882 285.103 529.535 284.764 529.297V529.352ZM320.811 433.83C320.991 433.942 321.192 434.001 321.396 434.001C321.6 434.001 321.801 433.942 321.982 433.83L329.422 428.733C329.73 428.532 329.715 428.167 329.422 427.93L320.826 422.047C320.643 421.935 320.44 421.877 320.233 421.877C320.027 421.877 319.823 421.935 319.64 422.047L312.215 427.144C311.892 427.363 311.922 427.729 312.215 427.948L320.811 433.83ZM299.075 448.718C299.26 448.826 299.463 448.882 299.668 448.882C299.874 448.882 300.077 448.826 300.261 448.718L307.702 443.622C308.01 443.421 307.994 443.055 307.702 442.818L299.106 436.936C298.922 436.828 298.719 436.771 298.513 436.771C298.307 436.771 298.104 436.828 297.92 436.936L290.449 441.959C290.125 442.178 290.141 442.544 290.449 442.763L299.075 448.718ZM250.906 481.692C251.09 481.8 251.293 481.856 251.499 481.856C251.704 481.856 251.907 481.8 252.092 481.692L259.517 476.595C259.84 476.376 259.825 476.01 259.517 475.791L250.89 469.927C250.707 469.815 250.503 469.757 250.297 469.757C250.091 469.757 249.887 469.815 249.704 469.927L242.264 475.024C241.956 475.225 241.971 475.59 242.264 475.828L250.906 481.692ZM309.935 441.265C310.119 441.377 310.322 441.436 310.528 441.436C310.735 441.436 310.938 441.377 311.121 441.265L318.562 436.168C318.87 435.967 318.854 435.602 318.562 435.364L309.966 429.482C309.783 429.37 309.579 429.312 309.373 429.312C309.167 429.312 308.963 429.37 308.78 429.482L301.355 434.579C301.032 434.798 301.062 435.164 301.355 435.383L309.935 441.265ZM288.215 456.153C288.4 456.261 288.602 456.317 288.808 456.317C289.014 456.317 289.217 456.261 289.401 456.153L296.842 451.075C297.15 450.856 297.134 450.49 296.842 450.253L288.2 444.352C288.016 444.24 287.813 444.182 287.607 444.182C287.4 444.182 287.197 444.24 287.014 444.352L279.666 449.394C279.342 449.613 279.358 449.979 279.666 450.216L288.215 456.153ZM290.726 530.211C290.543 530.099 290.339 530.04 290.133 530.04C289.927 530.04 289.723 530.099 289.54 530.211L278.125 538.048C277.817 538.267 277.832 538.632 278.125 538.87L286.752 544.825C286.936 544.933 287.139 544.989 287.345 544.989C287.55 544.989 287.753 544.933 287.938 544.825L299.368 537.006C299.676 536.787 299.661 536.422 299.368 536.184L290.726 530.211ZM272.626 466.73C272.809 466.842 273.013 466.901 273.219 466.901C273.425 466.901 273.629 466.842 273.812 466.73L281.206 461.707C281.514 461.487 281.499 461.122 281.206 460.885L272.61 455.002C272.426 454.894 272.223 454.838 272.017 454.838C271.812 454.838 271.609 454.894 271.424 455.002L263.999 460.081C263.676 460.3 263.691 460.665 263.999 460.903L272.626 466.73ZM261.766 474.165C261.95 474.273 262.153 474.329 262.359 474.329C262.564 474.329 262.767 474.273 262.952 474.165L270.392 469.069C270.7 468.849 270.685 468.484 270.392 468.265L261.796 462.383C261.613 462.27 261.41 462.212 261.203 462.212C260.997 462.212 260.794 462.27 260.61 462.383L253.17 467.461C252.862 467.68 252.877 468.046 253.17 468.283L261.766 474.165ZM491.969 392.472C491.785 392.364 491.582 392.308 491.376 392.308C491.171 392.308 490.968 392.364 490.783 392.472L472.483 405.003C472.175 405.223 472.19 405.588 472.483 405.807L481.078 411.708C481.263 411.816 481.466 411.872 481.671 411.872C481.877 411.872 482.08 411.816 482.265 411.708L500.55 399.176C500.873 398.975 500.858 398.61 500.55 398.372L491.969 392.472ZM467.954 408.913C467.77 408.801 467.567 408.742 467.361 408.742C467.154 408.742 466.951 408.801 466.768 408.913L459.343 414.009C459.019 414.229 459.035 414.594 459.343 414.813L467.938 420.695C468.122 420.808 468.325 420.866 468.531 420.866C468.738 420.866 468.941 420.808 469.125 420.695L476.565 415.599C476.873 415.398 476.858 415.032 476.565 414.795L467.954 408.913ZM320.826 505.44L328.251 500.361C328.559 500.142 328.544 499.777 328.251 499.539L319.609 493.675C319.425 493.567 319.222 493.511 319.016 493.511C318.811 493.511 318.608 493.567 318.423 493.675L310.998 498.754C310.675 498.973 310.706 499.338 310.998 499.576L319.594 505.458C319.784 505.577 319.997 505.637 320.212 505.634C320.427 505.631 320.638 505.564 320.826 505.44V505.44ZM446.234 423.783C446.05 423.671 445.847 423.612 445.641 423.612C445.434 423.612 445.231 423.671 445.047 423.783L437.607 428.861C437.299 429.08 437.314 429.446 437.607 429.683L446.203 435.565C446.387 435.673 446.59 435.73 446.796 435.73C447.002 435.73 447.204 435.673 447.389 435.565L454.814 430.487C455.137 430.268 455.122 429.902 454.814 429.665L446.234 423.783ZM502.829 385.037C502.646 384.925 502.443 384.866 502.236 384.866C502.03 384.866 501.827 384.925 501.643 385.037L494.203 390.133C493.895 390.353 493.91 390.718 494.203 390.937L502.799 396.819C502.982 396.932 503.185 396.99 503.392 396.99C503.598 396.99 503.801 396.932 503.985 396.819L511.41 391.723C511.733 391.522 511.718 391.156 511.41 390.919L502.829 385.037ZM522.285 383.484L501.489 369.199C501.306 369.086 501.102 369.028 500.896 369.028C500.69 369.028 500.486 369.086 500.303 369.199L492.878 374.295C492.555 374.496 492.57 374.862 492.878 375.099L513.751 389.384C513.935 389.497 514.138 389.555 514.344 389.555C514.551 389.555 514.754 389.497 514.937 389.384L522.378 384.288C522.639 384.069 522.624 383.721 522.285 383.484V383.484ZM405.643 451.659C405.458 451.551 405.256 451.495 405.05 451.495C404.844 451.495 404.641 451.551 404.457 451.659L395.307 457.925C394.999 458.126 395.014 458.492 395.307 458.729L403.902 464.611C404.086 464.723 404.289 464.782 404.495 464.782C404.702 464.782 404.905 464.723 405.088 464.611L414.223 458.345C414.547 458.126 414.531 457.761 414.223 457.523L405.643 451.659ZM433.078 432.88C432.894 432.772 432.691 432.716 432.485 432.716C432.279 432.716 432.077 432.772 431.892 432.88L420.462 440.717C420.154 440.936 420.169 441.302 420.462 441.521L429.088 447.275C429.272 447.387 429.475 447.446 429.682 447.446C429.888 447.446 430.091 447.387 430.275 447.275L441.705 439.438C442.013 439.237 441.997 438.872 441.705 438.634L433.078 432.88ZM380.488 468.886C380.304 468.774 380.101 468.715 379.894 468.715C379.688 468.715 379.485 468.774 379.301 468.886L318.177 510.646C317.853 510.865 317.884 511.231 318.177 511.468L326.772 517.35C326.957 517.458 327.16 517.514 327.365 517.514C327.571 517.514 327.774 517.458 327.958 517.35L389.114 475.481C389.437 475.261 389.422 474.896 389.114 474.659L380.488 468.886ZM315.881 513.112C315.697 513.004 315.494 512.948 315.288 512.948C315.083 512.948 314.88 513.004 314.695 513.112L305.545 519.25C305.237 519.469 305.252 519.817 305.545 520.054L314.141 525.936C314.324 526.048 314.527 526.107 314.734 526.107C314.94 526.107 315.143 526.048 315.327 525.936L324.477 519.67C324.785 519.451 324.77 519.086 324.477 518.867L315.881 513.112ZM393.058 460.282C392.874 460.17 392.671 460.111 392.464 460.111C392.258 460.111 392.055 460.17 391.871 460.282L382.737 466.548C382.413 466.767 382.428 467.132 382.737 467.37L391.332 473.252C391.517 473.36 391.72 473.416 391.925 473.416C392.131 473.416 392.334 473.36 392.518 473.252L401.669 466.986C401.977 466.767 401.961 466.42 401.669 466.182L393.058 460.282ZM303.311 521.735C303.128 521.622 302.925 521.564 302.718 521.564C302.512 521.564 302.309 521.622 302.125 521.735L292.975 528C292.652 528.22 292.682 528.585 292.975 528.823L301.571 534.705C301.755 534.813 301.958 534.869 302.164 534.869C302.369 534.869 302.572 534.813 302.757 534.705L312.015 528.384C312.338 528.165 312.323 527.818 312.015 527.58L303.311 521.735ZM418.213 443.055C418.029 442.947 417.826 442.891 417.62 442.891C417.414 442.891 417.211 442.947 417.027 443.055L407.877 449.321C407.569 449.54 407.584 449.906 407.877 450.143L416.472 456.025C416.656 456.138 416.859 456.196 417.065 456.196C417.272 456.196 417.475 456.138 417.658 456.025L426.809 449.778C427.117 449.559 427.101 449.193 426.809 448.956L418.213 443.055ZM457.094 416.439C456.909 416.331 456.706 416.275 456.501 416.275C456.295 416.275 456.092 416.331 455.908 416.439L448.467 421.536C448.159 421.755 448.175 422.12 448.467 422.34L457.063 428.24C457.247 428.348 457.45 428.404 457.656 428.404C457.862 428.404 458.065 428.348 458.249 428.24L465.689 423.162C465.997 422.942 465.982 422.577 465.689 422.34L457.094 416.439ZM480.894 395.943L488.318 390.846C488.642 390.627 488.627 390.28 488.318 390.042L479.692 384.069C479.509 383.956 479.305 383.898 479.099 383.898C478.893 383.898 478.689 383.956 478.506 384.069L471.066 389.165C470.757 389.384 470.773 389.75 471.066 389.969L479.661 395.851C479.85 395.973 480.062 396.036 480.277 396.036C480.493 396.036 480.704 395.973 480.894 395.851V395.943ZM432.323 395.577L439.764 390.481C440.072 390.261 440.056 389.896 439.764 389.677L431.168 383.795C430.985 383.682 430.781 383.624 430.575 383.624C430.369 383.624 430.165 383.682 429.982 383.795L422.557 388.891C422.234 389.092 422.249 389.458 422.557 389.695L431.153 395.577C431.341 395.668 431.544 395.707 431.747 395.692C431.95 395.676 432.147 395.605 432.323 395.486V395.577ZM407.676 446.051L429.397 431.163C429.705 430.962 429.689 430.597 429.397 430.359L420.801 424.477C420.618 424.365 420.414 424.306 420.208 424.306C420.001 424.306 419.798 424.365 419.615 424.477L397.895 439.347C397.571 439.566 397.602 439.931 397.895 440.169L406.49 446.051C406.687 446.154 406.901 446.2 407.116 446.184C407.33 446.168 407.538 446.091 407.723 445.96L407.676 446.051ZM468.801 403.341C468.984 403.453 469.188 403.512 469.394 403.512C469.6 403.512 469.804 403.453 469.987 403.341L477.412 398.263C477.736 398.043 477.705 397.678 477.412 397.441L468.816 391.558C468.632 391.45 468.429 391.394 468.223 391.394C468.018 391.394 467.815 391.45 467.63 391.558L460.19 396.655C459.882 396.874 459.897 397.24 460.19 397.459L468.801 403.341ZM457.71 394.974L465.135 389.878C465.458 389.677 465.443 389.311 465.135 389.074L456.539 383.192C456.356 383.08 456.152 383.021 455.946 383.021C455.74 383.021 455.536 383.08 455.353 383.192L447.913 388.288C447.605 388.508 447.62 388.873 447.913 389.092L456.508 394.974C456.706 395.085 456.924 395.135 457.142 395.119C457.36 395.103 457.572 395.022 457.756 394.883L457.71 394.974ZM396.801 453.431L404.241 448.335C404.549 448.115 404.534 447.75 404.241 447.531L395.645 441.649C395.462 441.536 395.259 441.478 395.052 441.478C394.846 441.478 394.643 441.536 394.459 441.649L387.034 446.745C386.711 446.946 386.742 447.312 387.034 447.549L395.615 453.431C395.801 453.557 396.011 453.627 396.225 453.637C396.44 453.646 396.653 453.595 396.847 453.486L396.801 453.431ZM444.786 419.727C444.969 419.839 445.172 419.898 445.379 419.898C445.585 419.898 445.788 419.839 445.972 419.727L453.412 414.631C453.72 414.43 453.705 414.064 453.412 413.827L444.816 407.945C444.633 407.832 444.43 407.774 444.223 407.774C444.017 407.774 443.814 407.832 443.63 407.945L436.205 413.041C435.882 413.26 435.897 413.626 436.205 413.845L444.786 419.727ZM342.5 490.606L349.925 485.528C350.249 485.309 350.218 484.943 349.925 484.706L341.283 478.787C341.099 478.679 340.896 478.623 340.69 478.623C340.485 478.623 340.282 478.679 340.097 478.787L332.657 483.884C332.349 484.103 332.364 484.468 332.657 484.706L341.252 490.588C341.452 490.715 341.675 490.78 341.901 490.776C342.128 490.773 342.35 490.702 342.546 490.57L342.5 490.606ZM353.36 483.171L360.785 478.093C361.109 477.874 361.093 477.508 360.785 477.271L352.19 471.389C352.005 471.281 351.802 471.224 351.597 471.224C351.391 471.224 351.188 471.281 351.003 471.389L343.563 476.485C343.255 476.705 343.27 477.07 343.563 477.289L352.159 483.171C352.353 483.29 352.568 483.35 352.787 483.343C353.005 483.337 353.218 483.265 353.407 483.135L353.36 483.171ZM331.64 498.041L339.065 492.963C339.389 492.744 339.358 492.378 339.065 492.141L330.5 486.222C330.317 486.11 330.113 486.051 329.907 486.051C329.701 486.051 329.497 486.11 329.314 486.222L321.874 491.301C321.566 491.52 321.581 491.885 321.874 492.123L330.469 498.005C330.658 498.119 330.866 498.178 331.078 498.178C331.289 498.178 331.498 498.119 331.686 498.005L331.64 498.041ZM375.173 468.265L382.613 463.168C382.921 462.949 382.906 462.602 382.613 462.364L374.018 456.482C373.834 456.37 373.631 456.311 373.425 456.311C373.218 456.311 373.015 456.37 372.832 456.482L365.407 461.579C365.083 461.798 365.099 462.145 365.407 462.383L374.002 468.265C374.184 468.374 374.384 468.431 374.588 468.431C374.791 468.431 374.992 468.374 375.173 468.265ZM364.313 475.7L371.753 470.603C372.061 470.402 372.046 470.037 371.753 469.799L363.158 463.917C362.974 463.805 362.771 463.746 362.564 463.746C362.358 463.746 362.155 463.805 361.971 463.917L354.531 469.014C354.223 469.233 354.238 469.598 354.531 469.818L363.127 475.7C363.304 475.803 363.499 475.857 363.697 475.857C363.894 475.857 364.089 475.803 364.267 475.7H364.313ZM385.956 460.793L393.396 455.697C393.704 455.477 393.689 455.13 393.396 454.893L384.801 449.011C384.617 448.898 384.414 448.84 384.208 448.84C384.001 448.84 383.798 448.898 383.615 449.011L376.19 454.107C375.866 454.326 375.897 454.674 376.19 454.911L384.785 460.793C384.967 460.902 385.167 460.959 385.371 460.959C385.574 460.959 385.775 460.902 385.956 460.793ZM435.651 350.766C435.834 350.878 436.037 350.937 436.244 350.937C436.45 350.937 436.654 350.878 436.837 350.766L444.277 345.67C444.585 345.45 444.57 345.103 444.277 344.866L441.982 343.295C441.799 343.183 441.595 343.124 441.389 343.124C441.183 343.124 440.979 343.183 440.796 343.295L433.371 348.373C433.063 348.592 433.078 348.958 433.371 349.195L435.651 350.766ZM382.213 391.686C382.397 391.794 382.6 391.85 382.806 391.85C383.012 391.85 383.215 391.794 383.399 391.686L390.824 386.608C391.147 386.389 391.132 386.023 390.824 385.786L382.228 379.903C382.045 379.791 381.842 379.733 381.635 379.733C381.429 379.733 381.225 379.791 381.042 379.903L373.633 385.018C373.324 385.238 373.34 385.603 373.633 385.841L382.213 391.686ZM403.933 376.798C404.116 376.91 404.32 376.969 404.526 376.969C404.732 376.969 404.936 376.91 405.119 376.798L412.56 371.72C412.868 371.5 412.852 371.135 412.56 370.897L403.964 365.015C403.779 364.907 403.576 364.851 403.371 364.851C403.165 364.851 402.962 364.907 402.778 365.015L395.337 370.112C395.029 370.331 395.045 370.697 395.337 370.916L403.933 376.798ZM369.011 400.802C369.195 400.914 369.398 400.972 369.604 400.972C369.811 400.972 370.014 400.914 370.197 400.802L377.622 395.723C377.946 395.504 377.93 395.139 377.622 394.901L369.011 389.037C368.827 388.929 368.624 388.873 368.418 388.873C368.212 388.873 368.01 388.929 367.825 389.037L360.385 394.116C360.077 394.335 360.092 394.7 360.385 394.938L369.011 400.802ZM393.135 384.361C393.319 384.469 393.522 384.525 393.728 384.525C393.933 384.525 394.136 384.469 394.321 384.361L401.746 379.282C402.069 379.063 402.054 378.698 401.746 378.46L393.15 372.578C392.967 372.466 392.763 372.407 392.557 372.407C392.351 372.407 392.147 372.466 391.964 372.578L384.416 377.584C384.108 377.803 384.123 378.168 384.416 378.387L393.135 384.361ZM347.26 415.672C347.445 415.78 347.648 415.836 347.853 415.836C348.059 415.836 348.262 415.78 348.446 415.672L355.871 410.575C356.179 410.356 356.164 409.991 355.871 409.771L347.276 403.889C347.092 403.777 346.889 403.718 346.683 403.718C346.476 403.718 346.273 403.777 346.089 403.889L338.665 408.968C338.341 409.187 338.372 409.552 338.665 409.79L347.26 415.672ZM358.12 408.237C358.304 408.349 358.507 408.408 358.713 408.408C358.92 408.408 359.123 408.349 359.306 408.237L366.731 403.158C367.055 402.939 367.024 402.574 366.731 402.336L358.151 396.454C357.967 396.346 357.764 396.29 357.558 396.29C357.352 396.29 357.149 396.346 356.965 396.454L349.525 401.533C349.217 401.752 349.232 402.117 349.525 402.355L358.12 408.237ZM413.961 365.673C414.145 365.785 414.348 365.844 414.554 365.844C414.761 365.844 414.964 365.785 415.147 365.673L422.572 360.594C422.896 360.375 422.88 360.01 422.572 359.772L420.277 358.201C420.093 358.093 419.89 358.037 419.684 358.037C419.478 358.037 419.275 358.093 419.091 358.201L411.666 363.28C411.343 363.499 411.358 363.864 411.666 364.102L413.961 365.673ZM446.542 343.368C446.725 343.48 446.928 343.539 447.135 343.539C447.341 343.539 447.544 343.48 447.728 343.368L455.168 338.271C455.476 338.052 455.461 337.687 455.168 337.467L452.888 335.896C452.704 335.788 452.501 335.732 452.295 335.732C452.09 335.732 451.887 335.788 451.702 335.896L444.262 340.993C443.954 341.212 443.969 341.578 444.262 341.797L446.542 343.368ZM464.596 355.735C464.78 355.843 464.983 355.899 465.189 355.899C465.394 355.899 465.597 355.843 465.782 355.735L473.222 350.657C473.53 350.438 473.515 350.072 473.222 349.835L464.519 343.971C464.334 343.863 464.131 343.807 463.926 343.807C463.72 343.807 463.517 343.863 463.333 343.971L455.908 349.049C455.584 349.268 455.599 349.634 455.908 349.871L464.596 355.735ZM491.754 388.416L499.179 383.32C499.502 383.1 499.487 382.753 499.179 382.516L490.583 376.634C490.4 376.521 490.196 376.463 489.99 376.463C489.784 376.463 489.58 376.521 489.397 376.634L481.956 381.73C481.648 381.949 481.664 382.297 481.956 382.534L490.552 388.416C490.737 388.532 490.944 388.592 491.153 388.592C491.362 388.592 491.568 388.532 491.754 388.416V388.416ZM424.821 358.238C425.005 358.35 425.208 358.409 425.415 358.409C425.621 358.409 425.824 358.35 426.008 358.238L433.448 353.141C433.756 352.94 433.741 352.575 433.448 352.337L431.153 350.766C430.968 350.658 430.765 350.602 430.56 350.602C430.354 350.602 430.151 350.658 429.967 350.766L422.542 355.845C422.218 356.064 422.249 356.429 422.542 356.667L424.821 358.238ZM336.385 423.107C336.569 423.215 336.772 423.271 336.978 423.271C337.183 423.271 337.386 423.215 337.571 423.107L345.011 418.01C345.319 417.791 345.304 417.426 345.011 417.206L336.415 411.324C336.232 411.212 336.029 411.153 335.822 411.153C335.616 411.153 335.413 411.212 335.229 411.324L327.804 416.421C327.481 416.622 327.512 416.987 327.804 417.225L336.385 423.107Z" fill="#E0E0E0"/>
<path d="M380.55 503.175L461.9 447.477L511.965 481.747L430.614 537.445L380.55 503.175Z" fill="#263238"/>
<path d="M217.154 172.875L459.543 6.91276C464.287 3.6611 468.169 6.32819 468.169 12.8132V235.461C468.088 237.106 467.683 238.706 466.988 240.134C466.293 241.561 465.326 242.776 464.164 243.681L215.614 413.845C213.411 415.343 211.608 414.119 211.608 411.105V184.256C211.719 181.977 212.278 179.761 213.241 177.785C214.204 175.808 215.544 174.127 217.154 172.875V172.875Z" fill="#F5F5F5"/>
<path d="M468.169 18.1479V12.8137C468.169 6.3286 464.287 3.67978 459.543 6.91318L217.154 172.876C215.544 174.128 214.204 175.809 213.241 177.785C212.278 179.762 211.719 181.978 211.608 184.257V193.811L468.169 18.1479Z" fill="#263238"/>
<path d="M432.015 30.2957C431.161 30.9729 430.452 31.877 429.944 32.9361C429.435 33.9953 429.143 35.1804 429.088 36.3972C429.088 38.6442 430.429 39.5576 432.061 38.425C432.928 37.7632 433.65 36.8664 434.167 35.8087C434.684 34.751 434.981 33.5626 435.034 32.3417C434.988 30.0948 433.71 29.1814 432.015 30.2957Z" fill="#E0E0E0"/>
<path d="M443.799 22.2394C442.932 22.9051 442.211 23.8053 441.694 24.8659C441.177 25.9266 440.88 27.1175 440.826 28.3409C440.826 30.5878 442.151 31.483 443.799 30.3686C444.672 29.6924 445.397 28.78 445.914 27.7064C446.431 26.6329 446.725 25.429 446.773 24.194C446.773 22.0201 445.432 21.1067 443.799 22.2394Z" fill="#E0E0E0"/>
<path d="M455.584 14.1656C454.718 14.8334 453.998 15.734 453.481 16.7941C452.965 17.8542 452.666 19.0439 452.611 20.2665C452.611 22.5133 453.935 23.4266 455.584 22.2941C456.446 21.6281 457.163 20.73 457.677 19.673C458.191 18.616 458.487 17.4299 458.541 16.2114C458.541 13.9646 457.217 13.0513 455.584 14.1656Z" fill="#E0E0E0"/>
<path d="M211.608 193.81V236.648L468.154 61.004V18.1479L211.608 193.81Z" fill="#37474F"/>
<path opacity="0.1" d="M211.608 193.81V236.648L468.154 61.004V18.1479L211.608 193.81Z" fill="black"/>
<path d="M228.415 214.325C227.552 214.643 226.636 214.7 225.75 214.49V193.5C225.743 193.101 225.817 192.706 225.966 192.349C226.149 192.005 226.404 191.722 226.705 191.527L228.03 190.632C228.369 190.394 228.615 190.321 228.769 190.431C228.924 190.54 229.001 190.814 229.001 191.271V198.176C229.492 197.272 230.083 196.449 230.757 195.728C231.472 194.958 232.258 194.284 233.098 193.719C235.039 192.385 236.533 192.075 237.596 192.824C238.659 193.573 239.137 195.272 239.137 197.902C239.163 200.854 238.525 203.761 237.288 206.324C235.971 208.965 234.083 211.14 231.82 212.626C230.756 213.376 229.611 213.948 228.415 214.325V214.325ZM234.854 205.758C235.579 204.062 235.934 202.177 235.886 200.277C235.886 198.45 235.609 197.354 235.07 196.898C234.531 196.441 233.622 196.624 232.343 197.5C231.431 198.136 230.639 198.988 230.017 200.003C229.378 200.948 229.02 202.117 229.001 203.328V210.525C229.408 210.577 229.819 210.515 230.202 210.343C230.737 210.136 231.253 209.867 231.743 209.539C233.062 208.654 234.141 207.343 234.854 205.758V205.758Z" fill="#FAFAFA"/>
<path d="M241.925 204.881C241.771 204.753 241.694 204.497 241.694 204.059V182.575C241.684 182.174 241.764 181.777 241.925 181.424C242.1 181.072 242.357 180.787 242.664 180.602L244.035 179.671C244.374 179.433 244.621 179.378 244.775 179.47C244.929 179.561 245.006 179.853 245.006 180.31V201.793C245.021 202.181 244.946 202.566 244.79 202.908C244.61 203.266 244.348 203.557 244.035 203.748L242.664 204.68C242.31 204.917 242.064 205.045 241.925 204.881Z" fill="#FAFAFA"/>
<path d="M249.365 198.194C248.148 197.409 247.547 195.637 247.547 192.842C247.541 190.077 248.169 187.361 249.365 184.987C250.623 182.49 252.413 180.429 254.556 179.014C256.79 177.479 258.531 177.187 259.748 177.881C260.965 178.575 261.581 180.438 261.581 183.233C261.59 186.002 260.956 188.719 259.748 191.088C258.491 193.592 256.701 195.658 254.556 197.08C252.307 198.614 250.582 198.98 249.365 198.194ZM257.345 190.376C258.003 188.864 258.331 187.181 258.3 185.48C258.3 183.654 257.976 182.466 257.345 181.936C256.713 181.407 255.804 181.571 254.556 182.411C253.382 183.195 252.416 184.353 251.768 185.754C251.102 187.25 250.768 188.922 250.798 190.613C250.798 192.464 251.121 193.682 251.768 194.267C252.415 194.815 253.309 194.669 254.556 193.847C255.741 193.045 256.708 191.86 257.345 190.431V190.376Z" fill="#FAFAFA"/>
<path d="M267.789 193.116C267.1 193.449 266.36 193.605 265.617 193.573C265.339 193.573 265.278 193.335 265.416 192.933L266.156 190.686C266.214 190.468 266.32 190.273 266.464 190.12C266.55 190.093 266.64 190.093 266.726 190.12C268.048 190.001 269.321 189.478 270.423 188.604C271.468 187.929 272.344 186.94 272.965 185.736C273.546 184.381 273.822 182.871 273.766 181.352C273.31 182.354 272.74 183.276 272.071 184.092C271.376 184.922 270.588 185.635 269.73 186.211C267.804 187.526 266.294 187.837 265.216 187.143C264.138 186.448 263.599 184.768 263.599 182.156C263.578 179.273 264.246 176.442 265.524 173.99C266.913 171.397 268.831 169.26 271.101 167.779C272.129 167.055 273.239 166.507 274.397 166.153C275.246 165.854 276.141 165.785 277.016 165.952V178.1C277.04 180.804 276.512 183.474 275.475 185.882C274.383 188.295 272.724 190.281 270.7 191.6C269.769 192.205 268.794 192.712 267.789 193.116V193.116ZM272.857 179.598C273.445 178.561 273.761 177.341 273.766 176.091V169.789C273.336 169.83 272.915 169.954 272.518 170.154C271.984 170.401 271.469 170.7 270.977 171.049C269.688 171.861 268.62 173.09 267.897 174.594C267.174 176.098 266.827 177.814 266.895 179.543C266.895 181.37 267.188 182.393 267.789 182.85C268.389 183.306 269.329 183.087 270.531 182.265C271.474 181.608 272.271 180.694 272.857 179.598V179.598Z" fill="#FAFAFA"/>
<path d="M255.404 225.615V376.195C255.404 377.2 255.851 377.711 256.39 377.328C256.702 377.017 256.953 376.628 257.123 376.189C257.294 375.75 257.38 375.272 257.376 374.789V224.208C257.376 223.203 256.929 222.71 256.39 223.094C256.076 223.399 255.824 223.784 255.654 224.22C255.483 224.657 255.398 225.133 255.404 225.615Z" fill="#37474F"/>
<path d="M180.322 284.035L236.225 245.673C238.073 244.412 239.568 245.435 239.568 247.956V294.593C239.505 295.967 239.169 297.303 238.588 298.493C238.007 299.684 237.198 300.695 236.225 301.444L180.322 339.714C178.489 340.975 176.995 339.952 176.995 337.431V290.903C177.056 289.529 177.389 288.191 177.967 286.998C178.545 285.805 179.352 284.79 180.322 284.035V284.035Z" fill="#E0E0E0"/>
<path d="M239.614 248.029C239.614 245.509 238.074 244.486 236.272 245.746L180.369 284.108C179.401 284.861 178.595 285.873 178.017 287.063C177.439 288.253 177.105 289.587 177.042 290.958V294.922L239.614 252.012V248.029Z" fill="#37474F"/>
<path d="M183.234 299.142L208.266 282.007V312.003L183.234 329.138V299.142Z" fill="#FAFAFA"/>
<path d="M183.249 324.772L192.63 305.006C192.704 304.807 192.821 304.634 192.969 304.505C193.117 304.376 193.291 304.295 193.474 304.271C193.656 304.247 193.841 304.28 194.009 304.368C194.178 304.455 194.324 304.593 194.433 304.769L197.714 309.043L203.367 293.571C203.706 292.639 204.368 292.548 204.908 293.388L208.327 299.142V311.93L183.295 329.065L183.249 324.772Z" fill="#37474F"/>
<path d="M214.535 280.308C214.535 281.733 215.429 282.281 216.538 281.514L231.295 271.412C231.867 270.983 232.346 270.401 232.694 269.712C233.042 269.024 233.249 268.248 233.298 267.448C233.298 266.023 232.404 265.475 231.311 266.242L216.507 276.289C215.932 276.725 215.453 277.316 215.11 278.015C214.767 278.714 214.57 279.501 214.535 280.308V280.308Z" fill="#FAFAFA"/>
<path d="M214.535 292.731C214.535 294.156 215.429 294.704 216.538 293.955L231.295 283.834C231.869 283.407 232.349 282.825 232.697 282.137C233.045 281.448 233.251 280.671 233.298 279.87C233.298 278.445 232.404 277.915 231.311 278.664L216.507 288.675C215.931 289.117 215.451 289.716 215.109 290.421C214.766 291.126 214.569 291.918 214.535 292.731V292.731Z" fill="#FAFAFA"/>
<path d="M214.535 304.97C214.535 306.413 215.429 306.943 216.538 306.194L231.295 296.073C231.868 295.65 232.349 295.072 232.697 294.386C233.045 293.7 233.251 292.926 233.298 292.128C233.298 290.703 232.404 290.155 231.311 290.904L216.507 301.024C215.939 301.451 215.465 302.031 215.122 302.717C214.78 303.402 214.579 304.174 214.535 304.97V304.97Z" fill="#FAFAFA"/>
<path d="M180.322 356.229L236.225 317.959C238.073 316.698 239.568 317.721 239.568 320.242V366.879C239.505 368.253 239.169 369.589 238.588 370.779C238.007 371.97 237.198 372.981 236.225 373.73L180.322 412.092C178.489 413.352 176.995 412.329 176.995 409.808V363.08C177.058 361.709 177.393 360.374 177.971 359.185C178.549 357.995 179.354 356.982 180.322 356.229V356.229Z" fill="#E0E0E0"/>
<path d="M239.614 320.242C239.614 317.721 238.074 316.698 236.272 317.959L180.369 356.229C179.401 356.982 178.595 357.994 178.017 359.184C177.439 360.374 177.105 361.708 177.042 363.079V367.062L239.614 324.206V320.242Z" fill="#37474F"/>
<path d="M183.234 371.336L208.266 354.201V384.197L183.234 401.332V371.336Z" fill="#FAFAFA"/>
<path d="M183.249 396.984L192.63 377.218C192.704 377.019 192.821 376.846 192.969 376.717C193.117 376.588 193.291 376.507 193.474 376.483C193.656 376.459 193.841 376.493 194.009 376.58C194.178 376.667 194.324 376.806 194.433 376.981L197.714 381.237L203.367 365.765C203.706 364.833 204.368 364.76 204.908 365.582L208.327 371.336V384.124L183.295 401.259L183.249 396.984Z" fill="#37474F"/>
<path d="M214.535 352.503C214.535 353.927 215.429 354.475 216.538 353.726L231.295 343.606C231.868 343.183 232.349 342.605 232.697 341.919C233.045 341.233 233.251 340.459 233.298 339.66C233.298 338.217 232.404 337.687 231.311 338.436L216.507 348.557C215.939 348.984 215.465 349.564 215.122 350.249C214.78 350.935 214.579 351.707 214.535 352.503V352.503Z" fill="#FAFAFA"/>
<path d="M214.535 364.833C214.535 366.276 215.429 366.806 216.538 366.057L231.295 355.936C231.868 355.513 232.349 354.935 232.697 354.249C233.045 353.563 233.251 352.789 233.298 351.99C233.298 350.565 232.404 350.017 231.311 350.766L216.507 360.887C215.939 361.314 215.465 361.894 215.122 362.58C214.78 363.266 214.579 364.038 214.535 364.833Z" fill="#FAFAFA"/>
<path d="M214.535 377.182C214.535 378.606 215.429 379.154 216.538 378.387L231.295 368.285C231.867 367.856 232.346 367.274 232.694 366.586C233.042 365.897 233.249 365.122 233.298 364.321C233.298 362.897 232.404 362.349 231.311 363.116L216.507 373.218C215.941 373.651 215.468 374.235 215.125 374.923C214.783 375.611 214.581 376.384 214.535 377.182V377.182Z" fill="#FAFAFA"/>
<path d="M277.525 285.77L449.392 168.107C451.225 166.847 452.719 167.87 452.719 170.391V229.816C452.656 231.187 452.321 232.521 451.743 233.711C451.166 234.901 450.36 235.913 449.392 236.666L277.525 354.329C275.676 355.59 274.182 354.567 274.182 352.046V292.621C274.245 291.247 274.58 289.911 275.161 288.72C275.742 287.53 276.552 286.519 277.525 285.77V285.77Z" fill="#E0E0E0"/>
<path d="M452.719 170.336C452.719 167.815 451.179 166.792 449.392 168.053L277.525 285.77C276.552 286.519 275.742 287.53 275.161 288.721C274.58 289.911 274.245 291.247 274.182 292.621V296.585L452.719 174.355V170.336Z" fill="#37474F"/>
<path d="M316.636 273.421L281.914 297.169C281.141 297.774 280.497 298.584 280.035 299.535C279.572 300.487 279.303 301.553 279.25 302.65V343.35C279.25 345.36 280.451 346.182 281.914 345.177L316.636 321.429C317.41 320.826 318.055 320.016 318.517 319.064C318.98 318.113 319.249 317.045 319.301 315.949V275.248C319.239 273.238 318.038 272.416 316.636 273.421Z" fill="#FAFAFA"/>
<path d="M291.434 309.171L279.188 340.226V343.441C279.188 345.451 280.39 346.273 281.853 345.268L316.574 321.52C317.349 320.917 317.993 320.107 318.456 319.155C318.919 318.203 319.187 317.136 319.239 316.04V301.864L312.677 287.25C311.876 285.423 310.69 285.514 310.028 287.377L299.691 316.149L294.669 308.732C294.502 308.368 294.247 308.071 293.937 307.88C293.626 307.688 293.275 307.611 292.927 307.658C292.58 307.706 292.252 307.875 291.986 308.144C291.72 308.414 291.528 308.771 291.434 309.171V309.171Z" fill="#37474F"/>
<path d="M283.209 308.806C284.953 307.456 286.405 305.638 287.446 303.499C288.487 301.36 289.089 298.96 289.201 296.493C289.245 295.19 288.925 293.906 288.292 292.84L281.853 297.242C281.08 297.846 280.436 298.657 279.973 299.608C279.51 300.56 279.242 301.626 279.188 302.723V309.5C279.856 309.778 280.57 309.861 281.27 309.74C281.971 309.619 282.636 309.298 283.209 308.806V308.806Z" fill="#37474F"/>
<path d="M334.921 264.47L442.228 191.015C443.769 189.992 444.893 190.686 444.893 192.55C444.823 193.601 444.545 194.619 444.082 195.52C443.619 196.421 442.984 197.181 442.228 197.738L334.921 271.211C333.381 272.215 332.256 271.521 332.256 269.658C332.327 268.606 332.605 267.589 333.068 266.688C333.531 265.787 334.166 265.027 334.921 264.47V264.47Z" fill="#FAFAFA"/>
<path d="M334.921 281.606L442.228 208.151C443.769 207.128 444.893 207.822 444.893 209.685C444.823 210.737 444.545 211.754 444.082 212.655C443.619 213.556 442.984 214.316 442.228 214.873L334.921 288.346C333.381 289.351 332.256 288.657 332.256 286.794C332.328 285.742 332.607 284.725 333.07 283.824C333.532 282.924 334.167 282.164 334.921 281.606V281.606Z" fill="#FAFAFA"/>
<path d="M334.921 298.74L442.228 225.286C443.769 224.263 444.893 224.957 444.893 226.821C444.821 227.875 444.543 228.894 444.08 229.798C443.618 230.702 442.984 231.465 442.228 232.027L334.921 305.518C333.381 306.522 332.256 305.828 332.256 303.965C332.324 302.907 332.6 301.883 333.063 300.975C333.526 300.068 334.163 299.302 334.921 298.74V298.74Z" fill="#FAFAFA"/>
<path d="M510.486 97.8317L494.742 97.2654C493.679 96.2058 477.135 74.0652 477.135 74.0652C477.135 74.0652 471.189 85.1903 471.081 85.9028C470.973 86.6152 487.302 107.313 488.919 109.395C489.373 110.095 489.956 110.661 490.624 111.051C491.292 111.441 492.026 111.643 492.77 111.642C497.038 111.934 513.012 113.268 513.012 113.268L510.486 97.8317Z" fill="#F28F8F"/>
<path d="M532.869 119.296L508.592 117.159L510.471 97.8319L535.534 98.4895L532.869 119.296Z" fill="#37474F"/>
<path opacity="0.2" d="M532.869 119.296L508.592 117.159L510.471 97.8319L535.534 98.4895L532.869 119.296Z" fill="black"/>
<path d="M308.811 182.868L480.678 65.2052C482.511 63.9447 484.006 64.9677 484.006 67.4887V126.932C483.941 128.303 483.606 129.636 483.028 130.826C482.45 132.016 481.646 133.028 480.678 133.782L308.811 251.445C306.962 252.705 305.468 251.682 305.468 249.161V189.718C305.531 188.345 305.867 187.009 306.448 185.818C307.028 184.628 307.838 183.617 308.811 182.868V182.868Z" fill="#E0E0E0"/>
<path d="M484.006 67.4887C484.006 64.9677 482.465 63.9447 480.678 65.2052L308.811 182.868C307.838 183.617 307.028 184.628 306.448 185.819C305.867 187.009 305.531 188.345 305.468 189.719V193.683L484.006 71.4528V67.4887Z" fill="#37474F"/>
<path d="M347.861 170.538L313.14 194.286C312.364 194.887 311.718 195.696 311.255 196.648C310.792 197.6 310.525 198.668 310.475 199.766V240.448C310.475 242.457 311.676 243.279 313.14 242.275L347.861 218.527C348.637 217.926 349.283 217.116 349.746 216.164C350.209 215.212 350.476 214.144 350.526 213.046V172.365C350.526 170.337 349.324 169.533 347.861 170.538Z" fill="#FAFAFA"/>
<path d="M322.798 206.287L310.475 237.251V240.467C310.475 242.476 311.676 243.298 313.14 242.293L347.861 218.545C348.637 217.944 349.283 217.135 349.746 216.183C350.209 215.23 350.476 214.162 350.526 213.065V199.017L343.964 184.402C343.163 182.576 341.977 182.685 341.314 184.53L330.978 213.357L325.956 205.922C325.781 205.59 325.532 205.323 325.236 205.15C324.94 204.978 324.61 204.906 324.282 204.944C323.953 204.982 323.641 205.128 323.379 205.365C323.117 205.603 322.915 205.922 322.798 206.287V206.287Z" fill="#37474F"/>
<path d="M314.495 205.922C316.239 204.568 317.691 202.746 318.731 200.604C319.772 198.462 320.374 196.06 320.488 193.591C320.529 192.289 320.21 191.006 319.579 189.938L313.14 194.359C312.364 194.96 311.718 195.769 311.255 196.721C310.792 197.673 310.525 198.741 310.475 199.839V206.598C311.141 206.879 311.855 206.964 312.555 206.847C313.255 206.729 313.921 206.412 314.495 205.922Z" fill="#37474F"/>
<path d="M366.208 161.568L473.515 88.1311C475.055 87.1264 476.18 87.8023 476.18 89.6656C476.109 90.7198 475.831 91.7397 475.368 92.6438C474.906 93.5478 474.271 94.3109 473.515 94.8719L366.208 168.327C364.744 169.331 363.543 168.655 363.543 166.792C363.612 165.735 363.89 164.712 364.352 163.805C364.815 162.898 365.451 162.132 366.208 161.568Z" fill="#FAFAFA"/>
<path d="M366.208 178.703L473.515 105.249C475.055 104.244 476.18 104.938 476.18 106.783C476.109 107.837 475.831 108.857 475.368 109.761C474.906 110.665 474.271 111.428 473.515 111.989L366.208 185.444C364.744 186.467 363.543 185.773 363.543 183.91C363.615 182.856 363.893 181.836 364.356 180.933C364.818 180.029 365.453 179.265 366.208 178.703V178.703Z" fill="#FAFAFA"/>
<path d="M366.208 195.911L473.515 122.457C475.055 121.452 476.18 122.146 476.18 123.991C476.109 125.045 475.831 126.065 475.368 126.969C474.906 127.873 474.271 128.636 473.515 129.198L366.208 202.651C364.744 203.674 363.543 202.98 363.543 201.117C363.615 200.063 363.893 199.044 364.356 198.14C364.818 197.236 365.453 196.473 366.208 195.911V195.911Z" fill="#FAFAFA"/>
<path d="M563.862 323.639H554.773V339.349H563.862V323.639Z" fill="#FFA8A7"/>
<path d="M531.896 304.158L522.813 304.529L523.269 320.23L532.352 319.859L531.896 304.158Z" fill="#FFA8A7"/>
<path d="M563.277 170.336C563.277 180.639 564.402 247.262 564.402 247.262C564.617 250.221 566.959 255.683 566.45 267.082C565.773 282.537 564.633 325.539 564.633 325.539C564.633 325.539 560.381 330.563 554.358 325.539C554.358 325.539 546.117 267.174 544.484 251.865C543.067 238.493 540.648 202.159 540.648 202.159L532.299 244.832C532.299 244.832 533.839 254.879 534.117 261.986C534.394 269.092 532.576 310.048 532.576 310.048C531.106 311.144 529.418 311.763 527.683 311.843C525.947 311.924 524.224 311.462 522.687 310.505C522.687 310.505 515.354 250.714 514.353 244.211C513.351 237.708 520.746 170.336 520.746 170.336H563.277Z" fill="#455A64"/>
<path d="M549.598 98.9644H549.721C553.613 100.145 557.06 102.834 559.516 106.603C561.972 110.373 563.296 115.008 563.277 119.771V170.337C556.899 178.557 534.671 182.393 520.745 170.337V117.725C520.745 109.322 524.673 99.2202 535.549 98.4712L549.598 98.9644Z" fill="#37474F"/>
<path d="M552.648 55.9618C553.381 55.8605 554.125 55.9592 554.822 56.2505C555.519 56.5418 556.15 57.0178 556.668 57.6425C558.393 59.725 558.024 63.5978 556.668 72.476L551.338 73.2067L552.648 55.9618Z" fill="#263238"/>
<path d="M521.623 53.4232C520.474 53.4288 519.337 53.1553 518.28 52.6194C516.648 51.5051 516.232 53.6972 517.125 55.6153C517.714 56.9856 518.59 58.1536 519.669 59.0076C520.748 59.8615 521.994 60.3729 523.287 60.4926C523.287 60.2186 524.827 55.5605 524.827 55.5605L521.623 53.4232Z" fill="#263238"/>
<path d="M550.152 73.2068C550.953 73.7731 552.078 71.9646 553.048 70.7589C553.433 70.2408 553.922 69.8471 554.47 69.6147C555.018 69.3823 555.607 69.3188 556.181 69.4302C556.756 69.5416 557.297 69.8242 557.754 70.2515C558.211 70.6789 558.569 71.2369 558.794 71.8733C560.412 75.9104 556.745 81.2811 554.589 83.0531C553.985 83.6748 553.23 84.0537 552.433 84.1358C551.636 84.2178 550.838 83.9987 550.152 83.5098L549.598 98.9643C548.645 101.443 547.187 103.602 545.356 105.248C543.525 106.893 541.378 107.973 539.107 108.39C531.405 109.633 533.038 102.143 535.549 98.4711V92.8629C533.636 93.3453 531.67 93.4624 529.726 93.21C528.725 92.8994 526.353 89.5564 524.812 85.6654C523.087 81.3725 520.191 73.7548 522.763 60.8761C525.521 47.0474 538.045 46.6273 545.516 52.1989C552.987 57.7706 550.152 73.2068 550.152 73.2068Z" fill="#FFA8A7"/>
<path d="M550.151 74.7961C550.552 74.7961 552.062 71.8185 553.047 70.759C554.418 69.2976 552.647 55.9622 552.647 55.9622C552.647 55.9622 554.033 50.9203 551.337 47.5591C548.642 44.1978 543.42 44.7824 539.599 44.618C534.91 44.6516 530.265 43.545 525.951 41.3664C520.544 38.5714 520.128 38.2426 519.466 41.0741C518.804 43.9056 518.526 50.354 521.777 54.7017L524.457 55.8709C524.457 55.8709 525.92 57.4054 530.973 58.1361C535.639 58.5535 540.327 58.4434 544.976 57.8072C546.439 57.5698 546.762 59.2687 547.548 63.8721C548.241 67.9093 548.827 74.7596 550.151 74.7961Z" fill="#263238"/>
<path d="M552.648 57.0758L557.423 54.0437C557.271 53.6613 557.055 53.3194 556.788 53.0389C556.521 52.7584 556.209 52.545 555.87 52.4118C555.532 52.2786 555.174 52.2283 554.819 52.2639C554.463 52.2995 554.118 52.4203 553.803 52.619C553.164 53.0437 552.688 53.7435 552.473 54.5733C552.258 55.4031 552.321 56.2992 552.648 57.0758V57.0758Z" fill="#263238"/>
<path d="M535.564 92.8629C538.829 92.1237 542.031 91.0353 545.13 89.611C546.579 88.7004 547.769 87.3021 548.55 85.5919C548.177 87.3074 547.517 88.9164 546.609 90.3235C544.791 93.0638 535.564 95.0917 535.564 95.0917V92.8629Z" fill="#F28F8F"/>
<path d="M537.259 71.1061C537.28 71.4363 537.382 71.752 537.552 72.0143C537.722 72.2767 537.954 72.4744 538.218 72.583C538.481 72.6916 538.766 72.7064 539.037 72.6256C539.308 72.5449 539.553 72.372 539.742 72.1284C539.931 71.8847 540.056 71.5808 540.101 71.2541C540.146 70.9274 540.11 70.5921 539.997 70.2894C539.884 69.9867 539.698 69.7299 539.464 69.5505C539.229 69.371 538.955 69.2769 538.676 69.2795C538.481 69.2864 538.289 69.3396 538.112 69.4357C537.935 69.5318 537.775 69.6689 537.643 69.8391C537.511 70.0093 537.409 70.209 537.343 70.4266C537.277 70.6442 537.249 70.8752 537.259 71.1061Z" fill="#263238"/>
<path d="M538.768 64.7485L541.849 66.7398C542.067 66.2458 542.114 65.6711 541.982 65.1364C541.85 64.6017 541.548 64.1484 541.141 63.8716C540.939 63.7311 540.715 63.6422 540.482 63.6105C540.25 63.5789 540.014 63.6052 539.791 63.6877C539.568 63.7703 539.361 63.9073 539.185 64.09C539.009 64.2727 538.867 64.4969 538.768 64.7485Z" fill="#263238"/>
<path d="M537.366 82.5229L534.131 83.9663C534.201 84.2256 534.313 84.4656 534.463 84.6717C534.613 84.8777 534.796 85.0456 535.002 85.1652C535.208 85.2848 535.432 85.3535 535.661 85.3673C535.89 85.3811 536.119 85.3395 536.334 85.2453C536.769 85.0371 537.119 84.6376 537.312 84.1302C537.504 83.6229 537.524 83.047 537.366 82.5229V82.5229Z" fill="#F28F8F"/>
<path d="M524.596 66.2101L527.369 63.671C527.239 63.4498 527.072 63.2622 526.879 63.1196C526.686 62.9769 526.471 62.8823 526.246 62.8413C526.022 62.8003 525.792 62.8138 525.572 62.8811C525.352 62.9483 525.146 63.0679 524.966 63.2326C524.595 63.5791 524.35 64.0806 524.282 64.6342C524.213 65.1878 524.325 65.7516 524.596 66.2101V66.2101Z" fill="#263238"/>
<path d="M525.459 70.6311C525.442 70.8638 525.466 71.0982 525.529 71.3193C525.593 71.5404 525.695 71.7433 525.828 71.9152C525.961 72.0871 526.123 72.2241 526.304 72.3176C526.484 72.411 526.679 72.4588 526.876 72.4579C527.185 72.4873 527.494 72.4057 527.763 72.2236C528.032 72.0416 528.248 71.7676 528.384 71.4374C528.52 71.1073 528.568 70.7363 528.524 70.3729C528.479 70.0094 528.343 69.6704 528.133 69.4001C527.923 69.1298 527.65 68.9408 527.348 68.8576C527.047 68.7745 526.731 68.8011 526.442 68.934C526.153 69.0669 525.905 69.2999 525.73 69.6027C525.554 69.9054 525.46 70.2638 525.459 70.6311V70.6311Z" fill="#263238"/>
<path d="M532.683 69.0417L532.221 79.1619L527.754 77.3717L532.683 69.0417Z" fill="#F28F8F"/>
<path d="M554.789 334.015V332.481C553.911 332.919 551.893 342.071 548.288 345.981C545.407 349.086 541.495 352.666 540.509 356.119C539.523 359.572 545.962 361.709 548.642 361.143C551.723 360.485 557.145 357.891 558.501 355.48C559.857 353.068 560.488 349.506 561.582 347.753C562.676 345.999 565.217 344.008 565.818 341.962C565.997 340.051 565.818 338.118 565.294 336.299C564.879 334.472 564.416 332.298 563.862 332.481V333.65C562.571 334.864 560.965 335.51 559.318 335.477C558.008 335.532 554.773 335.221 554.789 334.015Z" fill="#263238"/>
<path d="M523.164 316.936C522.686 316.936 522.301 317.739 521.253 319.091C519.699 320.957 517.892 322.5 515.908 323.658C512.504 325.667 505.88 328.773 502.891 330.38C501.012 331.385 501.104 334.034 503.03 335.586C504.955 337.139 509.638 338.217 515.261 336.719C518.342 335.915 522.285 332.572 524.812 332.755C527.338 332.938 532.036 332.883 533.9 331.367C535.764 329.851 535.01 326.599 534.486 323.822C533.916 320.772 533.084 316.114 532.237 316.333V317.283C531.143 319.237 525.582 320.041 523.179 318.598L523.164 316.936Z" fill="#263238"/>
<path d="M552.324 105.979L524.226 140.432C524.226 140.432 499.579 135.208 491.168 132.34C488.519 131.445 486.67 126.75 486.085 123.206C485.934 121.36 485.176 119.66 483.974 118.474C483.974 118.474 483.974 121.05 483.42 125.27C483.204 127.097 480.77 127.334 478.598 127.901C470.896 129.874 468.277 127.901 465.088 130.531C462.624 132.614 465.72 138.021 471.343 139.848C479.245 142.424 483.666 141.145 488.411 142.551C492.123 143.648 518.834 153.512 523.918 154.901C526.598 155.595 528.647 155.376 531.62 151.959C534.593 148.543 556.714 125.599 556.714 125.599L552.324 105.979Z" fill="#FFA8A7"/>
<path d="M553.572 104.792C550.491 103.86 531.698 130.367 531.698 130.367L542.05 140.67C542.05 140.67 555.451 130.257 557.824 126.055C560.196 121.854 562.892 107.55 553.572 104.792Z" fill="#37474F"/>
<path d="M542.727 141.364C542.727 141.364 556.869 126.348 557.531 124.704C558.81 121.543 558.455 115.698 558.455 115.698C558.455 115.698 559.996 120.776 558.455 124.704C556.915 128.631 546.132 139.793 544.422 141.711L542.681 143.648L541.002 141.821L542.003 140.78L542.727 141.364Z" fill="#37474F"/>
<path opacity="0.2" d="M542.727 141.364C542.727 141.364 556.869 126.348 557.531 124.704C558.81 121.543 558.455 115.698 558.455 115.698C558.455 115.698 559.996 120.776 558.455 124.704C556.915 128.631 546.132 139.793 544.422 141.711L542.681 143.648L541.002 141.821L542.003 140.78L542.727 141.364Z" fill="black"/>
<path d="M471.682 67.0139C474.763 66.612 476.812 63.9084 477.505 64.6574C477.786 65.0123 477.95 65.4751 477.967 65.9614C477.984 66.4477 477.853 66.925 477.598 67.3062C476.176 68.5869 474.623 69.6488 472.976 70.4665C472.59 72.3232 472.313 74.2092 472.145 76.1112C471.883 78.9061 471.975 84.496 469.957 86.3958C463.934 92.1319 462.394 83.0346 462.625 76.9332C462.979 69.3522 468.463 67.4341 471.682 67.0139Z" fill="#F28F8F"/>
</svg>
