<svg width="661" height="651" viewBox="0 0 661 651" fill="none" xmlns="http://www.w3.org/2000/svg">
<path d="M96.799 601.158C225.872 667.606 435.128 667.623 564.201 601.158C693.274 534.693 693.258 426.945 564.201 360.48C435.144 294.015 225.872 294.015 96.799 360.48C-32.2743 426.945 -32.2584 534.693 96.799 601.158Z" fill="#F5F5F5"/>
<path d="M553.543 562.975C582.501 562.975 605.976 551.238 605.976 536.759C605.976 522.281 582.501 510.543 553.543 510.543C524.585 510.543 501.11 522.281 501.11 536.759C501.11 551.238 524.585 562.975 553.543 562.975Z" fill="#E6E6E6"/>
<path d="M328.562 302.365L269.013 338.448C266.593 340.106 264.884 342.689 264.248 345.647L249.444 435.328C249.274 436.721 249.481 438.135 250.043 439.409C250.605 440.683 251.499 441.764 252.621 442.528L291.029 465.861C292.262 466.508 293.621 466.844 295 466.844C296.378 466.844 297.738 466.508 298.971 465.861L381.059 416.129C382.265 415.456 383.274 414.451 383.978 413.222C384.681 411.994 385.053 410.587 385.053 409.154C385.053 407.721 384.681 406.314 383.978 405.086C383.274 403.857 382.265 402.852 381.059 402.179L351.61 384.23C350.425 383.413 349.416 382.347 348.645 381.099C347.873 379.851 347.358 378.448 347.131 376.98L340.491 309.298C340.293 307.875 339.815 306.511 339.088 305.291C338.36 304.072 337.4 303.024 336.266 302.215C335.061 301.603 333.736 301.297 332.397 301.324C331.059 301.35 329.745 301.707 328.562 302.365V302.365Z" fill="#263238"/>
<path d="M295.015 450.028V466.794C296.408 466.823 297.786 466.479 299.018 465.794L381.106 416.062C382.249 415.314 383.208 414.294 383.904 413.083C384.599 411.872 385.012 410.506 385.109 409.096C385.021 407.448 384.468 405.864 383.52 404.546H370.083L295.015 450.028Z" fill="#455A64"/>
<path d="M336.059 306.899L276.494 342.998C274.074 344.657 272.365 347.239 271.729 350.198L258.275 431.596C258.107 432.99 258.316 434.406 258.878 435.682C259.439 436.958 260.331 438.042 261.452 438.812L290.98 456.695C292.213 457.342 293.573 457.678 294.951 457.678C296.33 457.678 297.689 457.342 298.922 456.695L381.106 406.896C383.33 405.563 383.33 403.396 381.106 402.046L351.61 384.23C350.425 383.413 349.415 382.347 348.644 381.099C347.873 379.851 347.357 378.448 347.13 376.98L340.491 309.299C340.5 308.754 340.365 308.218 340.099 307.75C339.833 307.282 339.448 306.902 338.986 306.652C338.525 306.402 338.007 306.293 337.489 306.337C336.972 306.38 336.476 306.575 336.059 306.899V306.899Z" fill="#263238"/>
<path d="M381.106 402.112L351.61 384.23C350.42 383.449 349.416 382.394 348.671 381.146L258.832 435.561C259.377 436.905 260.303 438.039 261.484 438.811L291.013 456.694C292.245 457.341 293.605 457.678 294.984 457.678C296.362 457.678 297.722 457.341 298.955 456.694L381.106 406.896C383.378 405.629 383.378 403.462 381.106 402.112Z" fill="#37474F"/>
<path d="M139.257 480.727L135.445 478.411C133.812 477.296 132.454 475.793 131.48 474.024C130.505 472.254 129.943 470.268 129.838 468.228V199.901C129.943 197.862 130.505 195.879 131.48 194.112C132.454 192.345 133.813 190.845 135.445 189.734L447.978 1.40543C449.716 0.481473 451.637 0 453.585 0C455.534 0 457.454 0.481473 459.192 1.40543L462.099 3.07206C463.731 4.18761 465.089 5.69101 466.063 7.46028C467.037 9.22955 467.6 11.2149 467.706 13.2552V281.749C467.601 283.789 467.039 285.775 466.064 287.545C465.09 289.314 463.732 290.817 462.099 291.932L150.471 480.727C148.732 481.648 146.812 482.127 144.864 482.127C142.917 482.127 140.996 481.648 139.257 480.727V480.727Z" fill="#455A64"/>
<path d="M152.362 206.667L131.49 194.018C130.499 195.778 129.952 197.774 129.902 199.817V468.228C130.006 470.268 130.569 472.254 131.543 474.024C132.518 475.793 133.876 477.296 135.509 478.411L139.321 480.727C141.06 481.648 142.98 482.127 144.928 482.127C146.875 482.127 148.796 481.648 150.535 480.727L152.425 479.561L152.362 206.667Z" fill="#263238"/>
<path d="M144.864 477.328V209.001C144.969 206.96 145.532 204.974 146.506 203.205C147.48 201.435 148.839 199.932 150.471 198.818L462.099 9.93872C465.197 8.0721 467.706 9.58873 467.706 13.272V281.749C467.601 283.79 467.039 285.775 466.065 287.545C465.09 289.314 463.732 290.817 462.099 291.932L150.471 480.727C147.374 482.594 144.864 481.077 144.864 477.328Z" fill="#37474F"/>
<path d="M291.251 377.28L320.78 359.38C322.987 358.047 324.782 358.997 324.782 361.513C324.685 362.923 324.271 364.289 323.576 365.499C322.88 366.71 321.922 367.731 320.78 368.48L291.251 386.38C289.028 387.713 287.249 386.763 287.249 384.246C287.345 382.836 287.758 381.47 288.454 380.259C289.149 379.049 290.108 378.028 291.251 377.28V377.28Z" fill="#E0E0E0"/>
<path d="M159.224 206.901L452.712 28.5718C454.475 27.5052 455.889 28.3718 455.889 30.5051V264.516C455.831 265.679 455.513 266.811 454.961 267.821C454.409 268.832 453.639 269.692 452.712 270.332L159.224 448.128C157.445 449.195 156.047 448.328 156.047 446.178V212.851C156.085 211.665 156.394 210.506 156.947 209.471C157.499 208.436 158.28 207.554 159.224 206.901V206.901Z" fill="white"/>
<path d="M180.381 212.784L488.387 26.1216C493.279 23.1717 497.282 25.5883 497.282 31.5048V242.416C497.201 243.918 496.785 245.379 496.067 246.682C495.35 247.984 494.352 249.092 493.152 249.916L178.792 440.362C176.521 441.745 174.662 440.612 174.662 437.862V223.184C174.774 221.102 175.35 219.076 176.343 217.27C177.336 215.464 178.719 213.927 180.381 212.784V212.784Z" fill="#E0E0E0"/>
<path d="M497.282 36.4215V31.5549C497.282 25.6384 493.279 23.2218 488.387 26.1717L180.381 212.834C178.719 213.978 177.336 215.514 176.343 217.32C175.35 219.127 174.774 221.152 174.662 223.234V231.9L497.282 36.4215Z" fill="#37474F"/>
<path d="M460.002 47.5214C459.113 48.1291 458.373 48.9485 457.843 49.913C457.313 50.8775 457.008 51.9597 456.952 53.0715C456.952 55.1215 458.318 55.9549 460.002 54.9382C460.894 54.3288 461.637 53.5071 462.17 52.5398C462.702 51.5725 463.01 50.487 463.068 49.3715C463.068 47.3214 461.702 46.4881 460.002 47.5214Z" fill="white"/>
<path d="M472.153 40.2384C471.283 40.8468 470.559 41.6586 470.038 42.6099C469.518 43.5613 469.214 44.6263 469.151 45.7215C469.151 47.7714 470.517 48.6047 472.217 47.5714C473.108 46.9611 473.85 46.1391 474.383 45.1721C474.916 44.2051 475.224 43.1201 475.283 42.005C475.219 39.9551 473.917 39.1385 472.153 40.2384Z" fill="white"/>
<path d="M484.305 32.8048C483.413 33.4106 482.67 34.2293 482.137 35.1939C481.605 36.1586 481.297 37.2418 481.239 38.3551C481.239 40.4053 482.605 41.2386 484.305 40.2219C485.193 39.6097 485.932 38.7868 486.462 37.8198C486.992 36.8528 487.298 35.7687 487.355 34.6549C487.355 32.6048 485.989 31.7714 484.305 32.8048Z" fill="white"/>
<path d="M477.823 73.4707C477.569 72.5874 476.775 72.304 475.838 72.8707L279.957 191.551C279.338 191.961 278.834 192.536 278.495 193.217L272.046 189.301C272.385 188.62 272.889 188.045 273.508 187.634L469.389 68.9708C470.028 68.6258 470.736 68.4458 471.454 68.4458C472.172 68.4458 472.88 68.6258 473.519 68.9708L475.838 70.3708C476.351 70.7206 476.791 71.1755 477.132 71.7082C477.473 72.2408 477.708 72.8403 477.823 73.4707V73.4707Z" fill="#EBEBEB"/>
<path d="M477.902 74.1205V162.935C477.865 163.687 477.658 164.419 477.299 165.07C476.94 165.722 476.439 166.275 475.837 166.685L279.956 285.349L279.67 285.499C279.548 285.553 279.42 285.592 279.289 285.616C278.511 285.732 277.955 285.149 277.955 284.082V195.234C277.98 194.481 278.188 193.747 278.558 193.101C278.896 192.42 279.401 191.845 280.019 191.435L475.901 72.7539C476.838 72.1873 477.632 72.4706 477.886 73.3539C477.895 73.4091 477.895 73.4654 477.886 73.5206C477.916 73.7191 477.921 73.9206 477.902 74.1205V74.1205Z" fill="#FAFAFA"/>
<path d="M279.226 285.632C278.594 285.834 277.928 285.897 277.272 285.815C276.764 285.769 276.271 285.61 275.827 285.348L273.508 283.948C272.908 283.536 272.409 282.982 272.051 282.331C271.692 281.68 271.484 280.949 271.443 280.199V191.385C271.465 190.631 271.673 189.896 272.046 189.251L278.495 193.168C278.125 193.814 277.917 194.548 277.892 195.301V284.098C277.892 285.232 278.447 285.748 279.226 285.632Z" fill="#E0E0E0"/>
<path d="M361.695 253.266C361.441 252.383 360.631 252.099 359.71 252.666L279.956 300.998C279.322 301.403 278.801 301.978 278.447 302.665L272.014 298.715C272.365 298.032 272.88 297.458 273.508 297.048L353.245 248.716C353.884 248.371 354.592 248.191 355.31 248.191C356.028 248.191 356.736 248.371 357.375 248.716L359.71 250.116C360.224 250.477 360.664 250.941 361.005 251.482C361.345 252.022 361.58 252.629 361.695 253.266Z" fill="#EBEBEB"/>
<path d="M361.774 253.916V319.281C361.735 320.03 361.529 320.759 361.173 321.411C360.818 322.062 360.322 322.616 359.725 323.031L284.356 368.68L279.972 371.346L279.654 371.513C278.669 371.879 277.955 371.296 277.955 370.08V304.731C277.976 304.015 278.167 303.317 278.511 302.698C278.864 302.012 279.385 301.437 280.019 301.031L359.773 252.699C360.694 252.133 361.504 252.416 361.759 253.299C361.759 253.299 361.759 253.399 361.759 253.466C361.777 253.615 361.783 253.766 361.774 253.916V253.916Z" fill="#FAFAFA"/>
<path d="M279.591 371.53L279.337 371.63C279.225 371.678 279.108 371.712 278.988 371.73C278.811 371.781 278.63 371.814 278.448 371.83H277.907C277.533 371.827 277.161 371.783 276.796 371.696C276.457 371.617 276.131 371.488 275.827 371.313L273.508 369.896C272.906 369.487 272.405 368.934 272.046 368.282C271.687 367.63 271.48 366.898 271.443 366.147V300.832C271.467 300.098 271.663 299.383 272.014 298.748L278.448 302.698C278.104 303.317 277.913 304.016 277.892 304.732V370.096C277.892 371.313 278.543 371.896 279.591 371.53Z" fill="#E0E0E0"/>
<path d="M284.34 359.197V315.631C284.368 315.13 284.507 314.642 284.747 314.208C284.987 313.774 285.321 313.405 285.722 313.131L289.423 310.881C290.186 310.431 290.789 310.881 290.789 311.714V355.23C290.765 355.73 290.629 356.217 290.391 356.652C290.154 357.086 289.822 357.456 289.423 357.73L285.722 359.964C284.896 360.497 284.34 360.114 284.34 359.197Z" fill="#37474F"/>
<path d="M297.254 351.38V299.998C297.277 299.498 297.413 299.01 297.65 298.575C297.888 298.141 298.22 297.772 298.62 297.498L302.369 295.231C303.131 294.781 303.751 295.231 303.751 296.065V347.447C303.727 347.949 303.589 348.438 303.349 348.873C303.109 349.308 302.773 349.676 302.369 349.947L298.668 352.197C297.858 352.68 297.254 352.297 297.254 351.38Z" fill="#37474F"/>
<path d="M310.152 343.564V318.898C310.179 318.397 310.318 317.909 310.559 317.475C310.799 317.04 311.133 316.672 311.534 316.398L315.235 314.165C315.981 313.698 316.601 314.081 316.601 314.998V339.647C316.58 340.148 316.446 340.637 316.208 341.072C315.97 341.507 315.636 341.876 315.235 342.147L311.534 344.397C310.771 344.864 310.152 344.481 310.152 343.564Z" fill="#37474F"/>
<path d="M323.018 335.764V303.782C323.044 303.28 323.182 302.792 323.423 302.358C323.663 301.923 323.997 301.554 324.399 301.282L328.1 299.032C328.863 298.582 329.482 298.948 329.482 299.865V331.897C329.459 332.4 329.321 332.889 329.081 333.323C328.84 333.758 328.504 334.127 328.1 334.397L324.399 336.647C323.669 337.064 323.018 336.681 323.018 335.764Z" fill="#37474F"/>
<path d="M335.963 327.948V317.065C335.989 316.565 336.126 316.079 336.363 315.644C336.6 315.21 336.931 314.84 337.329 314.565L341.046 312.315C341.793 311.865 342.412 312.232 342.412 313.148V324.031C342.387 324.531 342.25 325.017 342.013 325.452C341.775 325.886 341.444 326.255 341.046 326.531L337.314 328.781C336.583 329.231 335.963 328.864 335.963 327.948Z" fill="#37474F"/>
<path d="M348.861 320.131V284.365C348.888 283.864 349.028 283.377 349.268 282.942C349.508 282.508 349.842 282.139 350.243 281.865L353.944 279.632C354.706 279.166 355.326 279.632 355.326 280.466V316.215C355.302 316.717 355.165 317.206 354.924 317.641C354.684 318.076 354.348 318.444 353.944 318.715L350.243 320.965C349.481 321.415 348.861 321.048 348.861 320.131Z" fill="#37474F"/>
<path d="M477.823 182.901C477.569 182.018 476.759 181.734 475.837 182.301L376.737 242.3C376.102 242.705 375.582 243.28 375.228 243.967L368.795 240.017C369.146 239.334 369.661 238.759 370.288 238.35L469.373 178.351C470.011 178.006 470.719 177.826 471.437 177.826C472.156 177.826 472.864 178.006 473.502 178.351L475.837 179.751C476.351 180.112 476.791 180.576 477.132 181.117C477.473 181.657 477.708 182.264 477.823 182.901Z" fill="#EBEBEB"/>
<path d="M477.903 183.568V248.933C477.863 249.682 477.657 250.411 477.302 251.062C476.946 251.713 476.45 252.268 475.854 252.682L381.138 310.064L376.754 312.731L376.436 312.897C375.451 313.264 374.736 312.681 374.736 311.464V246.099C374.757 245.384 374.948 244.685 375.292 244.066C375.646 243.38 376.166 242.805 376.801 242.399L475.901 182.401C476.823 181.834 477.633 182.118 477.887 183.001C477.887 183.001 477.887 183.101 477.887 183.168C477.903 183.3 477.908 183.434 477.903 183.568V183.568Z" fill="#FAFAFA"/>
<path d="M376.373 312.898L376.119 312.998C376.007 313.047 375.889 313.081 375.769 313.098C375.592 313.149 375.412 313.182 375.229 313.198H374.689C374.315 313.196 373.942 313.151 373.577 313.065C373.239 312.985 372.912 312.856 372.608 312.682L370.289 311.265C369.687 310.855 369.186 310.302 368.827 309.65C368.468 308.998 368.262 308.267 368.224 307.515V242.2C368.248 241.466 368.445 240.751 368.796 240.116L375.229 244.066C374.885 244.685 374.694 245.384 374.673 246.1V311.465C374.673 312.682 375.435 313.265 376.373 312.898Z" fill="#E0E0E0"/>
<path d="M411.349 236.733L406.218 256.732C405.739 258.333 404.997 259.833 404.026 261.166L387.459 282.048C386.388 281.251 385.481 280.235 384.793 279.061C384.105 277.886 383.651 276.578 383.456 275.215C382.297 268.549 385.569 259.316 391.97 251.233C393.066 249.866 394.178 248.583 395.322 247.366C399.793 242.549 405.284 238.906 411.349 236.733V236.733Z" fill="#37474F"/>
<path d="M425.152 262C417.797 274.982 403.82 284.782 393.384 284.099C391.952 284.045 390.542 283.717 389.222 283.132L405.551 262.55C406.425 261.557 407.632 260.96 408.918 260.883H409.093L425.152 262Z" fill="#37474F"/>
<path d="M423.739 236.4L408.522 255.583L413.557 236.066C416.889 234.963 420.479 235.081 423.739 236.4Z" fill="#37474F"/>
<path d="M426.264 260.033L409.252 258.933C409.061 258.919 408.874 258.874 408.696 258.8C408.721 258.679 408.77 258.566 408.839 258.467C408.879 258.394 408.927 258.327 408.982 258.267L425.549 237.383C430.934 241.283 431.22 250.017 426.264 260.033Z" fill="#37474F"/>
<path d="M436.35 222.734C436.35 223.934 437.287 224.4 438.415 223.65L469.389 204.884C469.955 204.533 470.436 204.05 470.794 203.472C471.152 202.893 471.378 202.236 471.454 201.551C471.454 200.351 470.532 199.884 469.389 200.617L438.415 219.384C437.852 219.742 437.373 220.229 437.015 220.81C436.658 221.39 436.43 222.048 436.35 222.734V222.734Z" fill="#37474F"/>
<path d="M436.35 235.8C436.35 237 437.287 237.466 438.415 236.716L469.389 217.967C469.964 217.604 470.451 217.104 470.81 216.508C471.168 215.911 471.389 215.235 471.454 214.534C471.454 213.334 470.532 212.867 469.389 213.617L438.415 232.367C437.842 232.733 437.357 233.234 436.999 233.829C436.641 234.425 436.419 235.099 436.35 235.8Z" fill="#E0E0E0"/>
<path d="M436.35 243.866C436.35 245.066 437.287 245.533 438.415 244.783L469.389 226.017C469.965 225.658 470.452 225.162 470.811 224.568C471.17 223.974 471.39 223.3 471.454 222.6C471.454 221.4 470.532 220.934 469.389 221.667L438.415 240.433C437.842 240.8 437.357 241.3 436.999 241.896C436.641 242.491 436.419 243.166 436.35 243.866Z" fill="#E0E0E0"/>
<path d="M436.35 251.899C436.35 253.099 437.287 253.566 438.415 252.833L469.389 234.067C469.967 233.706 470.456 233.207 470.814 232.61C471.173 232.014 471.392 231.336 471.454 230.633C471.454 229.433 470.532 228.967 469.389 229.717L438.415 248.566C437.851 248.92 437.372 249.404 437.014 249.981C436.656 250.559 436.429 251.215 436.35 251.899V251.899Z" fill="#E0E0E0"/>
<path d="M436.35 259.983C436.35 261.183 437.287 261.649 438.415 260.916L469.389 242.15C469.964 241.786 470.451 241.286 470.81 240.69C471.168 240.094 471.389 239.418 471.454 238.717C471.454 237.517 470.532 237.05 469.389 237.8L438.415 256.566C437.841 256.928 437.356 257.425 436.998 258.018C436.639 258.611 436.417 259.284 436.35 259.983V259.983Z" fill="#E0E0E0"/>
<path d="M252.001 245.466C251.747 244.566 250.953 244.283 250.016 244.866L196.01 277.532C195.399 277.952 194.896 278.525 194.549 279.199L188.163 275.232C188.506 274.555 189.01 273.981 189.625 273.566L243.63 240.883C244.271 240.546 244.978 240.37 245.695 240.37C246.412 240.37 247.119 240.546 247.76 240.883L250.079 242.3C250.587 242.664 251.019 243.132 251.35 243.676C251.68 244.22 251.902 244.829 252.001 245.466V245.466Z" fill="#EBEBEB"/>
<path d="M252.08 246.116V264.565C252.041 265.317 251.834 266.048 251.475 266.7C251.116 267.351 250.616 267.905 250.015 268.315L196.009 300.981L195.628 301.181H195.533C194.611 301.465 193.944 300.881 193.944 299.698V281.282C193.964 280.527 194.172 279.792 194.548 279.148C194.896 278.474 195.398 277.901 196.009 277.482L250.015 244.816C250.952 244.233 251.746 244.516 252 245.416C252.009 245.471 252.009 245.527 252 245.583C252.045 245.757 252.072 245.936 252.08 246.116V246.116Z" fill="#FAFAFA"/>
<path d="M195.596 301.215C195.344 301.314 195.084 301.387 194.818 301.431C194.009 301.586 193.175 301.512 192.403 301.215L191.943 300.981L189.624 299.581C189.022 299.172 188.521 298.618 188.162 297.967C187.803 297.315 187.596 296.583 187.559 295.831V277.382C187.587 276.629 187.794 275.895 188.162 275.249L194.611 279.148C194.236 279.792 194.028 280.528 194.008 281.282V299.731C194.008 300.915 194.675 301.498 195.596 301.215Z" fill="#E0E0E0"/>
<path d="M252.001 280.633C251.747 279.733 250.953 279.449 250.016 280.033L196.01 312.698C195.399 313.118 194.896 313.691 194.549 314.365L188.1 310.465C188.443 309.787 188.946 309.214 189.561 308.798L243.567 276.116C244.208 275.779 244.915 275.603 245.632 275.603C246.349 275.603 247.056 275.779 247.697 276.116L250.016 277.533C250.528 277.883 250.969 278.337 251.31 278.87C251.651 279.403 251.886 280.002 252.001 280.633V280.633Z" fill="#EBEBEB"/>
<path d="M252.08 281.283V299.732C252.046 300.504 251.835 301.256 251.465 301.923C251.094 302.591 250.575 303.154 249.951 303.565L195.946 336.231L195.565 336.431H195.469C194.548 336.714 193.881 336.131 193.881 334.948V316.448C193.901 315.694 194.109 314.959 194.484 314.315C194.832 313.641 195.334 313.068 195.946 312.648L249.951 279.983C250.889 279.399 251.683 279.683 251.937 280.583C251.946 280.638 251.946 280.694 251.937 280.749C252.003 280.921 252.051 281.1 252.08 281.283V281.283Z" fill="#FAFAFA"/>
<path d="M195.596 336.381C195.344 336.48 195.084 336.553 194.818 336.597C194.009 336.752 193.175 336.678 192.403 336.381L191.943 336.147L189.624 334.747C189.022 334.338 188.521 333.784 188.162 333.133C187.803 332.481 187.596 331.749 187.559 330.997V312.548C187.587 311.795 187.794 311.061 188.162 310.415L194.611 314.315C194.236 314.958 194.028 315.694 194.008 316.448V334.897C194.008 336.081 194.675 336.664 195.596 336.381Z" fill="#E0E0E0"/>
<path d="M252.001 315.814C251.747 314.914 250.953 314.631 250.016 315.214L196.01 347.88C195.399 348.3 194.896 348.873 194.549 349.547L188.1 345.647C188.443 344.969 188.946 344.396 189.561 343.98L243.567 311.298C244.208 310.961 244.915 310.785 245.632 310.785C246.349 310.785 247.056 310.961 247.697 311.298L250.016 312.714C250.528 313.064 250.969 313.519 251.31 314.052C251.651 314.584 251.886 315.184 252.001 315.814Z" fill="#EBEBEB"/>
<path d="M252.08 316.465V334.914C252.041 335.666 251.834 336.397 251.475 337.049C251.116 337.7 250.616 338.254 250.015 338.664L196.009 371.33L195.628 371.53H195.533C194.611 371.814 193.944 371.23 193.944 370.047V351.631C193.964 350.876 194.172 350.141 194.548 349.497C194.896 348.823 195.398 348.25 196.009 347.831L249.951 315.231C250.888 314.648 251.683 314.931 251.937 315.831C251.946 315.887 251.946 315.943 251.937 315.998C251.999 316.148 252.047 316.305 252.08 316.465V316.465Z" fill="#FAFAFA"/>
<path d="M195.596 371.563C195.344 371.663 195.084 371.735 194.818 371.78C194.009 371.935 193.175 371.86 192.403 371.563L191.943 371.33L189.624 369.93C189.022 369.52 188.521 368.967 188.162 368.315C187.803 367.663 187.596 366.932 187.559 366.18V347.73C187.587 346.978 187.794 346.244 188.162 345.597L194.611 349.497C194.236 350.141 194.028 350.876 194.008 351.63V370.08C194.008 371.263 194.675 371.896 195.596 371.563Z" fill="#E0E0E0"/>
<path d="M252.001 350.996C251.747 350.096 250.953 349.813 250.016 350.397L196.01 383.063C195.399 383.482 194.896 384.055 194.549 384.729L188.1 380.829C188.443 380.152 188.946 379.578 189.561 379.163L243.567 346.48C244.208 346.143 244.915 345.967 245.632 345.967C246.349 345.967 247.056 346.143 247.697 346.48L250.016 347.897C250.528 348.246 250.969 348.701 251.31 349.234C251.651 349.767 251.886 350.366 252.001 350.996V350.996Z" fill="#EBEBEB"/>
<path d="M252.08 351.647V370.097C252.041 370.848 251.834 371.579 251.475 372.231C251.116 372.882 250.616 373.436 250.015 373.846L196.009 406.512L195.628 406.712H195.533C194.611 406.996 193.944 406.412 193.944 405.229V386.896C193.964 386.142 194.172 385.406 194.548 384.763C194.896 384.089 195.398 383.516 196.009 383.096L250.015 350.43C250.952 349.847 251.746 350.13 252 351.03C252.009 351.086 252.009 351.142 252 351.197C252.04 351.344 252.066 351.495 252.08 351.647Z" fill="#FAFAFA"/>
<path d="M195.596 406.746C195.344 406.845 195.084 406.918 194.818 406.962C194.009 407.117 193.175 407.043 192.403 406.746L191.943 406.512L189.624 405.112C189.022 404.703 188.521 404.149 188.162 403.498C187.803 402.846 187.596 402.114 187.559 401.362V382.913C187.587 382.16 187.794 381.426 188.162 380.779L194.611 384.679C194.236 385.323 194.028 386.058 194.008 386.813V405.229C194.008 406.446 194.675 407.029 195.596 406.746Z" fill="#E0E0E0"/>
<path d="M257.671 216.25C257.738 216.23 257.81 216.23 257.877 216.25L252.08 212.75V210.867C252.094 210.706 252.094 210.544 252.08 210.384C252.088 210.329 252.088 210.272 252.08 210.217C251.965 209.587 251.729 208.987 251.388 208.455C251.047 207.922 250.607 207.467 250.094 207.117L247.775 205.7C247.134 205.363 246.427 205.188 245.71 205.188C244.993 205.188 244.286 205.363 243.645 205.7L189.64 238.383C189.039 238.794 188.538 239.347 188.18 239.999C187.821 240.65 187.614 241.382 187.575 242.133V260.583C187.612 261.334 187.819 262.066 188.178 262.718C188.537 263.37 189.038 263.923 189.64 264.333L191.959 265.732L192.419 265.966C193.191 266.263 194.025 266.338 194.834 266.182C195.099 266.138 195.36 266.065 195.612 265.966H195.707L196.089 265.766L250.094 233.1C250.695 232.689 251.195 232.136 251.554 231.484C251.913 230.833 252.12 230.101 252.159 229.35V224.067L258.052 216.934C258.107 216.868 258.142 216.785 258.15 216.698C258.158 216.611 258.139 216.523 258.097 216.447C258.055 216.371 257.991 216.311 257.914 216.276C257.838 216.241 257.752 216.232 257.671 216.25V216.25Z" fill="#37474F"/>
<path opacity="0.1" d="M195.597 266.032C195.345 266.132 195.085 266.204 194.819 266.249C194.01 266.404 193.176 266.329 192.404 266.032L191.944 265.799L189.593 264.399C188.991 263.99 188.49 263.436 188.131 262.784C187.772 262.133 187.566 261.401 187.528 260.649V242.2C187.556 241.447 187.763 240.713 188.132 240.066L194.581 243.966C194.205 244.61 193.997 245.345 193.977 246.1V264.549C194.009 265.732 194.676 266.316 195.597 266.032Z" fill="black"/>
<path opacity="0.4" d="M252.001 210.234C251.747 209.334 250.953 209.051 250.016 209.634L196.01 242.3C195.399 242.719 194.896 243.292 194.549 243.966L188.1 240.067C188.443 239.389 188.946 238.815 189.561 238.4L243.567 205.717C244.208 205.38 244.915 205.204 245.632 205.204C246.349 205.204 247.056 205.38 247.697 205.717L250.016 207.134C250.528 207.484 250.969 207.939 251.31 208.471C251.651 209.004 251.886 209.604 252.001 210.234V210.234Z" fill="white"/>
<path opacity="0.4" d="M257.672 216.25H252.08V212.817L257.878 216.317C257.817 216.274 257.745 216.251 257.672 216.25Z" fill="white"/>
<path d="M83.7902 514.093L94.909 507.427C94.909 507.427 100.262 476.527 96.2591 449.978C90.6362 412.645 66.4132 399.762 57.6134 403.462C48.8137 407.162 46.7488 418.245 62.6328 439.811C72.052 452.545 84.092 479.444 83.7902 514.093Z" fill="#37474F"/>
<g opacity="0.1">
<path opacity="0.1" d="M83.7902 514.093L94.909 507.427C94.909 507.427 100.262 476.527 96.2591 449.978C90.6362 412.645 66.4132 399.762 57.6134 403.462C48.8137 407.162 46.7488 418.245 62.6328 439.811C72.052 452.545 84.092 479.444 83.7902 514.093Z" fill="black"/>
</g>
<path d="M87.8246 499.277H87.7134C87.5079 499.244 87.3229 499.128 87.1982 498.953C87.0735 498.779 87.0189 498.56 87.0462 498.344C91.6526 463.345 78.2465 425.096 63.2203 409.663C63.1458 409.585 63.0867 409.493 63.0464 409.391C63.0061 409.29 62.9854 409.181 62.9854 409.071C62.9854 408.961 63.0061 408.852 63.0464 408.75C63.0867 408.649 63.1458 408.557 63.2203 408.479C63.2927 408.402 63.3792 408.34 63.4747 408.298C63.5702 408.256 63.6727 408.234 63.7762 408.234C63.8798 408.234 63.9823 408.256 64.0777 408.298C64.1732 408.34 64.2597 408.402 64.3322 408.479C79.6602 424.196 93.3204 463.111 88.6505 498.594C88.6129 498.792 88.509 498.97 88.3576 499.095C88.2062 499.221 88.0172 499.285 87.8246 499.277V499.277Z" fill="white"/>
<path d="M52.8801 532.843C51.1328 533.893 47.4954 531.576 46.1135 530.593C43.7364 528.91 41.8111 526.614 40.5223 523.926C39.0678 520.829 38.5788 517.331 39.1245 513.926C39.4028 512.144 39.8009 510.384 40.3158 508.66C40.7923 506.993 41.253 505.243 41.7136 503.543C42.2872 501.891 42.5305 500.132 42.4284 498.377C42.0154 494.877 39.0451 492.427 36.3607 490.31C33.3745 487.961 30.2771 484.877 30.293 480.661C30.5214 477.389 31.7657 474.286 33.8352 471.828C35.7571 469.278 38.0285 467.028 39.7758 464.328C41.1634 462.464 41.9031 460.159 41.8725 457.795C41.6896 456.35 41.2245 454.96 40.5064 453.712C38.8791 451.094 37.4504 448.347 36.2336 445.495C35.2647 442.545 35.4077 438.829 37.5997 436.779C38.5788 436.01 39.694 435.453 40.8803 435.141C42.0666 434.829 43.3002 434.768 44.5092 434.962C46.7643 435.274 48.9301 436.087 50.8628 437.345C57.2164 441.062 60.8856 449.012 67.6522 451.845C70.3343 452.728 73.0663 453.435 75.8324 453.961C77.2209 454.228 78.5407 454.798 79.7063 455.633C80.8718 456.468 81.8573 457.551 82.599 458.811C85.0769 464.011 80.4705 470.478 82.2178 475.961C83.8062 480.844 88.2854 482.727 90.8269 487.127C91.8752 489.068 92.2933 491.315 92.0182 493.527C91.8034 497.273 90.931 500.946 89.445 504.36C87.7933 507.747 85.9032 511.001 83.7903 514.093C83.6791 514.21 53.1501 532.676 52.8801 532.843Z" fill="#37474F"/>
<path d="M70.9722 522.726C70.8678 522.722 70.7653 522.696 70.6705 522.65C70.5757 522.604 70.4905 522.539 70.4197 522.458C70.3489 522.378 70.2939 522.284 70.2579 522.181C70.2218 522.078 70.2055 521.969 70.2097 521.859C71.5122 488.777 56.6607 452.245 45.8596 441.629C45.7141 441.473 45.6326 441.263 45.6326 441.045C45.6326 440.827 45.7141 440.618 45.8596 440.462C46.0107 440.308 46.213 440.222 46.4235 440.222C46.634 440.222 46.8362 440.308 46.9874 440.462C58.0108 451.295 73.1641 488.427 71.8458 521.976C71.8359 522.085 71.8053 522.192 71.7559 522.289C71.7065 522.386 71.6393 522.472 71.558 522.542C71.4768 522.612 71.3832 522.664 71.2826 522.695C71.1821 522.727 71.0765 522.737 70.9722 522.726V522.726Z" fill="white"/>
<path d="M66.2385 483.644C66.1653 483.661 66.0894 483.661 66.0162 483.644C58.5416 481.493 50.8675 480.197 43.1274 479.777C43.023 479.773 42.9205 479.747 42.8257 479.701C42.7309 479.655 42.6457 479.59 42.5749 479.51C42.5041 479.429 42.4491 479.335 42.413 479.232C42.377 479.129 42.3607 479.02 42.3649 478.91C42.3669 478.8 42.39 478.691 42.433 478.591C42.4761 478.49 42.538 478.4 42.6152 478.325C42.6924 478.25 42.7831 478.193 42.8821 478.156C42.981 478.119 43.0861 478.103 43.1909 478.11C51.0659 478.542 58.8732 479.867 66.4768 482.061C66.6874 482.094 66.8769 482.213 67.0035 482.393C67.1301 482.573 67.1835 482.798 67.1519 483.019C67.1203 483.24 67.0063 483.439 66.835 483.572C66.6637 483.705 66.4492 483.761 66.2385 483.727V483.644Z" fill="white"/>
<path d="M185.32 447.228C185.231 446.237 184.889 445.29 184.33 444.487C183.771 443.683 183.016 443.052 182.144 442.661C179.807 441.413 177.221 440.762 174.599 440.762C171.976 440.762 169.391 441.413 167.054 442.661C166.184 443.055 165.43 443.687 164.872 444.49C164.313 445.293 163.97 446.238 163.877 447.228V447.228L159.652 563.675C159.493 566.091 160.939 568.541 163.988 570.341C167.256 572.083 170.87 572.991 174.535 572.991C178.201 572.991 181.814 572.083 185.082 570.341C188.132 568.491 189.561 566.041 189.418 563.675L185.32 447.228Z" fill="#37474F"/>
<path opacity="0.15" d="M167.118 442.661C162.956 445.178 162.956 449.328 167.118 451.794C169.455 453.043 172.04 453.693 174.663 453.693C177.285 453.693 179.87 453.043 182.208 451.794C186.369 449.278 186.369 445.128 182.208 442.661C179.87 441.413 177.285 440.762 174.663 440.762C172.04 440.762 169.455 441.413 167.118 442.661V442.661Z" fill="black"/>
<path d="M179.221 410.095C177.81 409.339 176.248 408.945 174.663 408.945C173.078 408.945 171.516 409.339 170.104 410.095C169.583 410.335 169.133 410.716 168.801 411.199C168.468 411.683 168.266 412.252 168.214 412.845V447.228C168.263 447.825 168.464 448.397 168.797 448.883C169.13 449.37 169.581 449.754 170.104 449.995C171.518 450.742 173.079 451.131 174.663 451.131C176.246 451.131 177.807 450.742 179.221 449.995C179.744 449.754 180.196 449.37 180.529 448.883C180.861 448.397 181.063 447.825 181.112 447.228V412.845C181.06 412.252 180.857 411.683 180.525 411.199C180.192 410.716 179.742 410.335 179.221 410.095V410.095Z" fill="#263238"/>
<path d="M246.458 325.881C246.458 325.198 246.458 324.531 246.363 323.864C246.268 323.198 246.284 322.548 246.22 321.898C246.157 321.248 246.141 321.031 246.093 320.598C245.982 319.464 245.823 318.348 245.648 317.264C245.648 316.781 245.489 316.281 245.394 315.798C245.299 315.314 245.219 314.881 245.124 314.431C244.854 313.198 244.568 311.998 244.235 310.848C244.06 310.298 243.901 309.748 243.726 309.181C243.693 309.101 243.666 309.017 243.647 308.931C243.456 308.398 243.282 307.881 243.091 307.381C242.9 306.881 242.646 306.215 242.392 305.715C242.138 305.215 242.043 304.898 241.836 304.498C241.721 304.198 241.583 303.908 241.423 303.631C241.27 303.275 241.095 302.93 240.899 302.598C240.899 302.598 240.82 302.431 240.772 302.365C240.724 302.298 240.438 301.765 240.264 301.465C240.089 301.165 240.025 301.081 239.914 300.898C239.1 299.553 238.187 298.277 237.182 297.082L236.674 296.482L236.245 296.015L235.689 295.432C235.19 294.881 234.66 294.364 234.101 293.882C233.831 293.632 233.545 293.398 233.259 293.182L232.385 292.515C231.931 292.166 231.459 291.843 230.971 291.548L230.59 291.298H230.511L208.003 277.665H207.876C203.558 275.139 198.683 273.846 193.739 273.916C186.369 273.916 178.046 276.449 169.23 281.782C138.956 300.115 114.399 344.747 114.399 381.446C114.399 399.779 120.498 412.612 130.283 418.645H130.378L152.902 432.261H152.997L153.267 432.411C153.689 432.673 154.124 432.912 154.57 433.128C155.11 433.411 155.665 433.661 156.158 433.895C156.65 434.128 157.159 434.311 157.746 434.478L158.556 434.728C158.84 434.842 159.132 434.931 159.43 434.995C159.723 435.088 160.019 435.166 160.32 435.228C160.533 435.294 160.751 435.344 160.971 435.378C161.352 435.461 161.765 435.545 162.162 435.595C162.251 435.61 162.343 435.61 162.432 435.595L163.862 435.795C172.042 436.695 181.525 434.278 191.69 428.128C221.981 409.795 246.538 365.146 246.538 328.464C246.506 327.614 246.49 326.748 246.458 325.881ZM209.735 299.932C210.912 304.494 211.489 309.204 211.45 313.931C211.45 346.297 188.879 387.263 162.21 403.495C158.311 405.927 154.102 407.762 149.709 408.945C148.526 404.378 147.944 399.662 147.978 394.929C147.978 362.563 170.549 321.598 197.218 305.365C201.121 302.935 205.336 301.105 209.735 299.932V299.932Z" fill="#37474F"/>
<path opacity="0.1" d="M152.123 431.728L130.251 418.562C120.387 412.512 114.367 399.646 114.367 381.379C114.367 365.013 119.259 347.08 127.344 330.614L149.867 344.247C141.767 360.713 136.89 378.646 136.89 395.012C136.811 412.829 142.624 425.528 152.123 431.728Z" fill="black"/>
<path opacity="0.4" d="M246.459 325.881C246.459 325.198 246.459 324.531 246.363 323.864C246.268 323.198 246.284 322.548 246.22 321.898C246.157 321.248 246.141 321.031 246.093 320.598C245.982 319.465 245.823 318.348 245.649 317.265C245.649 316.781 245.49 316.281 245.394 315.798C245.299 315.315 245.22 314.881 245.124 314.431C244.854 313.198 244.568 311.998 244.235 310.848C244.06 310.298 243.901 309.748 243.727 309.181C243.693 309.101 243.666 309.017 243.647 308.931C243.457 308.398 243.282 307.881 243.091 307.381C242.901 306.881 242.646 306.215 242.392 305.715C242.138 305.215 242.043 304.898 241.836 304.498C241.721 304.198 241.583 303.908 241.423 303.632C241.271 303.275 241.096 302.93 240.899 302.598C240.899 302.598 240.82 302.432 240.772 302.365C240.724 302.298 240.439 301.765 240.264 301.465C240.089 301.165 240.026 301.082 239.914 300.898C239.1 299.553 238.187 298.277 237.182 297.082L236.674 296.482L236.245 296.015L235.689 295.432C235.19 294.882 234.66 294.364 234.101 293.882C233.831 293.632 233.545 293.398 233.259 293.182L232.385 292.515C231.931 292.166 231.459 291.843 230.972 291.549C221.012 285.199 207.146 285.949 191.722 295.265C161.432 313.598 136.875 358.23 136.875 394.929C136.875 413.512 143.229 426.495 153.315 432.395C153.737 432.657 154.172 432.896 154.617 433.112C155.157 433.395 155.713 433.645 156.206 433.878C156.698 434.112 157.206 434.295 157.794 434.462L158.604 434.712C158.888 434.826 159.18 434.915 159.478 434.978C159.77 435.072 160.067 435.149 160.367 435.212C160.581 435.277 160.798 435.328 161.019 435.362C161.4 435.445 161.813 435.528 162.21 435.578C162.299 435.594 162.391 435.594 162.48 435.578L163.91 435.778C172.09 436.678 181.573 434.262 191.738 428.112C222.029 409.779 246.586 365.13 246.586 328.448C246.506 327.614 246.49 326.748 246.459 325.881ZM186.099 418.062C179.301 422.179 172.757 424.345 167.166 424.345C156.666 424.345 151.838 416.829 149.693 408.946C148.511 404.378 147.928 399.662 147.962 394.929C147.962 362.563 170.533 321.598 197.202 305.365C201.105 302.935 205.32 301.105 209.719 299.932C211.798 299.389 213.93 299.104 216.073 299.082C233.434 299.082 235.292 319.648 235.292 328.498C235.372 360.863 212.816 401.896 186.099 418.062Z" fill="white"/>
<path opacity="0.1" d="M235.372 328.564C235.372 360.93 212.816 401.895 186.131 418.128C179.333 422.245 172.789 424.412 167.197 424.412C156.698 424.412 151.869 416.895 149.725 409.012C154.118 407.829 158.327 405.994 162.226 403.562C188.943 387.379 211.466 346.364 211.466 313.998C211.506 309.271 210.928 304.561 209.751 299.998C211.83 299.455 213.962 299.17 216.104 299.148C233.513 299.081 235.372 319.648 235.372 328.564Z" fill="black"/>
<path opacity="0.7" d="M225.777 322.848C225.777 355.214 203.222 396.179 176.537 412.412C169.738 416.529 163.194 418.695 157.603 418.695C156.491 418.698 155.38 418.603 154.283 418.412C152.137 415.63 150.573 412.404 149.693 408.946C148.51 404.378 147.927 399.662 147.961 394.929C147.961 362.563 170.532 321.598 197.202 305.365C201.105 302.935 205.32 301.105 209.718 299.932C211.797 299.389 213.93 299.104 216.072 299.082C217.189 299.079 218.305 299.174 219.408 299.365C224.967 306.148 225.777 317.031 225.777 322.848Z" fill="white"/>
<path opacity="0.1" d="M171.549 453.395L168.706 572.275C167.123 571.861 165.601 571.228 164.179 570.391C161.129 568.541 159.684 566.091 159.842 563.725L164.067 447.295C164.16 448.284 164.504 449.23 165.062 450.033C165.621 450.836 166.374 451.467 167.244 451.861C168.589 452.616 170.044 453.134 171.549 453.395V453.395Z" fill="black"/>
<path d="M592.682 336.698C592.682 335.414 590.315 321.698 588.742 314.132L573.446 319.131L576.162 333.181L589.06 344.031C593.047 343.114 592.777 337.981 592.682 336.698Z" fill="#FFA8A7"/>
<path d="M552.717 267.966H555.974C562.015 267.957 567.806 265.434 572.076 260.95C576.346 256.466 578.747 250.388 578.751 244.05V244.05C578.747 237.259 576.173 230.748 571.595 225.947C567.017 221.147 560.81 218.45 554.338 218.45V218.45C547.865 218.45 541.658 221.147 537.08 225.947C532.502 230.748 529.928 237.259 529.924 244.05C529.924 250.393 532.325 256.476 536.6 260.961C540.874 265.446 546.672 267.966 552.717 267.966Z" fill="#263238"/>
<path d="M518.71 307.915L511.482 321.814L522.728 331.931L533.037 314.798L518.71 307.915Z" fill="#F28F8F"/>
<path d="M545.839 276.899C538.676 276.982 530.781 279.715 528.065 285.615C525.349 291.515 516.803 309.898 516.803 309.898C516.803 309.898 523.157 319.632 533.196 318.948L545.839 276.899Z" fill="#37474F"/>
<g opacity="0.1">
<path opacity="0.1" d="M545.839 276.899C538.676 276.982 530.781 279.715 528.065 285.615C525.349 291.515 516.803 309.898 516.803 309.898C516.803 309.898 523.157 319.632 533.196 318.948L545.839 276.899Z" fill="black"/>
</g>
<path d="M570.03 524.11V522.443C569.411 524.376 566.536 532.693 562.184 536.859C558.721 540.192 554.003 543.992 552.796 547.675C551.589 551.359 559.372 552.809 562.612 552.209C566.928 551.443 570.884 549.212 573.874 545.859C575.733 543.476 576.924 540.626 578.242 538.742C579.561 536.859 582.642 534.743 583.357 532.559C583.573 530.524 583.356 528.463 582.722 526.526C582.213 524.493 581.673 522.243 581.006 522.443V523.693C579.443 524.988 577.502 525.677 575.51 525.643C573.985 525.726 570.014 525.393 570.03 524.11Z" fill="#263238"/>
<path d="M559.054 539.776C560.135 538.776 561.215 537.792 562.231 536.859C565.156 533.627 567.435 529.813 568.934 525.643C569.685 523.717 570.073 521.657 570.078 519.576V513.026H581.054V523.693V523.976C580.53 526.376 575.494 532.742 572.635 536.892C570.713 539.676 567.076 543.209 562.724 543.825C558.371 544.442 556.37 543.059 559.054 539.776Z" fill="#FFA8A7"/>
<path d="M529.257 512.993V511.327C528.637 513.26 525.762 521.56 521.41 525.726C517.947 529.06 513.23 532.876 512.023 536.559C510.815 540.243 518.599 541.693 521.823 541.093C526.144 540.331 530.107 538.1 533.101 534.743C534.959 532.359 536.134 529.51 537.469 527.626C538.803 525.743 541.853 523.626 542.583 521.443C542.792 519.408 542.575 517.349 541.948 515.41C541.44 513.377 540.884 511.127 540.233 511.327V512.577C538.668 513.868 536.727 514.557 534.737 514.527C533.132 514.627 529.241 514.293 529.257 512.993Z" fill="#263238"/>
<path d="M518.281 528.676L521.457 525.759C524.378 522.527 526.652 518.713 528.145 514.543C528.908 512.62 529.302 510.559 529.304 508.476V501.893H540.28V512.576V512.876C539.756 515.276 534.721 521.643 531.861 525.793C529.939 528.576 526.302 532.109 521.934 532.726C517.709 533.326 515.596 531.892 518.281 528.676Z" fill="#FFA8A7"/>
<path d="M578.751 345.231C587.265 364.73 578.449 433.412 578.449 433.412C578.703 436.578 582.15 442.795 583.437 456.745C585.025 473.211 581.054 514.51 581.054 514.51C579.378 515.534 577.488 516.112 575.55 516.193C573.612 516.275 571.684 515.857 569.935 514.977C569.935 514.977 559.483 452.761 557.514 436.395C555.798 422.129 552.495 388.58 552.495 388.58L543.139 436.328C544.6 441.814 545.468 447.455 545.728 453.145C545.95 462.811 540.359 505.21 540.359 505.21C539.279 507.377 531.099 507.893 528.954 505.21C528.954 505.21 524.189 445.695 523.157 434.112C522.585 427.195 530.098 342.447 530.098 342.447L578.751 345.231Z" fill="#37474F"/>
<path d="M552.59 388.563L549.842 372.613C549.842 372.613 538.151 370.08 532.846 364.847C536.508 369.345 541.294 372.682 546.665 374.48L549.763 388.429L544.346 430.628L552.59 388.563Z" fill="#263238"/>
<path d="M563.82 277.449C566.947 278.244 569.864 279.767 572.355 281.905C574.846 284.043 576.847 286.74 578.211 289.798C580.214 294.455 580.402 299.748 578.735 304.548L571.127 327.614C571.127 327.614 574.685 336.648 578.815 345.164C559.754 356.347 535.928 350.464 530.194 342.314C529.955 340.647 530.289 332.798 529.828 323.981C529.336 314.531 528.097 303.848 529.511 297.998C532.131 287.148 537.071 276.965 546.872 276.965L563.82 277.449Z" fill="#37474F"/>
<path d="M563.82 277.449C570.316 278.416 580.45 279.766 584.929 296.365C589.298 312.548 590.314 318.181 590.314 318.181C590.314 318.181 584.977 324.715 574.176 324.648L570.809 312.182L563.82 277.449Z" fill="#37474F"/>
<path d="M539.041 231.417C536.468 233 533.275 239.75 533.593 254.083C533.863 266.166 537.595 269.083 539.47 270.016C541.344 270.95 544.965 270.35 548.476 269.733V276.983C548.476 276.983 543.615 282.916 543.917 286.233C544.219 289.549 550.938 290.349 555.481 287.099C558.428 284.871 560.959 282.091 562.946 278.9V261.367C563.315 261.844 563.771 262.239 564.287 262.528C564.803 262.818 565.369 262.997 565.952 263.055C566.535 263.112 567.122 263.047 567.681 262.863C568.239 262.679 568.757 262.38 569.204 261.983C573.08 259.283 573.223 252.583 570.967 250.183C568.712 247.783 563.851 248.517 562.946 251.85C558.331 251.648 553.837 250.239 549.874 247.75C546.972 246.112 544.479 243.78 542.597 240.942C540.714 238.104 539.496 234.841 539.041 231.417V231.417Z" fill="#FFA8A7"/>
<path d="M546.475 251.033C546.457 251.237 546.479 251.443 546.539 251.638C546.599 251.833 546.695 252.013 546.822 252.169C546.95 252.324 547.105 252.451 547.28 252.542C547.455 252.634 547.646 252.687 547.841 252.7C548.14 252.729 548.441 252.664 548.705 252.512C548.969 252.361 549.184 252.13 549.322 251.85C549.46 251.569 549.515 251.252 549.48 250.939C549.445 250.625 549.321 250.33 549.125 250.091C548.929 249.851 548.669 249.679 548.379 249.596C548.089 249.513 547.782 249.522 547.497 249.623C547.212 249.725 546.963 249.913 546.781 250.164C546.598 250.415 546.492 250.718 546.475 251.033V251.033Z" fill="#263238"/>
<path d="M546.077 261.283L542.71 262.416C542.774 262.651 542.881 262.87 543.026 263.061C543.171 263.251 543.351 263.41 543.555 263.528C543.758 263.646 543.982 263.72 544.214 263.747C544.445 263.773 544.679 263.751 544.902 263.683C545.357 263.522 545.735 263.182 545.955 262.733C546.174 262.285 546.218 261.765 546.077 261.283Z" fill="#F28F8F"/>
<path d="M534.593 246.367L537.452 244.233C537.329 244.028 537.167 243.851 536.976 243.713C536.785 243.574 536.57 243.478 536.343 243.43C536.115 243.382 535.881 243.382 535.654 243.432C535.427 243.481 535.212 243.578 535.022 243.717C534.64 244.016 534.383 244.459 534.303 244.952C534.223 245.445 534.327 245.952 534.593 246.367V246.367Z" fill="#263238"/>
<path d="M535.26 249.933C535.255 250.232 535.333 250.526 535.485 250.778C535.636 251.031 535.855 251.232 536.114 251.356C536.373 251.479 536.661 251.521 536.943 251.476C537.224 251.431 537.487 251.3 537.698 251.1C537.91 250.9 538.061 250.64 538.134 250.351C538.207 250.062 538.197 249.758 538.107 249.474C538.016 249.191 537.849 248.942 537.626 248.757C537.402 248.572 537.132 248.459 536.848 248.433C536.649 248.42 536.45 248.448 536.262 248.517C536.074 248.585 535.901 248.692 535.753 248.832C535.605 248.972 535.485 249.141 535.4 249.33C535.316 249.519 535.268 249.724 535.26 249.933V249.933Z" fill="#263238"/>
<path d="M542.106 249.066L541.868 258.216L537.277 256.732L542.106 249.066Z" fill="#F28F8F"/>
<path d="M548.571 269.733C552.272 269.216 559.896 266.933 561.087 263.766C560.61 265.364 559.679 266.772 558.419 267.799C556.131 269.849 548.571 272.15 548.571 272.15V269.733Z" fill="#F28F8F"/>
<path opacity="0.1" d="M573.445 320.581C571.985 316.432 570.739 312.204 569.712 307.915C569.712 307.915 570.316 317.331 572.889 322.397L573.445 320.581Z" fill="black"/>
<path d="M487.846 307.065L529.907 318.681L542.328 373.463L502.332 361.263L487.846 307.065Z" fill="#E0E0E0"/>
<g opacity="0.1">
<path opacity="0.1" d="M506.192 343.297C505.795 344.414 503.492 347.53 498.6 347.28L497.996 345.014L506.192 343.297Z" fill="black"/>
</g>
<g opacity="0.1">
<path opacity="0.1" d="M515.596 345.014C515.771 346.48 518.63 349.181 523.538 350.864C529.034 352.798 537.485 351.781 537.485 351.781L536.722 349.047L515.596 345.014Z" fill="black"/>
</g>
<g opacity="0.1">
<path opacity="0.1" d="M500.173 314.998L499.823 313.331C499.633 312.398 502.095 312.348 505.335 313.231L511.53 314.898C514.707 315.781 517.55 317.248 517.74 318.231L518.09 319.898L500.173 314.998Z" fill="black"/>
</g>
<path d="M497.25 308.648C497.123 308.065 498.124 307.915 499.49 308.298L501.936 309.015C501.936 309.015 501.205 305.365 506.701 306.648C508.158 306.871 509.535 307.485 510.698 308.431C511.862 309.377 512.772 310.623 513.34 312.048L515.961 312.831C517.407 313.265 518.709 314.081 518.884 314.665L519.202 315.715L497.52 309.715C497.52 309.715 497.377 309.231 497.25 308.648Z" fill="#37474F"/>
<path d="M500.236 310.465C502.222 310.965 503.048 311.232 503.334 312.665C503.62 314.098 503.81 315.515 503.81 315.515L513.341 318.165C513.341 318.165 512.88 316.098 512.737 315.281C512.594 314.465 512.912 313.998 514.437 314.415L514.564 313.782L499.538 309.765L500.236 310.465Z" fill="#37474F"/>
<path d="M499.902 315.231L499.553 313.565C499.362 312.631 501.84 312.598 505.065 313.481L511.259 315.148C514.436 316.031 517.28 317.498 517.47 318.481L517.82 320.148L499.902 315.231Z" fill="#37474F"/>
<path d="M589.059 343.947L576.161 333.098C576.161 333.098 547.697 338.414 544.393 338.697C542.622 338.75 540.877 338.239 539.388 337.23C537.9 336.221 536.737 334.763 536.054 333.048C534.784 329.598 532.528 330.031 532.528 330.031C532.528 330.031 533.529 334.398 533.831 335.781C534.132 337.164 526.127 338.331 521.679 336.748C517.232 335.164 510.799 337.464 514.786 343.814C518.773 350.164 526.54 350.914 531.924 350.914C534.177 350.898 536.426 350.737 538.659 350.431C540.406 350.197 542.138 350.014 543.885 349.881C554.924 349.064 584.04 345.597 589.059 343.947Z" fill="#FFA8A7"/>
<path d="M492.135 323.081C492.135 323.081 493.644 328.714 493.994 330.064C494.343 331.414 499.251 333.848 502.333 334.731C505.414 335.614 508.814 336.681 507.352 341.214C506.002 345.397 500.919 346.364 498.314 346.214C495.709 346.064 492.183 343.497 490.785 339.297C489.006 333.964 489.959 328.264 489.197 325.131C488.434 321.998 490.579 321.215 492.135 323.081Z" fill="#FFA8A7"/>
<path d="M592.125 287.182C588.065 287.177 584.173 285.483 581.302 282.471C578.432 279.459 576.817 275.375 576.813 271.116V233.4C580.873 233.404 584.765 235.099 587.636 238.111C590.506 241.123 592.121 245.207 592.125 249.466V287.182Z" fill="#263238"/>
<path d="M576.321 234.717L582.674 231.15C582.473 230.705 582.189 230.308 581.838 229.981C581.486 229.655 581.076 229.406 580.631 229.25C580.185 229.095 579.715 229.035 579.247 229.075C578.779 229.115 578.324 229.254 577.909 229.484C577.052 229.973 576.408 230.79 576.112 231.765C575.816 232.741 575.891 233.798 576.321 234.717V234.717Z" fill="#263238"/>
<path d="M159.874 75.2375L148.962 81.9039C149.024 81.401 149.056 80.8944 149.057 80.3873V77.0541C149.057 71.1543 145.118 68.7211 140.242 71.721C138.151 73.0631 136.362 74.8657 135 77.0041C134.19 69.6044 128.646 66.8378 121.912 70.921C114.637 75.3208 108.728 86.0537 108.728 94.8701V99.8699C108.683 101.846 109.069 103.807 109.856 105.603L100.802 111.086C99.382 112.05 98.1972 113.35 97.3422 114.881C96.4871 116.412 95.9856 118.132 95.8777 119.902C95.8777 123.236 98.0697 124.486 100.77 122.852L159.842 87.0704C161.264 86.0969 162.447 84.785 163.294 83.2415C164.142 81.6979 164.63 79.9662 164.719 78.1874C164.751 74.9208 162.59 73.5709 159.874 75.2375Z" fill="#EBEBEB"/>
</svg>
