<svg width="661" height="651" viewBox="0 0 661 651" fill="none" xmlns="http://www.w3.org/2000/svg">
<path d="M330.5 651C513.03 651 661 564.399 661 457.571C661 350.743 513.03 264.142 330.5 264.142C147.97 264.142 0 350.743 0 457.571C0 564.399 147.97 651 330.5 651Z" fill="#F5F5F5"/>
<path d="M466.009 592.793C504.022 592.793 534.837 575.94 534.837 555.152C534.837 534.364 504.022 517.511 466.009 517.511C427.997 517.511 397.182 534.364 397.182 555.152C397.182 575.94 427.997 592.793 466.009 592.793Z" fill="#E6E6E6"/>
<path d="M557.779 537.748C595.792 537.748 626.607 520.896 626.607 500.107C626.607 479.318 595.792 462.465 557.779 462.465C519.767 462.465 488.952 479.318 488.952 500.107C488.952 520.896 519.767 537.748 557.779 537.748Z" fill="#E6E6E6"/>
<path d="M348.783 436.933L258.425 489.888L258.213 489.774L223.863 469.665C220.871 467.717 218.495 464.939 217.018 461.66C215.541 458.381 215.026 454.741 215.533 451.174L228.239 384.021L318.598 331.066L305.891 398.219C305.384 401.786 305.9 405.426 307.377 408.705C308.854 411.983 311.23 414.762 314.221 416.71L348.783 436.933Z" fill="#37474F"/>
<path d="M228.239 383.993L215.603 450.559L305.976 397.675L317.666 336.104L311.976 334.944L228.239 383.993Z" fill="#263238"/>
<path d="M258.425 489.859L223.863 469.636C220.872 467.688 218.496 464.91 217.019 461.631C215.542 458.352 215.026 454.712 215.533 451.145L228.24 383.993L213.161 375.162L198.591 451.989C196.671 462.151 202.318 474.703 211.156 479.869L258.425 507.492V489.859Z" fill="#263238"/>
<path d="M348.769 436.919L258.383 489.859V507.506L348.769 454.566V436.919Z" fill="#455A64"/>
<path d="M437.194 1.75778C441.359 4.20516 444.733 10.3451 444.733 15.5833V296.76C444.581 299.584 443.775 302.333 442.379 304.783C440.984 307.232 439.038 309.313 436.699 310.857L90.9656 513.217C86.5183 515.807 79.5438 515.936 75.4353 513.503C71.3268 511.07 67.896 504.916 67.896 499.678V218.515C68.0486 215.689 68.8553 212.939 70.2509 210.487C71.6465 208.036 73.5918 205.952 75.9294 204.404L421.621 2.05834C426.054 -0.589409 433.029 -0.675283 437.194 1.75778Z" fill="#455A64"/>
<path d="M90.0057 513.704C85.5725 515.808 79.2615 515.765 75.3789 513.504C71.2139 511.071 67.8396 504.916 67.8396 499.693V218.515C67.9399 215.679 68.7514 212.916 70.1974 210.486L85.276 219.317C83.8288 221.741 83.0172 224.5 82.9182 227.332V508.509C82.9182 513.332 86.0102 515.493 90.0057 513.704Z" fill="#263238"/>
<path d="M444.789 296.76V15.5842C444.789 10.3889 441.189 8.285 436.755 10.8755L90.9651 213.22C88.6251 214.766 86.678 216.849 85.2821 219.302C83.8862 221.754 83.0809 224.505 82.9316 227.332V508.508C82.9316 513.704 86.5319 515.807 90.9792 513.217L436.699 310.858C439.047 309.32 441.004 307.242 442.41 304.792C443.816 302.342 444.631 299.59 444.789 296.76V296.76Z" fill="#37474F"/>
<path d="M427.085 25.1716L96.8952 218.572C95.0185 219.802 93.4539 221.463 92.328 223.419C91.2022 225.376 90.5467 227.574 90.4148 229.836V479.512C90.4148 483.662 93.2385 485.351 96.8387 483.276L427.085 289.947C428.96 288.712 430.519 287.042 431.634 285.077C432.748 283.111 433.386 280.905 433.495 278.64V28.993C433.495 24.8424 430.671 23.1536 427.085 25.1716Z" fill="#263238"/>
<path d="M102.797 458.588C102.797 462.881 105.776 464.627 109.447 462.481L414.534 283.922C416.469 282.641 418.08 280.917 419.235 278.888C420.39 276.859 421.058 274.582 421.183 272.243V64.0437L102.797 250.388V458.588Z" fill="#FAFAFA"/>
<path d="M419.772 66.5197V272.243C419.643 274.331 419.039 276.36 418.008 278.173C416.977 279.985 415.546 281.531 413.828 282.69L108.769 461.235C108.088 461.675 107.304 461.927 106.496 461.965C104.449 461.965 104.237 459.603 104.237 458.587V251.218L419.8 66.5913L419.772 66.5197ZM421.212 64.1153L102.797 250.388V458.587C102.797 461.635 104.294 463.396 106.468 463.396C107.523 463.362 108.551 463.046 109.447 462.48L414.534 283.921C416.469 282.641 418.08 280.916 419.235 278.887C420.39 276.858 421.058 274.582 421.184 272.243V64.0437L421.212 64.1153Z" fill="#E0E0E0"/>
<path d="M117.947 255.856L180.647 219.16C182.327 218.172 183.696 218.974 183.696 220.949V401.753C183.638 402.827 183.332 403.873 182.802 404.805C182.272 405.737 181.534 406.53 180.647 407.12L117.947 443.816C116.252 444.804 114.883 444.002 114.883 442.027V261.223C114.94 260.147 115.248 259.1 115.78 258.167C116.313 257.235 117.055 256.443 117.947 255.856V255.856Z" fill="#F0F0F0"/>
<path d="M129.41 262.568L169.182 239.296C170.862 238.309 172.232 239.01 172.232 240.871C172.155 241.909 171.84 242.915 171.31 243.807C170.78 244.7 170.052 245.454 169.182 246.009L129.41 269.28C127.716 270.268 126.346 269.567 126.346 267.72C126.421 266.678 126.737 265.668 127.27 264.772C127.802 263.877 128.535 263.122 129.41 262.568V262.568Z" fill="#FAFAFA"/>
<path d="M126.346 279.928V282.347C126.346 283.535 127.179 284.021 128.182 283.42L130.257 282.218C130.792 281.866 131.236 281.39 131.555 280.831C131.874 280.271 132.058 279.643 132.093 278.998V276.579C132.093 275.392 131.26 274.905 130.257 275.506L128.182 276.708C127.651 277.064 127.208 277.54 126.89 278.099C126.571 278.658 126.385 279.284 126.346 279.928V279.928Z" fill="#263238"/>
<path d="M137.825 274.433C137.825 276.279 139.237 276.98 140.875 275.993L169.112 259.434C169.982 258.879 170.71 258.125 171.24 257.233C171.77 256.34 172.085 255.334 172.162 254.296C172.162 252.435 170.75 251.734 169.112 252.721L140.875 269.281C140.004 269.837 139.274 270.593 138.744 271.488C138.214 272.383 137.9 273.392 137.825 274.433Z" fill="#FAFAFA"/>
<path d="M126.346 293.367V295.786C126.346 296.974 127.179 297.461 128.182 296.86L130.257 295.658C130.792 295.306 131.238 294.831 131.557 294.271C131.876 293.711 132.059 293.083 132.093 292.437V290.018C132.093 288.83 131.26 288.344 130.257 288.945L128.182 290.147C127.651 290.503 127.208 290.979 126.89 291.538C126.571 292.097 126.385 292.723 126.346 293.367V293.367Z" fill="#263238"/>
<path d="M137.825 287.872C137.825 289.718 139.237 290.419 140.875 289.432L169.112 272.872C169.982 272.318 170.71 271.564 171.24 270.671C171.77 269.779 172.085 268.773 172.162 267.734C172.162 265.874 170.75 265.172 169.112 266.16L140.875 282.719C140.004 283.275 139.274 284.032 138.744 284.927C138.214 285.822 137.9 286.831 137.825 287.872V287.872Z" fill="#FAFAFA"/>
<path d="M126.346 306.793V309.211C126.346 310.399 127.179 310.872 128.182 310.285L130.257 309.068C130.792 308.717 131.238 308.241 131.557 307.682C131.876 307.122 132.059 306.494 132.093 305.848V303.43C132.093 302.242 131.26 301.77 130.257 302.356L128.182 303.573C127.648 303.926 127.204 304.402 126.885 304.961C126.567 305.52 126.382 306.148 126.346 306.793V306.793Z" fill="#263238"/>
<path d="M137.825 301.282C137.825 303.143 139.237 303.844 140.875 302.856L169.112 286.297C169.983 285.741 170.713 284.985 171.243 284.09C171.773 283.195 172.088 282.186 172.162 281.145C172.162 279.298 170.75 278.597 169.112 279.585L140.875 296.144C140.006 296.699 139.277 297.453 138.747 298.345C138.217 299.237 137.902 300.243 137.825 301.282Z" fill="#FAFAFA"/>
<path d="M126.346 320.204V322.623C126.346 323.811 127.179 324.283 128.182 323.696L130.257 322.48C130.792 322.128 131.238 321.653 131.557 321.093C131.876 320.533 132.059 319.905 132.093 319.259V316.84C132.093 315.653 131.26 315.18 130.257 315.767L128.182 316.984C127.648 317.337 127.204 317.813 126.885 318.372C126.567 318.931 126.382 319.559 126.346 320.204V320.204Z" fill="#263238"/>
<path d="M137.825 314.693C137.825 316.553 139.237 317.255 140.875 316.267L169.112 299.708C169.983 299.152 170.713 298.396 171.243 297.501C171.773 296.606 172.088 295.597 172.162 294.556C172.162 292.71 170.75 292.009 169.112 292.996L140.875 309.555C140.006 310.11 139.277 310.864 138.747 311.756C138.217 312.648 137.902 313.654 137.825 314.693Z" fill="#FAFAFA"/>
<path d="M129.171 336.547L168.928 313.276C170.623 312.288 171.992 312.989 171.992 314.836C171.918 315.878 171.601 316.888 171.069 317.784C170.537 318.679 169.803 319.434 168.928 319.988L129.171 343.259C127.476 344.247 126.107 343.546 126.107 341.699C126.182 340.657 126.498 339.647 127.03 338.751C127.563 337.856 128.296 337.101 129.171 336.547V336.547Z" fill="#FAFAFA"/>
<path d="M126.107 353.908V356.327C126.107 357.515 126.926 358.001 127.942 357.4L130.018 356.198C130.55 355.845 130.993 355.369 131.309 354.809C131.626 354.249 131.807 353.622 131.839 352.977V350.559C131.839 349.371 131.02 348.884 130.018 349.485L127.942 350.687C127.408 351.04 126.963 351.515 126.645 352.075C126.326 352.635 126.141 353.262 126.107 353.908V353.908Z" fill="#263238"/>
<path d="M137.585 348.412C137.585 350.258 138.997 350.96 140.635 349.972L168.872 333.413C169.745 332.861 170.477 332.108 171.009 331.215C171.542 330.323 171.859 329.316 171.936 328.275C171.936 326.415 170.524 325.714 168.872 326.701L140.635 343.26C139.764 343.816 139.034 344.572 138.504 345.467C137.974 346.362 137.659 347.371 137.585 348.412V348.412Z" fill="#FAFAFA"/>
<path d="M126.107 367.347V369.765C126.107 370.953 126.926 371.44 127.942 370.839L130.018 369.637C130.55 369.283 130.993 368.808 131.309 368.248C131.626 367.688 131.807 367.061 131.839 366.417V363.998C131.839 362.81 131.02 362.324 130.018 362.925L127.942 364.127C127.408 364.479 126.963 364.955 126.645 365.514C126.326 366.074 126.141 366.702 126.107 367.347V367.347Z" fill="#263238"/>
<path d="M137.585 361.852C137.585 363.698 138.997 364.399 140.635 363.412L168.872 346.853C169.745 346.301 170.477 345.548 171.009 344.655C171.542 343.762 171.859 342.755 171.936 341.715C171.936 339.854 170.524 339.153 168.872 340.141L140.635 356.699C139.764 357.256 139.034 358.012 138.504 358.907C137.974 359.802 137.659 360.811 137.585 361.852V361.852Z" fill="#FAFAFA"/>
<path d="M126.107 380.772V383.191C126.107 384.379 126.926 384.851 127.942 384.265L130.018 383.048C130.551 382.696 130.994 382.22 131.311 381.66C131.627 381.1 131.808 380.472 131.839 379.828V377.409C131.839 376.221 131.02 375.749 130.018 376.335L127.942 377.552C127.407 377.904 126.962 378.379 126.643 378.939C126.324 379.498 126.14 380.127 126.107 380.772V380.772Z" fill="#263238"/>
<path d="M137.585 375.262C137.585 377.122 138.997 377.824 140.635 376.836L168.872 360.277C169.747 359.723 170.48 358.968 171.012 358.073C171.545 357.177 171.861 356.167 171.936 355.125C171.936 353.278 170.524 352.577 168.872 353.565L140.635 370.124C139.765 370.679 139.036 371.433 138.507 372.325C137.977 373.217 137.661 374.223 137.585 375.262V375.262Z" fill="#FAFAFA"/>
<path d="M126.107 394.182V396.601C126.107 397.789 126.926 398.261 127.942 397.674L130.018 396.458C130.551 396.105 130.994 395.63 131.311 395.07C131.627 394.51 131.808 393.882 131.839 393.238V390.819C131.839 389.631 131.02 389.158 130.018 389.745L127.942 390.962C127.407 391.314 126.962 391.789 126.643 392.349C126.324 392.908 126.14 393.537 126.107 394.182V394.182Z" fill="#263238"/>
<path d="M137.585 388.701C137.585 390.561 138.997 391.263 140.635 390.275L168.872 373.716C169.747 373.162 170.48 372.407 171.012 371.511C171.545 370.616 171.861 369.606 171.936 368.563C171.936 366.717 170.524 366.016 168.872 367.003L140.635 383.563C139.765 384.117 139.036 384.871 138.507 385.764C137.977 386.656 137.661 387.662 137.585 388.701V388.701Z" fill="#FAFAFA"/>
<path d="M102.797 236.262C102.923 233.921 103.59 231.642 104.745 229.611C105.901 227.58 107.511 225.852 109.447 224.569L414.534 46.0243C418.204 43.8632 421.183 45.6093 421.183 49.9172V64.0434L102.797 250.388V236.262Z" fill="#37474F"/>
<path d="M383.727 71.3293C382.82 71.931 382.065 72.7406 381.523 73.6926C380.981 74.6447 380.667 75.7125 380.607 76.81C380.607 78.8277 382.019 79.672 383.727 78.6417C384.647 78.0481 385.414 77.2417 385.967 76.2889C386.519 75.3361 386.84 74.2641 386.904 73.161C386.904 71.1433 385.492 70.3276 383.727 71.3293Z" fill="#263238"/>
<path d="M394.655 64.9594C393.746 65.5595 392.99 66.3687 392.447 67.3212C391.905 68.2737 391.593 69.3425 391.535 70.4406C391.535 72.4585 392.947 73.3028 394.655 72.2581C395.565 71.6589 396.322 70.8498 396.864 69.8972C397.407 68.9445 397.719 67.8753 397.775 66.7769C397.775 64.759 396.378 63.9433 394.655 64.9594Z" fill="#263238"/>
<path d="M405.583 58.5767C404.668 59.1736 403.906 59.9814 403.359 60.9341C402.812 61.8868 402.495 62.9573 402.434 64.058C402.434 66.0759 403.846 66.9202 405.568 65.8898C406.476 65.288 407.231 64.4784 407.773 63.5262C408.315 62.5741 408.629 61.5061 408.689 60.4085C408.703 58.3906 407.305 57.5749 405.583 58.5767Z" fill="#263238"/>
<path d="M220.559 202.414L386.875 105.078V131.927L220.559 229.264V202.414Z" fill="#263238"/>
<path opacity="0.05" d="M220.559 202.414L386.875 105.078V131.927L220.559 229.264V202.414Z" fill="black"/>
<path d="M214.813 199.065L220.559 202.414V229.264L214.813 225.915V199.065Z" fill="#263238"/>
<path opacity="0.2" d="M214.813 199.065L220.559 202.414V229.264L214.813 225.915V199.065Z" fill="black"/>
<path d="M386.875 105.078L381.143 101.729L214.813 199.065L220.559 202.414L386.875 105.078Z" fill="#263238"/>
<path opacity="0.4" d="M386.875 105.078L381.143 101.729L214.813 199.065L220.559 202.414L386.875 105.078Z" fill="white"/>
<path d="M220.559 229.264L386.875 131.927V286.326L220.559 383.663V229.264Z" fill="#263238"/>
<path d="M214.813 225.915L220.559 229.264V383.663L214.827 380.314L214.813 225.915Z" fill="#263238"/>
<path opacity="0.15" d="M214.813 225.915L220.559 229.264V383.663L214.827 380.314L214.813 225.915Z" fill="black"/>
<path d="M315.026 174.233L314.842 174.405C314.707 174.559 314.544 174.685 314.362 174.777C314.009 175.006 313.826 174.777 313.501 174.563L310.847 172.988C309.76 172.344 308.475 171.557 307.134 170.741C305.793 169.925 304.31 169.023 302.898 168.107C302.475 167.821 303.251 166.389 303.731 166.676C305.242 167.477 306.71 168.307 308.108 169.08C309.506 169.853 310.776 170.512 311.892 171.227L314.546 172.759C314.857 172.974 315.181 172.988 315.167 173.417C315.178 173.616 315.154 173.814 315.097 174.004L315.026 174.233Z" fill="#E0E0E0"/>
<path d="M317.723 176.165C315.675 179.758 312.343 181.704 308.828 179.772L308.63 179.672H308.545C308.028 179.273 307.62 178.747 307.36 178.143C307.101 177.539 306.998 176.878 307.063 176.223C307.164 174.347 307.698 172.521 308.623 170.893C309.547 169.265 310.836 167.879 312.386 166.849C312.901 166.488 313.494 166.257 314.115 166.174C314.737 166.092 315.368 166.162 315.958 166.376L316.155 166.477L316.48 166.691C319.798 168.781 319.77 172.588 317.723 176.165Z" fill="#37474F"/>
<path d="M322.043 183.278L325.996 176.437C322.978 174.87 320.177 172.907 317.666 170.598L317.511 170.44L317.383 170.311C316.988 170.054 316.524 169.926 316.055 169.944C315.586 169.962 315.133 170.125 314.757 170.411C313.747 171.08 312.906 171.98 312.302 173.039C311.699 174.098 311.35 175.287 311.284 176.508C311.241 176.945 311.312 177.385 311.491 177.785C311.669 178.184 311.949 178.529 312.301 178.784C312.507 178.895 312.732 178.963 312.964 178.984C316.174 179.977 319.23 181.423 322.043 183.278V183.278Z" fill="#455A64"/>
<path d="M329.399 177.74C329.38 176.614 328.926 175.54 328.133 174.75C327.341 173.96 326.274 173.518 325.163 173.518C324.68 173.533 324.203 173.629 323.751 173.804H323.666H323.511C323.282 173.891 323.06 173.997 322.848 174.119C321.617 174.928 320.592 176.019 319.856 177.305C319.12 178.59 318.694 180.034 318.612 181.518C318.615 181.88 318.658 182.24 318.739 182.591C318.929 183.623 319.49 184.545 320.314 185.18C321.137 185.815 322.165 186.116 323.195 186.025C324.226 185.933 325.187 185.457 325.89 184.687C326.593 183.918 326.988 182.91 326.998 181.862C327.006 181.728 327.006 181.594 326.998 181.461C327.695 181.122 328.288 180.596 328.711 179.94C329.134 179.284 329.372 178.523 329.399 177.74V177.74Z" fill="#37474F"/>
<path d="M325.234 175.593C327.564 174.233 329.47 175.336 329.47 178.069C329.389 179.554 328.963 180.998 328.227 182.284C327.491 183.57 326.465 184.662 325.234 185.469C322.905 186.829 320.999 185.727 320.999 183.007C321.08 181.521 321.507 180.075 322.242 178.787C322.978 177.499 324.003 176.405 325.234 175.593Z" fill="#455A64"/>
<path d="M235.412 231.268C238.588 229.407 241.158 230.91 241.158 234.631C241.039 236.64 240.457 238.593 239.459 240.333C238.461 242.073 237.075 243.551 235.412 244.65C232.249 246.511 229.68 245.008 229.68 241.301C229.795 239.291 230.374 237.336 231.369 235.594C232.365 233.851 233.749 232.37 235.412 231.268V231.268Z" fill="#FAFAFA"/>
<path d="M247.907 224.111L275.791 207.81C277.203 206.994 278.29 207.566 278.29 209.084C278.239 209.949 277.986 210.789 277.551 211.536C277.117 212.282 276.513 212.914 275.791 213.377L247.907 229.693C246.495 230.494 245.408 229.922 245.408 228.405C245.459 227.539 245.712 226.699 246.146 225.952C246.581 225.206 247.184 224.575 247.907 224.111V224.111Z" fill="#455A64"/>
<path d="M247.243 233.758L272.247 219.116C273.264 218.53 274.082 218.701 274.082 219.503C273.983 220.035 273.767 220.539 273.453 220.977C273.138 221.415 272.731 221.777 272.261 222.036L247.229 237.093C246.227 237.694 245.408 237.436 245.408 236.506C245.483 235.935 245.688 235.39 246.007 234.913C246.325 234.436 246.748 234.041 247.243 233.758V233.758Z" fill="#455A64"/>
<path opacity="0.3" d="M232.023 255.398C232.023 256.829 233.125 257.401 234.466 256.614L372.954 175.564C373.649 175.127 374.233 174.529 374.657 173.821C375.082 173.112 375.335 172.311 375.397 171.485C375.397 170.053 374.31 169.495 372.954 170.282L234.424 251.304C233.736 251.749 233.161 252.351 232.744 253.062C232.327 253.773 232.08 254.573 232.023 255.398Z" fill="black"/>
<path opacity="0.3" d="M232.023 265.473C232.023 266.904 233.125 267.477 234.466 266.675L317.412 218.129C318.105 217.692 318.686 217.097 319.111 216.391C319.535 215.685 319.79 214.888 319.855 214.064C319.855 212.633 318.753 212.06 317.412 212.847L234.424 261.408C233.739 261.85 233.165 262.447 232.749 263.153C232.332 263.858 232.084 264.653 232.023 265.473V265.473Z" fill="black"/>
<path d="M232.023 276.279L375.397 192.367V279.628L232.023 363.54V276.279Z" fill="#263238"/>
<path opacity="0.7" d="M232.023 276.279L375.397 192.367V279.628L232.023 363.54V276.279Z" fill="white"/>
<path d="M232.023 363.54V336.691L283.641 266.203L329.399 286.412L314.348 276.279L335.258 249.429L375.397 264.715V279.628L232.023 363.54Z" fill="#FAFAFA"/>
<path d="M354.826 221.249C359.302 218.63 362.93 220.749 362.93 225.987C362.778 228.837 361.965 231.61 360.557 234.082C359.149 236.554 357.186 238.654 354.826 240.212C350.351 242.831 346.722 240.713 346.722 235.475C346.874 232.625 347.687 229.851 349.096 227.38C350.504 224.908 352.467 222.808 354.826 221.249V221.249Z" fill="#FAFAFA"/>
<path d="M580.737 251.304C586.892 249.873 593.57 254.424 597.396 264.185C601.223 273.946 608.804 299.007 610.357 305.547C611.063 308.481 588.855 334.057 589.645 333.685C589.885 333.571 582.671 320.976 582.671 320.976L593.5 304.546L587.076 286.469L580.737 251.304Z" fill="#FFB7A7"/>
<path d="M591.918 482.889C592.737 483.219 592.935 484.836 593.019 488.028C593.019 490.446 593.542 494.669 590.732 495.47C587.923 496.272 583.856 495.785 582.092 493.495C579.903 490.633 578.421 488.099 575.286 484.593C572.562 481.544 569.639 478.696 568.538 474.474C567.578 470.638 568.439 469.006 571.023 467.933C574.566 466.501 580.044 471.497 582.798 472.327C585.169 473.028 591.085 482.56 591.918 482.889Z" fill="#263238"/>
<path d="M580.976 472.398C580.356 472.129 579.688 471.99 579.014 471.99C578.339 471.99 577.671 472.129 577.051 472.398C574.397 473.186 573.592 475.118 575.639 477.293C577.687 479.469 582.557 484.235 582.557 484.235L584.887 478.195L580.976 472.398Z" fill="#FFB7A7"/>
<path d="M562.891 503.342C562.891 503.342 563.95 506.762 564.515 509.754C564.952 512.129 565.588 516.094 564.74 517.869C563.893 519.643 560.688 520.731 555.747 520.645C552.542 520.574 547.516 522.721 544.071 524.61C540.626 526.499 536.687 526.513 532.946 526.041C528.555 525.469 524.023 522.821 523.331 520.96C522.639 519.1 523.571 518.226 534.004 513.876C534.103 513.876 545.017 509.009 550.114 503.456L562.891 503.342Z" fill="#263238"/>
<path d="M534.004 513.847C532.593 514.448 531.322 514.977 530.221 515.464C529.938 516.466 530.319 518.04 534.922 518.827C541.981 520.015 560.194 507.106 560.194 507.106C560.194 507.106 559.644 505.088 559.079 503.37H550.114C545.031 508.923 534.103 513.804 534.004 513.847Z" fill="#FFB7A7"/>
<path d="M596.45 425.669C595.711 418.781 594.214 411.998 591.989 405.446C591.989 405.446 594.446 388.143 595.857 371.526C598.512 341.714 596.818 331.924 591.198 318.471C591.198 318.471 541.854 312.746 540.075 333.527C537.859 359.432 539.722 409.554 540.273 418.728C540.824 427.902 541.685 432.024 544.579 451.202C546.824 465.8 550.339 505.402 550.339 505.402C551.921 509.352 561.775 508.766 562.863 504.243C562.863 504.243 567.493 457.499 567.211 446.994C566.986 439.157 565.756 431.382 563.554 423.866C563.554 423.866 567.155 381.673 568.129 374.961C568.129 374.961 569.541 388.372 570.063 397.546C570.585 406.72 573.197 415.493 575.597 432.539C577.673 447.323 582.501 484.277 582.501 484.277C587.146 489.129 591.537 486.224 591.89 483.948C591.904 483.862 598.06 438.493 596.45 425.669Z" fill="#FFB7A7"/>
<path d="M555.93 247.268L558.006 266.646L574.807 265.344L573.169 243.833L555.93 247.268Z" fill="#FFB7A7"/>
<path d="M592.836 261.137C591.057 256.013 584.845 250.26 578.378 251.39C576.698 251.691 575.385 251.877 573.804 252.192C573.592 256.643 565.107 258.875 556.862 256.056C554.377 256.757 552.062 257.401 550.014 258.174C547.021 259.305 538.084 275.12 537.124 285.238C536.334 293.468 542.673 299.136 542.673 299.136C539.948 316.768 537.407 387.27 537.407 387.27C540.04 388.556 542.963 389.114 545.878 388.887L548.362 373.988L549.238 389.388C553.897 390.218 566.985 389.159 575.301 386.526C584.412 383.553 592.769 378.589 599.782 371.985C599.782 371.985 599.951 347.869 597.918 336.061C595.885 324.253 595.292 321.448 585.028 304.918C594.262 281.031 595.476 268.722 592.836 261.137Z" fill="#263238"/>
<g opacity="0.6">
<path opacity="0.6" d="M592.836 261.137C591.057 256.013 584.845 250.26 578.378 251.39C576.698 251.691 575.385 251.877 573.804 252.192C573.592 256.643 565.107 258.875 556.862 256.056C554.377 256.757 552.062 257.401 550.014 258.174C547.021 259.305 538.084 275.12 537.124 285.238C536.334 293.468 542.673 299.136 542.673 299.136C539.948 316.768 537.407 387.27 537.407 387.27C540.04 388.556 542.963 389.114 545.878 388.887L548.362 373.988L549.238 389.388C553.897 390.218 566.985 389.159 575.301 386.526C584.412 383.553 592.769 378.589 599.782 371.985C599.782 371.985 599.951 347.869 597.918 336.061C595.885 324.253 595.292 321.448 585.028 304.918C594.262 281.031 595.476 268.722 592.836 261.137Z" fill="black"/>
</g>
<path d="M553.417 322.436C561.888 278.483 561.239 263.756 549.661 258.317C540.64 260.908 540.555 272.458 541.063 283.478C541.063 283.478 541.6 306.378 538.24 322.579C536.418 331.353 533.637 344.048 530.305 350.731C529.707 351.915 528.703 352.836 527.481 353.322C524.206 354.639 523.246 356.556 520.648 358.503C518.573 360.02 517.02 360.206 517.147 360.836C517.366 361.542 517.839 362.138 518.472 362.506C519.105 362.875 519.851 362.989 520.563 362.825C521.925 362.578 523.246 362.139 524.488 361.523C522.924 363.851 521.047 365.947 518.911 367.749C513.857 372.128 513.109 375.248 521.439 376.866C526.648 377.882 531.406 375.434 537.449 364.442C539.746 360.446 541.76 356.29 543.478 352.005C547.53 340.827 551.638 331.61 553.417 322.436Z" fill="#FFB7A7"/>
<path d="M546.796 223.281C546.796 223.281 540.343 215.696 545.214 208.153C550.975 199.251 561.846 197.863 574.68 201.541C581.033 203.359 587.866 210.443 588.502 222.852C588.996 232.441 564.585 239.054 565.107 245.623L546.796 223.281Z" fill="#263238"/>
<path d="M543.153 226.144C543.153 226.144 539.51 231.868 540.005 232.498C540.869 233.067 541.824 233.478 542.828 233.714L543.153 226.144Z" fill="#F28F8F"/>
<path d="M554.292 207.896C550.692 209.843 544.48 213.435 543.068 226.988C541.656 240.885 544.72 245.665 546.612 247.454C547.883 248.671 554.391 249.029 557.765 247.912C562.001 246.481 571.122 241.773 575.329 234.545C580.284 226.058 581.174 214.809 575.329 210.487C566.943 204.404 557.328 206.25 554.292 207.896Z" fill="#FFB7A7"/>
<path d="M553.234 208.497C553.234 208.497 550.241 221.206 554.137 229.15C554.137 229.15 556.283 224.183 560.491 225.529C564.698 226.874 564.43 232.613 561.14 235.547C560.294 236.382 559.234 236.958 558.081 237.211C556.928 237.464 555.728 237.384 554.617 236.979C555.998 240.603 558.093 243.905 560.773 246.683C560.773 246.683 573.225 252.493 584.21 240.242C592.808 230.652 588.629 208.196 577.616 204.661C562.622 199.923 553.234 208.497 553.234 208.497Z" fill="#263238"/>
<path d="M594.826 245.15C592.844 245.744 590.733 245.729 588.76 245.106C586.787 244.484 585.04 243.282 583.741 241.653C582.441 240.024 581.648 238.041 581.46 235.954C581.273 233.868 581.7 231.772 582.687 229.932C583.675 228.092 585.179 226.59 587.009 225.616C588.839 224.642 590.912 224.241 592.967 224.462C595.022 224.683 596.967 225.517 598.554 226.858C600.142 228.2 601.301 229.988 601.886 231.997C602.669 234.69 602.366 237.589 601.042 240.055C599.718 242.522 597.483 244.354 594.826 245.15V245.15Z" fill="#263238"/>
<path d="M594.855 231.009C593.654 231.379 592.372 231.378 591.171 231.008C589.971 230.638 588.905 229.915 588.111 228.93C587.316 227.946 586.827 226.744 586.706 225.478C586.585 224.212 586.838 222.937 587.433 221.817C588.027 220.696 588.936 219.78 590.044 219.184C591.153 218.587 592.411 218.338 593.66 218.467C594.908 218.596 596.091 219.098 597.058 219.909C598.025 220.721 598.732 221.804 599.091 223.023C599.574 224.652 599.399 226.408 598.605 227.906C597.81 229.403 596.462 230.52 594.855 231.009V231.009Z" fill="#263238"/>
<path d="M586.822 248.728C585.621 249.097 584.338 249.097 583.138 248.727C581.937 248.356 580.872 247.633 580.077 246.649C579.282 245.664 578.793 244.463 578.672 243.196C578.552 241.93 578.805 240.656 579.399 239.535C579.993 238.415 580.902 237.498 582.011 236.902C583.119 236.305 584.378 236.056 585.626 236.185C586.875 236.314 588.057 236.816 589.024 237.627C589.991 238.439 590.699 239.522 591.057 240.742C591.536 242.37 591.36 244.125 590.566 245.621C589.772 247.118 588.426 248.235 586.822 248.728V248.728Z" fill="#263238"/>
<path d="M543.534 202.943C538.056 208.754 537.971 225.313 554.137 229.148L569.145 200.252C559.149 194.885 548.433 197.748 543.534 202.943Z" fill="#263238"/>
<path d="M552.57 233.714C551.785 233.422 551.145 232.829 550.787 232.063C550.43 231.298 550.382 230.42 550.656 229.619C550.93 228.819 551.503 228.159 552.251 227.782C553 227.405 553.865 227.341 554.66 227.603L552.57 233.714Z" fill="#263238"/>
<path d="M506.572 371.269C508.591 330.05 505.541 320.103 494.882 312.289L490.152 336.09C490.152 336.09 494.458 364.371 493.724 373.731C493.074 381.96 492.058 392.251 489.982 398.863C489.604 400.033 488.815 401.021 487.766 401.64C484.942 403.328 483.813 405.103 481.695 407.264C480.029 408.953 478.631 409.339 478.871 409.898C479.168 410.51 479.682 410.986 480.311 411.23C480.939 411.474 481.635 411.468 482.26 411.214C483.658 410.683 484.989 409.986 486.227 409.139C485.217 411.652 483.81 413.982 482.062 416.038C478.095 420.761 477.826 423.709 485.662 423.952C490.547 424.11 494.529 421.09 498.453 410.284C499.973 406.313 501.214 402.238 502.167 398.09C504.242 387.27 506.247 377.896 506.572 371.269Z" fill="#FFA8A7"/>
<path d="M485.832 308.954C489.173 308.425 492.594 309.011 495.579 310.625C498.563 312.238 500.95 314.791 502.378 317.899C506.741 326.243 507.532 340.426 507.743 354.51C507.743 354.51 498.552 361.952 487.822 357.945L485.832 308.954Z" fill="#263238"/>
<path d="M496.012 536.116C496.816 536.46 497 538.048 497.042 541.197C497.042 543.587 497.494 547.766 494.727 548.524C491.96 549.283 487.922 548.782 486.256 546.492C484.11 543.63 482.67 541.14 479.606 537.633C476.937 534.599 474.057 531.765 473.041 527.615C472.137 523.837 473.041 522.219 475.554 521.189C479.069 519.758 484.434 524.795 487.145 525.64C489.432 526.312 495.193 535.787 496.012 536.116Z" fill="#263238"/>
<path d="M496.068 533.254L495.983 537.132C494.528 538.024 492.861 538.495 491.161 538.495C489.462 538.495 487.794 538.024 486.34 537.132C486.17 536.76 485.45 531.579 485.45 531.579L496.068 533.254Z" fill="#FFA8A7"/>
<path d="M464.555 557.713C464.555 557.713 465.572 561.105 466.108 564.068C466.518 566.415 467.111 570.337 466.263 572.083C465.416 573.829 462.226 574.945 457.341 574.731C454.178 574.645 449.194 576.706 445.777 578.538C442.361 580.37 434.977 581.057 431.292 580.527C426.957 579.912 422.51 577.249 421.847 575.418C421.183 573.586 422.157 571.696 432.506 567.503C432.605 567.503 446.85 563.123 451.933 557.685L464.555 557.713Z" fill="#263238"/>
<path d="M464.696 553.534C464.696 553.534 464.612 556.396 464.598 558.042C464.583 559.688 462.607 562.093 457.651 561.792C454.178 561.592 451.778 560.59 452.004 557.684L452.103 553.505L464.696 553.534Z" fill="#FFA8A7"/>
<path d="M499.696 481.902C498.994 475.046 497.627 468.277 495.616 461.693C495.616 461.693 497.366 444.332 498.439 427.873C499.541 410.069 499.286 387.67 499.724 383.234C499.724 383.234 443.25 370.353 441.838 390.876C440.426 411.4 442.459 463.869 442.925 472.971C443.391 482.074 444.761 490.06 446.286 504.773C447.81 519.486 452.116 553.549 452.116 553.549C454.059 554.599 456.226 555.148 458.427 555.148C460.629 555.148 462.796 554.599 464.738 553.549C464.738 553.549 469.638 512.473 469.454 502.025C469.309 494.274 468.165 486.576 466.051 479.125C466.051 479.125 467.463 462.18 468.776 447.438C470.089 432.697 471.219 425.626 471.6 419.215L472.828 418.628C472.828 418.628 473.506 444.118 473.986 453.177C474.466 462.237 475.68 470.939 477.883 487.799C479.803 502.426 485.775 533.397 485.775 533.397C492.171 537.104 496.124 533.168 496.124 533.168C496.124 533.168 501.164 494.611 499.696 481.902Z" fill="#37474F"/>
<path d="M471.614 419.243C471.614 419.243 485.521 412.689 492.538 406.649C492.538 406.649 485.945 415.622 477.459 419.53C477.459 419.53 473.774 451.102 473.803 450.472L472.772 419.258L471.614 419.243Z" fill="#263238"/>
<path d="M461.901 301.883L464.838 320.675L481.554 319.817L479.591 297.847L461.901 301.883Z" fill="#FFA8A7"/>
<path d="M499.188 318.857C497.649 313.734 491.408 308.052 485.069 309.096L480.735 309.841C479.958 313.018 471.967 315.465 463.792 313.505C461.326 314.163 459.067 314.836 457.016 315.523C451.128 317.512 445.721 322.493 444.789 341.943C444.789 341.943 441.824 387.241 441.598 396.015C456.112 402.226 471.36 402.398 479.817 400.724C497.437 397.231 499.71 389.918 499.71 389.918C499.71 389.918 500.67 357.314 500.458 343.217C500.204 331.238 500.246 322.378 499.188 318.857Z" fill="#E6E6E6"/>
<path d="M449.547 278.826C449.547 278.826 445.171 285.567 445.665 286.226C446.159 286.884 449.392 287.485 449.392 287.485L449.547 278.826Z" fill="#F28F8F"/>
<path d="M461.732 260.192C452.88 262.082 450.31 266.032 449.477 280.315C448.602 295.229 450.112 299.909 452.047 301.927C453.345 303.272 460.602 303.516 464.259 302.499C468.833 301.226 479.182 297.504 484.025 290.005C489.672 281.174 491.225 269.209 485.126 264.243C476.5 257.401 465.318 259.419 461.732 260.192Z" fill="#FFA8A7"/>
<path d="M448.474 264.858L448.742 265.115C450.436 266.761 452.625 267.792 454.389 269.409C456.335 271.127 457.739 273.386 458.427 275.907C459.006 277.968 459.246 280.429 461.449 281.388C461.449 281.388 462.861 275.864 467.435 276.565C472.009 277.266 472.673 283.22 469.764 286.841C466.856 290.462 464.117 289.074 464.117 289.074C464.117 289.074 464.272 296.96 467.703 301.425C467.703 301.425 471.628 302.714 478.843 301.153C483.276 300.195 489.53 294.57 492.171 288.63C497.818 276.05 498.129 264.729 490.208 261.351C489.361 255.626 484.857 252.95 479.718 251.748C472.052 249.973 464.865 254.61 457.284 252.864C455.688 252.506 454.149 251.919 452.526 251.719C452.346 251.669 452.155 251.669 451.975 251.719C451.594 251.919 451.622 252.478 451.735 252.907C452.135 254.454 452.9 255.878 453.966 257.057C451.053 257.236 448.132 256.862 445.354 255.955C445.209 257.58 445.413 259.216 445.951 260.753C446.49 262.29 447.35 263.69 448.474 264.858Z" fill="#263238"/>
<path d="M490.392 263.226L495.701 260.064C495.496 259.71 495.224 259.401 494.902 259.154C494.579 258.907 494.211 258.727 493.82 258.624C493.429 258.521 493.021 258.497 492.621 258.554C492.22 258.611 491.835 258.747 491.486 258.954C491.138 259.162 490.833 259.437 490.589 259.764C490.346 260.091 490.168 260.464 490.066 260.861C489.965 261.257 489.941 261.67 489.997 262.076C490.053 262.482 490.187 262.873 490.392 263.226V263.226Z" fill="#263238"/>
<path d="M461.378 284.465L461.533 278.225C460.717 278.204 459.926 278.513 459.334 279.083C458.743 279.654 458.399 280.439 458.378 281.266C458.357 282.094 458.662 282.896 459.225 283.496C459.787 284.096 460.562 284.444 461.378 284.465Z" fill="#263238"/>
<path d="M385.675 347.61C388.4 348.898 420.166 373.845 425.207 371.14C430.247 368.435 456.832 338.422 456.832 338.422C459.077 335.057 460.318 331.109 460.408 327.048C460.498 322.987 459.433 318.986 457.34 315.523C457.34 315.523 449.025 316.882 444.535 323.423C440.045 329.964 420.802 353.35 420.802 353.35C416.227 350.907 411.672 348.426 407.135 345.907C403.394 343.832 399.638 341.757 395.981 339.538C394.968 339.028 394.019 338.393 393.158 337.649C391.365 335.774 391.746 331.352 391.859 328.947C391.882 327.818 391.962 326.691 392.099 325.57C392.282 324.138 392.621 320.832 390.15 321.849C389.681 322.068 389.274 322.402 388.964 322.822C388.567 323.318 388.256 323.879 388.047 324.482C387.553 325.913 387.666 327.53 387.214 328.99C387.165 329.207 387.057 329.405 386.903 329.563C386.796 329.652 386.671 329.718 386.538 329.758C386.405 329.797 386.265 329.809 386.127 329.792C382.569 329.606 379.307 324.468 377.74 321.748C377.178 320.451 376.262 319.344 375.1 318.557C373.18 317.598 370.865 318.857 369.453 320.603C367.872 322.912 367.183 325.729 367.518 328.518C367.758 332.287 369.327 335.842 371.938 338.536C375.971 342.335 380.618 345.404 385.675 347.61V347.61Z" fill="#FFA8A7"/>
<path d="M460.051 314.535C456.479 314.864 450.549 315.007 444.605 321.534C437.659 329.162 428.44 341.671 428.44 341.671C429.266 345.439 431.149 348.885 433.862 351.594C436.574 354.303 440.001 356.16 443.73 356.942C443.73 356.942 456.239 344.519 459.797 337.607C463.355 330.694 464.145 319.344 460.051 314.535Z" fill="#263238"/>
</svg>
