<svg width="661" height="651" viewBox="0 0 661 651" fill="none" xmlns="http://www.w3.org/2000/svg">
<path d="M330.5 651C513.03 651 661 561.61 661 451.341C661 341.073 513.03 251.683 330.5 251.683C147.97 251.683 0 341.073 0 451.341C0 561.61 147.97 651 330.5 651Z" fill="#F5F5F5"/>
<path d="M470.08 346.807L190.92 515.41C188.624 516.795 186.02 517.524 183.37 517.524C180.719 517.524 178.115 516.795 175.819 515.41L161.084 506.575C160.257 506.076 159.57 505.359 159.092 504.494C158.615 503.629 158.363 502.648 158.363 501.649C158.363 500.65 158.615 499.669 159.092 498.804C159.57 497.94 160.257 497.222 161.084 496.724L440.273 328.047C442.567 326.664 445.168 325.937 447.816 325.937C450.464 325.937 453.065 326.664 455.36 328.047L470.094 336.956C470.917 337.458 471.6 338.178 472.074 339.043C472.548 339.908 472.796 340.888 472.795 341.885C472.793 342.883 472.542 343.862 472.066 344.725C471.589 345.589 470.905 346.307 470.08 346.807V346.807Z" fill="#E0E0E0"/>
<path d="M427.297 535.937C460.446 535.937 487.32 519.706 487.32 499.684C487.32 479.661 460.446 463.43 427.297 463.43C394.147 463.43 367.273 479.661 367.273 499.684C367.273 519.706 394.147 535.937 427.297 535.937Z" fill="#E0E0E0"/>
<path d="M543.515 398.758C569.468 398.758 590.506 386.047 590.506 370.368C590.506 354.688 569.468 341.978 543.515 341.978C517.563 341.978 496.524 354.688 496.524 370.368C496.524 386.047 517.563 398.758 543.515 398.758Z" fill="#E0E0E0"/>
<path d="M117.879 576.033C143.831 576.033 164.87 563.323 164.87 547.644C164.87 531.964 143.831 519.254 117.879 519.254C91.9263 519.254 70.8877 531.964 70.8877 547.644C70.8877 563.323 91.9263 576.033 117.879 576.033Z" fill="#E0E0E0"/>
<path d="M172.54 172.476L455.753 1.41415C459.004 -0.544291 461.918 -0.39704 463.986 1.41415L473.838 8.51167L467.012 17.1406V256.056C467.012 264.817 461.932 274.978 455.655 278.777L175.313 448.116L174.792 457.437L164.462 450.074C162.407 448.455 161.141 445.259 161.141 440.886V195.182C161.183 186.421 166.263 176.26 172.54 172.476Z" fill="#263238"/>
<path opacity="0.4" d="M172.54 172.476L455.753 1.41415C459.004 -0.544291 461.918 -0.39704 463.986 1.41415L473.838 8.51167L467.012 17.1406V256.056C467.012 264.817 461.932 274.978 455.655 278.777L175.313 448.116L174.792 457.437L164.462 450.074C162.407 448.455 161.141 445.259 161.141 440.886V195.182C161.183 186.421 166.263 176.26 172.54 172.476Z" fill="white"/>
<path d="M170.823 447.777V202.118C170.944 197.151 172.256 192.295 174.637 187.996L164.518 181.929C162.43 186.013 161.287 190.552 161.183 195.182V440.842C161.183 445.259 162.449 448.41 164.504 450.03L174.018 456.848C172.048 455.199 170.823 452.062 170.823 447.777Z" fill="#263238"/>
<path opacity="0.2" d="M170.823 447.777V202.118C170.944 197.151 172.256 192.295 174.637 187.996L164.518 181.929C162.43 186.013 161.287 190.552 161.183 195.182V440.842C161.183 445.259 162.449 448.41 164.504 450.03L174.018 456.848C172.048 455.199 170.823 452.062 170.823 447.777Z" fill="white"/>
<path opacity="0.3" d="M174.679 457.334L174.835 457.438L174.679 457.334Z" fill="#263238"/>
<path d="M182.18 456.774L465.338 285.713C471.614 281.929 476.695 271.754 476.695 263.007V17.348C476.695 8.60128 471.614 4.58133 465.338 8.36568L182.18 179.412C175.904 183.212 170.823 193.372 170.823 202.119V447.777C170.823 456.539 175.904 460.574 182.18 456.774Z" fill="#263238"/>
<path d="M182.18 456.774L465.338 285.713C471.614 281.929 476.695 271.754 476.695 263.007V17.348C476.695 8.60128 471.614 4.58133 465.338 8.36568L182.18 179.412C175.904 183.212 170.823 193.372 170.823 202.119V447.777C170.823 456.539 175.904 460.574 182.18 456.774Z" fill="#263238"/>
<path opacity="0.7" d="M182.18 456.774L465.338 285.713C471.614 281.929 476.695 271.754 476.695 263.007V17.348C476.695 8.60128 471.614 4.58133 465.338 8.36568L182.18 179.412C175.904 183.212 170.823 193.372 170.823 202.119V447.777C170.823 456.539 175.904 460.574 182.18 456.774Z" fill="white"/>
<path d="M182.18 179.412L465.338 8.36568C471.614 4.58134 476.695 8.60128 476.695 17.348V29.3636L170.823 214.133V202.118C170.823 193.371 175.904 183.211 182.18 179.412Z" fill="#263238"/>
<path opacity="0.5" d="M182.18 179.412L465.338 8.36568C471.614 4.58134 476.695 8.60128 476.695 17.348V29.3636L170.823 214.133V202.118C170.823 193.371 175.904 183.211 182.18 179.412Z" fill="white"/>
<path d="M469.827 8.09935C473.303 8.09935 475.569 11.7365 475.569 17.3467V263.006C475.569 271.37 470.714 281.118 464.761 284.711L181.632 455.759C180.445 456.545 179.08 456.987 177.677 457.04C174.187 457.04 171.935 453.403 171.935 447.778V202.118C171.935 193.754 176.776 184.021 182.743 180.413L465.901 9.36572C467.09 8.58794 468.454 8.1512 469.855 8.09935H469.827ZM469.855 6.93607C468.251 7.0004 466.693 7.5085 465.338 8.40858L182.18 179.412C175.904 183.211 170.823 193.371 170.823 202.118V447.778C170.823 454.301 173.638 458.188 177.677 458.188C179.275 458.117 180.828 457.609 182.18 456.716L465.338 285.654C471.614 281.869 476.695 271.694 476.695 262.948V17.3467C476.695 10.8382 473.88 6.93607 469.855 6.93607Z" fill="#263238"/>
<path d="M196.31 390.644C195.659 390.645 195.026 390.421 194.509 390.006C193.992 389.592 193.62 389.01 193.452 388.352C193.283 387.694 193.327 386.996 193.577 386.367C193.827 385.738 194.268 385.212 194.832 384.872L279.836 333.525C280.172 333.295 280.549 333.139 280.945 333.067C281.341 332.995 281.747 333.007 282.138 333.105C282.528 333.202 282.896 333.382 283.219 333.633C283.541 333.884 283.811 334.201 284.012 334.565C284.213 334.928 284.341 335.331 284.389 335.749C284.436 336.166 284.401 336.589 284.287 336.992C284.173 337.395 283.981 337.77 283.724 338.093C283.467 338.416 283.149 338.68 282.791 338.871L197.788 390.217C197.342 390.5 196.831 390.648 196.31 390.644Z" fill="#FAFAFA"/>
<path d="M196.31 410.022C195.658 410.03 195.021 409.81 194.501 409.397C193.981 408.985 193.607 408.403 193.438 407.743C193.268 407.084 193.313 406.384 193.566 405.754C193.819 405.124 194.264 404.6 194.833 404.265L315.864 331.11C316.2 330.907 316.572 330.775 316.957 330.723C317.342 330.67 317.733 330.697 318.108 330.802C318.483 330.907 318.834 331.089 319.142 331.336C319.45 331.584 319.709 331.892 319.903 332.244C320.097 332.596 320.223 332.985 320.273 333.387C320.324 333.79 320.298 334.2 320.198 334.592C320.097 334.984 319.923 335.352 319.687 335.675C319.451 335.997 319.156 336.267 318.819 336.47L197.788 409.61C197.339 409.881 196.829 410.024 196.31 410.022V410.022Z" fill="#FAFAFA"/>
<path d="M330.768 348.191C330.115 348.198 329.478 347.978 328.958 347.566C328.438 347.153 328.064 346.571 327.895 345.911C327.726 345.252 327.771 344.552 328.023 343.923C328.276 343.293 328.721 342.769 329.29 342.433L413.041 291.839C413.377 291.609 413.754 291.453 414.15 291.38C414.546 291.308 414.952 291.321 415.343 291.418C415.733 291.515 416.101 291.695 416.423 291.946C416.746 292.197 417.016 292.514 417.217 292.878C417.418 293.242 417.546 293.645 417.594 294.062C417.641 294.48 417.606 294.903 417.492 295.306C417.378 295.709 417.186 296.083 416.929 296.406C416.672 296.729 416.354 296.994 415.996 297.184L332.231 347.778C331.786 348.048 331.282 348.19 330.768 348.191V348.191Z" fill="#FAFAFA"/>
<path d="M196.31 429.415C195.659 429.416 195.026 429.192 194.509 428.777C193.992 428.363 193.62 427.781 193.452 427.123C193.283 426.465 193.327 425.767 193.577 425.138C193.827 424.508 194.268 423.983 194.832 423.643L302.874 358.381C303.553 357.971 304.36 357.86 305.118 358.073C305.875 358.286 306.521 358.804 306.913 359.515C307.305 360.226 307.411 361.07 307.208 361.863C307.004 362.656 306.509 363.331 305.829 363.741L197.788 429.003C197.339 429.274 196.829 429.417 196.31 429.415V429.415Z" fill="#FAFAFA"/>
<path d="M196.31 229.668C195.659 229.669 195.026 229.445 194.509 229.03C193.992 228.616 193.62 228.034 193.452 227.376C193.283 226.718 193.327 226.02 193.577 225.391C193.827 224.762 194.268 224.236 194.832 223.896L279.836 172.55C280.172 172.32 280.549 172.164 280.945 172.091C281.341 172.019 281.747 172.032 282.138 172.129C282.528 172.226 282.896 172.406 283.219 172.657C283.541 172.908 283.811 173.225 284.012 173.589C284.213 173.953 284.341 174.356 284.389 174.773C284.436 175.191 284.401 175.614 284.287 176.017C284.173 176.42 283.981 176.794 283.724 177.117C283.467 177.44 283.149 177.705 282.791 177.895L197.788 229.256C197.339 229.527 196.829 229.67 196.31 229.668V229.668Z" fill="#FAFAFA"/>
<path d="M196.31 249.062C195.659 249.063 195.026 248.838 194.509 248.424C193.992 248.009 193.62 247.428 193.452 246.77C193.283 246.112 193.327 245.414 193.577 244.784C193.827 244.155 194.268 243.63 194.832 243.29L315.864 170.149C316.2 169.919 316.577 169.763 316.973 169.691C317.369 169.618 317.775 169.631 318.165 169.728C318.556 169.826 318.924 170.005 319.246 170.256C319.569 170.507 319.839 170.825 320.04 171.188C320.241 171.552 320.369 171.955 320.416 172.373C320.464 172.79 320.429 173.213 320.315 173.616C320.201 174.019 320.009 174.394 319.752 174.717C319.495 175.04 319.177 175.304 318.819 175.494L197.788 248.635C197.342 248.918 196.831 249.065 196.31 249.062Z" fill="#FAFAFA"/>
<path d="M330.767 187.23C330.116 187.231 329.483 187.007 328.966 186.592C328.449 186.178 328.078 185.596 327.909 184.938C327.741 184.28 327.785 183.582 328.034 182.953C328.284 182.323 328.725 181.798 329.29 181.458L413.04 130.862C413.377 130.632 413.754 130.476 414.15 130.403C414.546 130.331 414.951 130.344 415.342 130.441C415.733 130.538 416.101 130.718 416.423 130.969C416.746 131.22 417.016 131.537 417.217 131.901C417.418 132.265 417.546 132.668 417.593 133.085C417.641 133.503 417.606 133.926 417.492 134.329C417.378 134.732 417.186 135.106 416.929 135.429C416.672 135.752 416.354 136.017 415.996 136.207L332.231 186.803C331.79 187.083 331.283 187.231 330.767 187.23Z" fill="#FAFAFA"/>
<path d="M196.31 268.44C195.658 268.448 195.021 268.228 194.501 267.815C193.981 267.403 193.607 266.821 193.438 266.161C193.268 265.502 193.313 264.802 193.566 264.172C193.819 263.543 194.264 263.019 194.833 262.683L302.874 197.421C303.548 197.063 304.327 196.989 305.052 197.214C305.776 197.439 306.391 197.945 306.77 198.63C307.148 199.314 307.262 200.124 307.087 200.894C306.912 201.663 306.462 202.333 305.83 202.766L197.788 268.028C197.339 268.3 196.829 268.442 196.31 268.44V268.44Z" fill="#FAFAFA"/>
<path d="M194.931 186.892C194.856 188.433 194.434 189.933 193.7 191.272C192.967 192.61 191.942 193.748 190.709 194.594C188.359 196.066 186.487 194.859 186.487 192.031C186.562 190.491 186.984 188.991 187.717 187.652C188.451 186.314 189.476 185.176 190.709 184.33C193.031 182.902 194.931 184.051 194.931 186.892Z" fill="white"/>
<path d="M209.919 177.851C209.844 179.392 209.422 180.892 208.689 182.23C207.955 183.568 206.93 184.706 205.697 185.552C203.347 187.025 201.475 185.817 201.475 182.99C201.55 181.449 201.972 179.949 202.705 178.611C203.439 177.273 204.464 176.135 205.697 175.289C208.061 173.846 209.919 174.995 209.919 177.851Z" fill="white"/>
<path d="M224.949 168.78C224.874 170.321 224.452 171.821 223.719 173.159C222.985 174.497 221.96 175.635 220.727 176.481C218.377 177.953 216.505 176.746 216.505 173.919C216.58 172.378 217.002 170.878 217.736 169.54C218.469 168.202 219.494 167.064 220.727 166.218C223.007 164.79 224.949 165.938 224.949 168.78Z" fill="white"/>
<path d="M254.715 247.428L248.677 244.689V179.206L254.715 181.945V247.428Z" fill="#263238"/>
<path opacity="0.6" d="M254.715 247.428L248.677 244.689V179.206L254.715 181.945V247.428Z" fill="black"/>
<path d="M500.282 33.2796L254.715 181.945L248.677 179.206L494.23 30.5555L500.282 33.2796Z" fill="#263238"/>
<path opacity="0.4" d="M500.282 33.2796L254.715 181.945L248.677 179.206L494.23 30.5555L500.282 33.2796Z" fill="black"/>
<path d="M500.282 98.7636L254.715 247.429V181.946L500.282 33.2807V98.7636Z" fill="#263238"/>
<path opacity="0.3" d="M500.282 98.7636L254.715 247.429V181.946L500.282 33.2807V98.7636Z" fill="black"/>
<path d="M354.904 139.179L345.028 149.659L354.904 148.261V150.203L343.23 151.774V149.707L354.904 137.206V139.179ZM364.974 122.257L366.718 121.208L357.862 156.035L356.117 157.084L364.974 122.257ZM379.331 127.998V130.065L367.657 142.535V140.593L377.533 130.113L367.657 131.511V129.538L379.331 127.998Z" fill="white"/>
<path d="M565.287 200.94L570.157 207.022C570.76 212.623 571.911 218.144 573.59 223.499C576.405 232.997 575.927 237.017 575.927 237.017L586.256 236.178L582.133 202.31C581.85 200.045 581.106 197.871 579.952 195.933L577.447 191.707L565.287 200.94Z" fill="#945959"/>
<path d="M570.945 372.473C570.945 372.473 564.457 377.76 565.076 380.881C565.695 384.003 575.814 385.49 580.726 379.409C582.907 376.714 584.455 371.222 584.652 364.522C584.751 361.179 588.776 356.231 584.652 352.742C580.529 349.252 578.882 348.427 577.855 348.869C576.827 349.311 570.945 372.473 570.945 372.473Z" fill="#37474F"/>
<path d="M566.103 346.925L569.917 355.436C569.917 355.436 571.155 367.731 570.944 372.473C570.944 372.473 576.827 376.242 578.572 369.101C579.242 365.711 579.554 362.254 579.501 358.793C578.857 356.4 578.586 353.914 578.698 351.431C578.797 350.664 578.754 349.884 578.572 349.134L576.827 341.624L566.103 346.925Z" fill="#945959"/>
<path d="M513.23 360.973C513.23 360.973 510.879 362.622 509.233 363.844C507.586 365.067 500.69 371.06 510.33 372.9C512.734 373.26 515.185 373.039 517.495 372.255C519.805 371.472 521.913 370.146 523.658 368.38C528.401 363.491 531.835 365.008 533.509 363.064C535.184 361.12 533.96 350.268 531.609 350.768L513.23 360.973Z" fill="#37474F"/>
<path d="M521.251 341.86L521.997 348.884C522.057 349.482 521.965 350.087 521.73 350.636C521.04 352.182 519.042 355.555 513.286 360.944C513.286 360.944 513.187 366.378 520.477 363.757C522.467 362.783 524.354 361.593 526.107 360.208C526.958 359.576 527.66 358.75 528.161 357.793C529.029 356.058 530.171 354.49 531.539 353.154L532.299 341.83L521.251 341.86Z" fill="#945959"/>
<path d="M514.862 222.939C514.862 222.939 512.835 233.468 513.258 253.45C513.525 266.879 513.792 276.922 513.919 282.075C513.987 284.633 514.189 287.184 514.524 289.718L521.223 341.859C522.916 342.797 524.803 343.287 526.719 343.287C528.635 343.287 530.521 342.797 532.214 341.859C532.214 341.859 533.172 330.359 534.269 324.322C535.254 318.977 536.549 303.353 533.96 295.166C533.233 292.79 533.05 290.268 533.425 287.804L541.039 235.279L514.862 222.939Z" fill="#455A64"/>
<path d="M520.069 235.014C520.927 237.386 522.245 239.546 523.941 241.359C525.636 243.171 527.672 244.596 529.921 245.543L535.48 273.904L541.109 235.338L520.069 235.014Z" fill="#37474F"/>
<path d="M517.128 222.396C517.128 222.396 515.721 235.192 525.924 240.184C527.942 241.293 530.09 242.119 532.313 242.643C532.313 242.643 540.659 294.71 542.165 298.598C543.671 302.485 566.089 346.896 566.089 346.896C566.089 346.896 574.956 348.84 576.813 341.61C576.813 341.61 574.857 332.127 572.38 321.775C570.297 313.058 567.849 303.192 563.556 298.362C561.911 296.566 561.006 294.165 561.037 291.677C561.22 283.21 561.586 265.437 561.656 260.651C561.769 254.29 564.035 234.014 560.122 225.827L548.047 214.282L517.128 222.396Z" fill="#455A64"/>
<path d="M508.754 150.963L499.662 145.309C499.662 145.309 493.878 137.667 489.192 130.864C484.505 124.061 482.535 120.556 482.535 120.556C484.008 118.209 484.863 115.497 485.012 112.693C485.012 108.6 484.801 106.656 485.533 105.139C486.264 103.623 485.533 102.018 483.576 102.666C481.62 103.313 480.171 107.716 480.762 110.588L469.841 117.214C469.841 117.214 471.656 122.294 474.161 124.665C474.161 124.665 484.168 149.888 488.08 153.982C491.992 158.075 498.832 163.627 498.832 163.627L508.754 150.963Z" fill="#945959"/>
<path d="M527.43 162.567L508.754 150.963C508.754 150.963 500.113 151.597 498.903 163.583L515.242 176.394L527.43 162.567Z" fill="#263238"/>
<path opacity="0.2" d="M527.43 162.567L508.754 150.963C508.754 150.963 500.113 151.597 498.903 163.583L515.242 176.394L527.43 162.567Z" fill="black"/>
<path d="M531.047 162.566L543.516 163.214L551.664 163.641L553.071 183.8C553.071 183.8 550.918 195.448 549.272 199.541C547.625 203.635 558.433 220.466 560.193 225.856C560.193 225.856 553.283 226.827 549.778 218.493C548.19 222.487 545.483 225.884 542.014 228.236C538.545 230.589 534.476 231.787 530.343 231.672C520.407 231.672 514.862 222.94 514.862 222.94L517.128 208.214C515.748 203.711 514.986 199.026 514.862 194.299C514.862 194.299 509.233 192.134 510.513 183.417C511.794 174.699 527.402 162.61 527.402 162.61L531.047 162.566Z" fill="#263238"/>
<path d="M556.519 130.01C556.519 130.01 563.654 123.84 569.818 130.864C578.684 140.98 559.516 160.844 576.517 161.271C576.517 161.271 574.561 163.642 567.96 163.642C561.36 163.642 555.703 156.5 556.828 143.365L556.519 130.01Z" fill="#263238"/>
<path d="M554.268 129.686C554.268 129.686 556.548 128.213 557.42 129.273C558.293 130.333 559.447 138.564 556.843 143.365C555.605 145.632 553.142 142.511 553.142 142.511L554.268 129.686Z" fill="#263238"/>
<path d="M516.03 130.863C516.03 130.863 516.129 139.389 510.879 137.018C511.311 138.149 512.073 139.109 513.055 139.762C514.038 140.415 515.192 140.728 516.354 140.656C519.239 140.656 520.899 137.711 520.899 135.398L516.03 130.863Z" fill="#263238"/>
<path d="M543.594 141.955C551.152 137.273 553.651 127.067 549.176 119.16C544.701 111.252 534.947 108.637 527.389 113.319C519.832 118.001 517.333 128.207 521.808 136.115C526.283 144.022 536.037 146.637 543.594 141.955Z" fill="#263238"/>
<path d="M555.9 135.399C555.9 144.587 548.061 156.264 539.279 156.264C537.191 156.266 535.124 155.838 533.194 155.003C531.265 154.169 529.512 152.944 528.035 151.4C526.558 149.856 525.386 148.023 524.587 146.005C523.787 143.987 523.376 141.824 523.376 139.64C523.376 130.451 530.497 119.982 539.279 119.982C548.061 119.982 555.9 123.104 555.9 135.399Z" fill="#263238"/>
<path d="M531.595 125.636C531.598 127.567 531.053 129.456 530.029 131.064C529.006 132.671 527.549 133.925 525.845 134.666C524.14 135.407 522.263 135.603 520.453 135.228C518.642 134.853 516.978 133.924 515.671 132.559C514.365 131.195 513.475 129.455 513.114 127.561C512.753 125.666 512.937 123.703 513.642 121.918C514.348 120.133 515.544 118.607 517.079 117.534C518.614 116.461 520.418 115.888 522.264 115.888C524.736 115.888 527.108 116.914 528.857 118.742C530.606 120.57 531.591 123.049 531.595 125.636V125.636Z" fill="#263238"/>
<path d="M531.046 153.614V162.567C531.046 162.567 523.052 170.975 530.835 171.711C538.618 172.447 543.501 163.215 543.501 163.215V146.148L531.046 153.614Z" fill="#945959"/>
<path d="M543.374 143.454V143.984C540.56 155.455 533.368 157.958 531.046 158.532L530.961 140.774H543.022L543.374 143.454Z" fill="#703838"/>
<path d="M533.298 117.906C529.31 118.175 525.58 120.064 522.904 123.169C520.227 126.275 518.816 130.352 518.972 134.53C518.831 147.238 520.688 156.927 526.979 157.325C533.27 157.722 547.329 151.788 547.991 135.237C548.652 118.686 537.788 117.478 533.298 117.906Z" fill="#945959"/>
<path d="M527.472 139.64L527.584 147.091L523.39 145.824L527.472 139.64Z" fill="#703838"/>
<path d="M533.734 139.433C533.734 139.721 533.653 140.003 533.501 140.243C533.349 140.483 533.134 140.672 532.881 140.785C532.627 140.898 532.348 140.931 532.077 140.88C531.806 140.829 531.556 140.696 531.356 140.498C531.157 140.299 531.018 140.044 530.956 139.763C530.894 139.482 530.912 139.189 531.008 138.919C531.103 138.649 531.273 138.415 531.495 138.244C531.717 138.074 531.982 137.976 532.257 137.961C532.447 137.951 532.638 137.982 532.817 138.051C532.996 138.121 533.159 138.228 533.298 138.365C533.436 138.503 533.546 138.669 533.621 138.852C533.696 139.036 533.735 139.234 533.734 139.433V139.433Z" fill="#263238"/>
<path d="M524.165 138.521C524.165 138.812 524.082 139.096 523.927 139.339C523.773 139.581 523.553 139.769 523.296 139.881C523.039 139.992 522.756 140.022 522.483 139.965C522.21 139.908 521.959 139.768 521.762 139.562C521.565 139.356 521.431 139.093 521.377 138.808C521.323 138.522 521.35 138.226 521.457 137.957C521.564 137.688 521.744 137.458 521.975 137.296C522.207 137.134 522.479 137.048 522.757 137.048C523.13 137.048 523.488 137.203 523.752 137.479C524.016 137.755 524.165 138.13 524.165 138.521Z" fill="#263238"/>
<path d="M520.899 135.399L523.714 133.588C523.714 133.588 522.616 132.424 521.532 133.146C521.223 133.412 520.998 133.769 520.885 134.171C520.772 134.573 520.777 135.001 520.899 135.399V135.399Z" fill="#263238"/>
<path d="M526.642 149.697C528.114 148.954 529.547 148.128 530.934 147.223C530.934 147.223 531.835 149.667 529.935 150.669C529.363 150.929 528.723 150.975 528.122 150.798C527.522 150.62 526.999 150.231 526.642 149.697V149.697Z" fill="#703838"/>
<path d="M520.899 135.399L523.714 133.588C523.714 133.588 522.616 132.424 521.532 133.146C521.223 133.412 520.998 133.769 520.885 134.171C520.772 134.573 520.777 135.001 520.899 135.399V135.399Z" fill="#263238"/>
<path d="M540.884 138.741C540.884 138.741 540.602 144.086 543.544 144.086H549.314V133.897C549.314 122.471 541.025 110.529 523.391 119.967C523.391 119.967 522.532 135.222 540.884 138.741Z" fill="#263238"/>
<path d="M543.107 144.322C543.069 143.158 543.286 141.999 543.741 140.935C543.962 140.273 544.363 139.692 544.896 139.266C545.429 138.839 546.069 138.585 546.738 138.535C550.172 138.535 550.594 141.937 550.538 143.174C550.394 145.08 549.547 146.853 548.176 148.117C546.805 149.381 545.017 150.038 543.192 149.947L543.107 144.322Z" fill="#945959"/>
<path d="M550.538 163.583C550.538 163.583 542.432 172.035 552.776 185.082C563.12 198.128 565.287 200.94 565.287 200.94C565.287 200.94 575.898 202.03 577.446 191.781C577.446 191.781 564.977 173.449 561.572 168.825C558.166 164.202 555.07 163.819 550.538 163.583Z" fill="#263238"/>
<path opacity="0.2" d="M550.538 163.583C550.538 163.583 542.432 172.035 552.776 185.082C563.12 198.128 565.287 200.94 565.287 200.94C565.287 200.94 575.898 202.03 577.446 191.781C577.446 191.781 564.977 173.449 561.572 168.825C558.166 164.202 555.07 163.819 550.538 163.583Z" fill="black"/>
<path opacity="0.3" d="M526.951 195.344C526.951 195.344 539.364 198.967 543.516 186.613C543.516 186.686 541.376 202.029 526.951 195.344Z" fill="black"/>
<path d="M575.927 237.061C575.927 237.061 573.956 238.268 573.492 242.583C573.351 243.82 571.184 246.573 571.508 247.265C571.831 247.957 573.999 248.9 576.335 244.85C576.758 246.905 576.787 249.027 576.419 251.094C575.786 254.289 574.688 258.382 578.671 257.484C582.654 256.586 588.522 253.288 587.593 247.074C586.735 241.081 586.256 236.222 586.256 236.222L575.927 237.061Z" fill="#945959"/>
<path d="M341.491 317.475L335.44 314.75V249.268L341.491 251.992V317.475Z" fill="#263238"/>
<path opacity="0.6" d="M341.491 317.475L335.44 314.75V249.268L341.491 251.992V317.475Z" fill="black"/>
<path d="M482.676 166.527L341.492 251.992L335.44 249.268L476.624 163.803L482.676 166.527Z" fill="#263238"/>
<path opacity="0.4" d="M482.676 166.527L341.492 251.992L335.44 249.268L476.624 163.803L482.676 166.527Z" fill="black"/>
<path d="M482.676 232.01L341.491 317.474V251.992L482.676 166.528V232.01Z" fill="#263238"/>
<path opacity="0.3" d="M482.676 232.01L341.491 317.474V251.992L482.676 166.528V232.01Z" fill="black"/>
<path d="M355.268 250.441C353.532 251.485 351.962 251.981 350.559 251.928C349.173 251.865 348.08 251.285 347.278 250.189C346.493 249.063 346.101 247.516 346.101 245.548C346.101 243.58 346.493 241.571 347.278 239.521C348.08 237.441 349.182 235.531 350.584 233.792C351.987 232.052 353.557 230.66 355.294 229.615C356.596 228.832 357.798 228.362 358.9 228.206C360.003 228.05 360.938 228.228 361.706 228.741L360.529 230.822C359.159 230.028 357.431 230.259 355.344 231.514C353.958 232.348 352.697 233.476 351.561 234.899C350.426 236.323 349.532 237.873 348.881 239.551C348.247 241.218 347.929 242.851 347.929 244.449C347.929 246.047 348.247 247.298 348.881 248.202C349.532 249.097 350.426 249.573 351.561 249.63C352.697 249.688 353.958 249.3 355.344 248.467C357.448 247.201 359.176 245.344 360.529 242.894L361.706 243.559C360.938 244.996 359.994 246.313 358.875 247.512C357.773 248.681 356.571 249.658 355.268 250.441Z" fill="white"/>
<path d="M416.829 209.866L414.143 211.496V214.571L413.233 215.123V212.048L410.547 213.678V212.681L413.233 211.051V207.96L414.143 207.407V210.499L416.829 208.869V209.866ZM425.165 204.807L422.479 206.437V209.512L421.569 210.064V206.989L418.882 208.62V207.623L421.569 205.993V202.901L422.479 202.349V205.44L425.165 203.81V204.807Z" fill="white"/>
<path d="M464.381 497.533C464.381 497.533 470.123 494.176 470.84 490.436C471.558 486.696 465.211 478.081 465.211 478.081C465.211 478.081 460.553 480.864 464.381 497.533Z" fill="#263238"/>
<path opacity="0.2" d="M464.381 497.533C464.381 497.533 470.123 494.176 470.84 490.436C471.558 486.696 465.211 478.081 465.211 478.081C465.211 478.081 460.553 480.864 464.381 497.533Z" fill="black"/>
<path d="M394.084 509.121L402.458 503.953L403.555 495.177L400.67 494.47L394.084 509.121Z" fill="#263238"/>
<path opacity="0.3" d="M394.084 509.121L402.458 503.953L403.555 495.177L400.67 494.47L394.084 509.121Z" fill="black"/>
<path d="M443.678 458.674L451.503 471.75L456.724 489.862C456.724 489.862 466.365 488.61 460.299 465.359L455.753 451.341L443.678 458.674Z" fill="#FFA8A7"/>
<path d="M392.423 463.518L394.069 484.354L388.313 500.331C388.313 500.331 391.198 507.797 400.262 491.996C405.075 483.603 405.23 481.939 405.23 481.939L407.129 463.532L392.423 463.518Z" fill="#FFA8A7"/>
<path d="M399.896 260.547L396.954 266.642C396.911 266.731 396.886 266.828 396.882 266.928C396.878 267.028 396.895 267.127 396.931 267.219C396.967 267.312 397.022 267.395 397.091 267.463C397.161 267.531 397.244 267.582 397.334 267.614L400.825 268.821L399.896 260.547Z" fill="#F28F8F"/>
<path d="M403.977 250.328C403.977 250.328 399.459 252.846 399.459 267.276C399.459 275.213 399.98 280.278 403.921 279.969C407.861 279.66 419.204 278.099 419.204 278.099V250.328H403.977Z" fill="#FFA8A7"/>
<path d="M403.978 279.97C405.385 279.852 407.665 279.587 410.057 279.292V277.819C407.895 278.797 405.634 279.514 403.316 279.955C403.536 279.982 403.757 279.987 403.978 279.97V279.97Z" fill="#F28F8F"/>
<path d="M409.381 277.201V286.272H421.231V273.534L409.381 277.201Z" fill="#FFA8A7"/>
<path d="M429.661 309.022L437.359 325.558L431.589 333.465L435.572 347.587L447.942 332.317C449.018 330.993 449.731 329.389 450.006 327.676C450.281 325.962 450.107 324.203 449.504 322.584C446.099 313.425 439.329 295.401 437.5 292.206C435.023 287.891 432.067 285.594 427.648 285.741C423.229 285.889 429.661 309.022 429.661 309.022Z" fill="#FFA8A7"/>
<path d="M433.377 336.19C435.164 341.8 439.006 349.693 438.894 376.213C438.781 394.751 438.894 405.191 439.063 409.786C439.092 411.43 439.704 413.004 440.779 414.203C442.665 416.235 445.874 420.609 448.9 428.928C451.592 436.255 453.881 443.738 455.754 451.34C455.754 451.34 453.558 458.82 443.665 458.702L418.923 417.104C417.935 415.432 417.297 413.56 417.052 411.612L410.55 359.942V338.782L433.377 336.19Z" fill="#263238"/>
<path opacity="0.6" d="M433.377 336.19C435.164 341.8 439.006 349.693 438.894 376.213C438.781 394.751 438.894 405.191 439.063 409.786C439.092 411.43 439.704 413.004 440.779 414.203C442.665 416.235 445.874 420.609 448.9 428.928C451.592 436.255 453.881 443.738 455.754 451.34C455.754 451.34 453.558 458.82 443.665 458.702L418.923 417.104C417.935 415.432 417.297 413.56 417.052 411.612L410.55 359.942V338.782L433.377 336.19Z" fill="black"/>
<path d="M415.785 401.349L422.653 375.58C422.653 375.58 432.307 365.273 428.873 347.603L414.279 366.834L415.011 396.166L415.785 401.349Z" fill="#263238"/>
<path opacity="0.7" d="M415.785 401.349L422.653 375.58C422.653 375.58 432.307 365.273 428.873 347.603L414.279 366.834L415.011 396.166L415.785 401.349Z" fill="black"/>
<path d="M393.112 337.633C392.704 345.968 388.384 397.859 389.003 412.953C389.622 428.046 392.423 463.519 392.423 463.519C392.423 463.519 401.754 467.554 407.115 463.519C407.115 463.519 409.381 449.53 410.859 438.486C411.762 432.771 411.575 426.926 410.31 421.287C409.796 419.216 409.796 417.041 410.31 414.97L420.837 372.694C420.837 372.694 429.928 366.023 429.928 347.573V333.731L393.112 337.633Z" fill="#263238"/>
<path opacity="0.6" d="M393.112 337.633C392.704 345.968 388.384 397.859 389.003 412.953C389.622 428.046 392.423 463.519 392.423 463.519C392.423 463.519 401.754 467.554 407.115 463.519C407.115 463.519 409.381 449.53 410.859 438.486C411.762 432.771 411.575 426.926 410.31 421.287C409.796 419.216 409.796 417.041 410.31 414.97L420.837 372.694C420.837 372.694 429.928 366.023 429.928 347.573V333.731L393.112 337.633Z" fill="black"/>
<path d="M418.403 279.896L399.46 287.171C399.46 287.171 390.594 295.225 390.594 310.613C390.594 314.927 394.576 318.8 394.576 318.8C394.576 318.8 393.169 332.318 393.056 337.633C393.056 337.633 402.739 344.746 420.795 341.948C425.316 340.99 429.588 339.026 433.32 336.19C433.32 336.19 430.506 324.263 430.154 323.114C429.802 321.966 434.01 308.021 434.01 296.948L418.403 279.896Z" fill="#455A64"/>
<path d="M401.669 253.552C401.669 253.552 402.429 260.517 406.693 262.387C406.693 262.387 403.316 267.232 408.326 269.352V265.612L410.423 269.897C410.423 269.897 404.526 294.93 414.757 294.93C416.538 294.96 418.27 294.323 419.641 293.133C419.641 293.133 421.217 299.671 430.688 299.671C440.16 299.671 441.947 289.967 441.947 289.967C441.947 289.967 435.628 291.97 435.628 285.079C435.628 278.187 435.15 256.041 434.798 252.683C434.161 249.15 432.444 245.928 429.906 243.503C427.368 241.079 424.146 239.582 420.724 239.239C413.336 238.312 403.752 238.371 398.207 246.352C392.662 254.333 400.571 256.571 400.571 256.571C400.571 256.571 400.754 256.291 401.669 253.552Z" fill="#263238"/>
<path d="M408.326 265.642C408.326 265.642 408.017 259.546 412.548 260.017C417.727 260.547 416.081 270.324 409.734 270.324L408.326 265.642Z" fill="#FFA8A7"/>
<path d="M437.191 247.059C435.994 245.101 434.368 243.471 432.448 242.303C431.827 242 431.155 241.83 430.47 241.802C429.786 241.774 429.103 241.888 428.461 242.139C427.819 242.39 427.231 242.772 426.732 243.263C426.233 243.753 425.832 244.343 425.552 244.998C425.019 246.151 424.734 247.413 424.717 248.694C424.701 249.975 424.953 251.245 425.456 252.413C425.959 253.581 426.701 254.62 427.63 255.455C428.558 256.291 429.651 256.903 430.83 257.249C431.291 257.381 431.762 257.474 432.237 257.529C433.556 257.654 434.874 257.276 435.947 256.464C437.021 255.652 437.777 254.461 438.078 253.111C438.262 252.416 438.362 251.698 438.373 250.976C438.386 249.572 437.972 248.2 437.191 247.059V247.059Z" fill="#263238"/>
<path d="M441.061 248.531C441.058 250.068 440.62 251.57 439.802 252.846C438.984 254.123 437.822 255.117 436.464 255.704C435.106 256.29 433.612 256.442 432.172 256.14C430.731 255.838 429.409 255.097 428.371 254.009C427.333 252.921 426.627 251.535 426.341 250.028C426.056 248.52 426.204 246.957 426.766 245.537C427.329 244.118 428.282 242.904 429.503 242.051C430.725 241.197 432.161 240.741 433.63 240.741C434.607 240.741 435.575 240.943 436.477 241.334C437.38 241.726 438.199 242.3 438.89 243.024C439.58 243.747 440.127 244.606 440.499 245.551C440.872 246.496 441.063 247.509 441.061 248.531V248.531Z" fill="#263238"/>
<path d="M399.46 287.171C399.46 287.171 405.835 288.187 405.835 297.095C405.835 306.004 390.171 310.038 382.754 312.91C378.532 314.574 372.805 316.9 368.794 318.579C367.25 319.221 365.567 319.404 363.93 319.108C362.293 318.812 360.767 318.048 359.519 316.9C351.706 309.752 344.631 301.767 338.409 293.075C338.409 293.075 329.458 289.762 329.726 280.559C329.993 271.356 335.355 268.779 335.355 268.779V271.842C335.355 272.843 335.574 273.832 335.996 274.73C336.418 275.629 337.032 276.414 337.79 277.025L339.577 278.498C339.775 278.657 340.005 278.766 340.25 278.815C340.494 278.864 340.747 278.853 340.987 278.781C341.226 278.709 341.446 278.58 341.629 278.403C341.812 278.226 341.953 278.006 342.04 277.762C342.659 275.995 343.743 273.697 345.361 272.932C348.106 271.636 347.149 277.217 346.459 279.882C346.049 281.409 345.864 282.993 345.91 284.579L365.965 303.118C365.965 303.118 387.976 290.999 399.46 287.171Z" fill="#FFA8A7"/>
<path d="M405.23 481.969C403.797 482.22 402.439 482.818 401.266 483.715C400.093 484.613 399.137 485.785 398.474 487.138C396.279 491.732 392.155 504.675 388.313 500.39L389.622 496.782C389.622 496.782 374.24 500.302 377.913 504.513C381.586 508.724 393.112 510.594 394.084 509.151C395.055 507.708 400.262 497.371 400.262 497.371L403.147 511.169C403.567 511.55 404.104 511.76 404.66 511.76C405.216 511.76 405.753 511.55 406.173 511.169C406.173 511.169 409.93 484.693 405.23 481.969Z" fill="#263238"/>
<path d="M456.724 489.861C457.831 489.274 458.725 488.325 459.271 487.159C459.817 485.993 459.985 484.672 459.75 483.397C459.201 478.508 455.641 468.775 460.299 465.359C462.368 463.887 466.956 470.454 470.84 478.361C474.724 486.268 475.822 488.565 475.822 488.565C475.822 488.565 475.4 490.686 473.626 490.583L465.112 481.38C464.563 484.19 464.655 487.095 465.379 489.861C466.618 494.176 466.787 496.679 462.297 498.77C457.808 500.861 445.522 503.717 452.094 495.044C453.393 493.094 454.952 491.349 456.724 489.861V489.861Z" fill="#263238"/>
<path d="M126.816 513.687L127.913 525.57C127.913 525.57 129.138 528.015 134.781 528.015C140.425 528.015 139.172 522.979 139.172 522.979L139.721 513.687H126.816Z" fill="#FFA8A7"/>
<path d="M143.746 393.397C143.746 399.567 143.197 459.793 143.155 463.828C143.162 463.97 143.162 464.113 143.155 464.255C142.93 467.612 140.143 508.902 139.735 513.687C139.735 513.687 133.008 519.047 126.83 513.687C126.83 513.687 125.169 499.124 124.62 494.81C124.072 490.495 122.003 471.249 124.62 464.903L117.893 428.399V399.081L143.746 393.397Z" fill="#37474F"/>
<path d="M136.118 402.645C136.118 402.645 134.711 411.863 124.606 416.899L120.173 440.827L117.879 429.651V403.528L136.118 402.645Z" fill="#263238"/>
<path d="M83.6666 522.979L82.5688 531.815C82.5688 531.815 85.5102 539.84 94.489 535.967L96.1356 526.778L83.6666 522.979Z" fill="#FFA8A7"/>
<path d="M96.1355 394.472C95.5163 401.364 93.7008 418.901 93.0112 441.593C92.3217 464.285 92.3217 464.152 92.3217 464.152C89.8519 469.713 88.1689 475.621 87.3256 481.69C86.4671 490.201 83.6665 522.92 83.6665 522.92C85.2297 524.662 87.2137 525.929 89.4087 526.587C91.6037 527.246 93.9279 527.271 96.1355 526.661L112.714 472.177C113.161 470.693 113.504 469.178 113.741 467.642L121.862 414.086C121.862 414.086 136.02 412.084 139.172 392.956L96.1355 394.472Z" fill="#37474F"/>
<path d="M148.277 352.094L164.237 365.464V346.056L158.579 340.019L148.277 352.094Z" fill="#F28F8F"/>
<path d="M132.712 321.804C136.497 321.51 140.25 322.702 143.239 325.147C148.179 329.24 158.579 340.019 158.579 340.019C158.198 342.873 157.016 345.544 155.181 347.694C153.347 349.843 150.945 351.375 148.278 352.094L138.074 344.451L132.712 321.804Z" fill="#263238"/>
<path opacity="0.2" d="M132.712 321.804C136.497 321.51 140.25 322.702 143.239 325.147C148.179 329.24 158.579 340.019 158.579 340.019C158.198 342.873 157.016 345.544 155.181 347.694C153.347 349.843 150.945 351.375 148.278 352.094L138.074 344.451L132.712 321.804Z" fill="white"/>
<path d="M111.996 321.907C111.996 321.907 101.497 323.011 96.7546 324.086L95.0095 343.906C95.0095 343.906 98.6968 365.994 98.6968 369.101C98.6968 372.208 96.1354 394.473 96.1354 394.473C96.1354 394.473 103.383 399.436 124.479 399.436C131.294 399.21 137.934 397.129 143.746 393.398V349.355C143.746 340.785 140.551 327.267 132.712 321.804H126.267L111.996 321.907Z" fill="#263238"/>
<path opacity="0.2" d="M111.996 321.907C111.996 321.907 101.497 323.011 96.7546 324.086L95.0095 343.906C95.0095 343.906 98.6968 365.994 98.6968 369.101C98.6968 372.208 96.1354 394.473 96.1354 394.473C96.1354 394.473 103.383 399.436 124.479 399.436C131.294 399.21 137.934 397.129 143.746 393.398V349.355C143.746 340.785 140.551 327.267 132.712 321.804H126.267L111.996 321.907Z" fill="black"/>
<path d="M170.274 382.398L164.237 379.674V314.192L170.274 316.916V382.398Z" fill="#263238"/>
<path opacity="0.6" d="M170.274 382.398L164.237 379.674V314.192L170.274 316.916V382.398Z" fill="black"/>
<path d="M311.459 231.45L170.274 316.915L164.237 314.191L305.407 228.726L311.459 231.45Z" fill="#263238"/>
<path opacity="0.4" d="M311.459 231.45L170.274 316.915L164.237 314.191L305.407 228.726L311.459 231.45Z" fill="black"/>
<path d="M311.459 296.933L170.274 382.398V316.915L311.459 231.45V296.933Z" fill="#263238"/>
<path opacity="0.3" d="M311.459 296.933L170.274 382.398V316.915L311.459 231.45V296.933Z" fill="black"/>
<path d="M202.789 325.155C201.303 326.048 199.961 326.472 198.761 326.427C197.575 326.373 196.64 325.877 195.954 324.94C195.283 323.977 194.947 322.654 194.947 320.97C194.947 319.287 195.283 317.568 195.954 315.815C196.64 314.036 197.583 312.402 198.782 310.914C199.982 309.426 201.325 308.235 202.81 307.342C203.924 306.672 204.953 306.27 205.895 306.137C206.838 306.003 207.638 306.156 208.295 306.594L207.288 308.374C206.117 307.695 204.638 307.893 202.853 308.966C201.668 309.679 200.589 310.644 199.618 311.862C198.647 313.079 197.883 314.405 197.325 315.84C196.783 317.267 196.511 318.663 196.511 320.03C196.511 321.396 196.783 322.467 197.325 323.24C197.883 324.005 198.647 324.412 199.618 324.462C200.589 324.511 201.668 324.179 202.853 323.466C204.653 322.384 206.131 320.795 207.288 318.699L208.295 319.269C207.638 320.497 206.831 321.624 205.874 322.65C204.931 323.65 203.903 324.485 202.789 325.155ZM215.726 317.375C214.612 318.045 213.541 318.481 212.512 318.683C211.498 318.876 210.713 318.798 210.156 318.45L210.777 316.651C211.32 316.958 212.041 317.041 212.941 316.9C213.841 316.742 214.769 316.376 215.726 315.8C217.069 314.993 218.076 314.104 218.747 313.134C219.418 312.147 219.754 311.195 219.754 310.278C219.754 309.578 219.568 309.132 219.197 308.938C218.84 308.736 218.397 308.686 217.868 308.787C217.34 308.872 216.604 309.064 215.662 309.364C214.533 309.709 213.634 309.934 212.962 310.037C212.291 310.124 211.712 309.997 211.227 309.656C210.755 309.306 210.52 308.589 210.52 307.506C210.52 306.623 210.72 305.702 211.12 304.745C211.52 303.772 212.134 302.819 212.962 301.887C213.791 300.956 214.819 300.121 216.047 299.382C216.904 298.867 217.74 298.506 218.554 298.3C219.382 298.068 220.097 298.014 220.697 298.136L220.161 299.934C219.532 299.828 218.861 299.873 218.147 300.07C217.433 300.249 216.733 300.545 216.047 300.957C214.733 301.747 213.741 302.644 213.069 303.648C212.412 304.626 212.084 305.582 212.084 306.516C212.084 307.216 212.262 307.675 212.619 307.893C212.991 308.087 213.448 308.137 213.991 308.044C214.548 307.926 215.29 307.721 216.219 307.429C217.319 307.084 218.204 306.869 218.875 306.782C219.561 306.669 220.14 306.788 220.611 307.138C221.082 307.471 221.318 308.171 221.318 309.238C221.318 310.121 221.111 311.054 220.697 312.036C220.297 312.994 219.675 313.942 218.833 314.882C217.99 315.806 216.954 316.637 215.726 317.375ZM228.907 309.449C227.793 310.119 226.722 310.555 225.694 310.757C224.679 310.95 223.894 310.872 223.337 310.524L223.958 308.725C224.501 309.032 225.222 309.115 226.122 308.974C227.022 308.816 227.95 308.45 228.907 307.874C230.25 307.067 231.257 306.178 231.928 305.208C232.599 304.221 232.935 303.269 232.935 302.352C232.935 301.652 232.749 301.205 232.378 301.012C232.021 300.81 231.578 300.76 231.05 300.861C230.521 300.945 229.786 301.138 228.843 301.438C227.715 301.783 226.815 302.007 226.143 302.111C225.472 302.198 224.894 302.071 224.408 301.73C223.937 301.38 223.701 300.663 223.701 299.58C223.701 298.696 223.901 297.776 224.301 296.819C224.701 295.845 225.315 294.893 226.143 293.961C226.972 293.03 228 292.195 229.229 291.456C230.086 290.941 230.921 290.58 231.735 290.374C232.564 290.142 233.278 290.088 233.878 290.21L233.342 292.007C232.714 291.902 232.042 291.947 231.328 292.143C230.614 292.323 229.914 292.619 229.229 293.031C227.915 293.821 226.922 294.718 226.251 295.722C225.594 296.7 225.265 297.656 225.265 298.589C225.265 299.289 225.444 299.749 225.801 299.967C226.172 300.161 226.629 300.211 227.172 300.118C227.729 299.999 228.472 299.794 229.4 299.503C230.5 299.158 231.385 298.942 232.057 298.855C232.742 298.743 233.321 298.862 233.792 299.212C234.263 299.545 234.499 300.245 234.499 301.312C234.499 302.195 234.292 303.128 233.878 304.11C233.478 305.067 232.857 306.016 232.014 306.956C231.171 307.879 230.136 308.711 228.907 309.449Z" fill="white"/>
<path d="M139.102 280.133C139.102 280.133 147.307 287.671 140.171 304.472L131.826 281.767L139.102 280.133Z" fill="#263238"/>
<path d="M111.996 321.907C111.996 321.907 114.811 329.785 122.65 329.785C130.489 329.785 126.267 321.804 126.267 321.804L111.996 321.907Z" fill="#FFA8A7"/>
<path d="M111.996 321.907L126.267 321.804V298.965H111.996V321.907Z" fill="#FFA8A7"/>
<path d="M126.267 320.891C121.003 318.756 114.318 315.222 114.318 311.85L112.587 300.497H126.267V320.891Z" fill="#F28F8F"/>
<path d="M122.988 275.478C128.026 275.478 138.722 278.424 139.96 292.206C141.199 305.989 139.271 317.711 133.205 317.711C121.299 317.711 109.871 316.121 109.773 295.741C109.688 277.761 118.076 275.478 122.988 275.478Z" fill="#FFA8A7"/>
<path d="M112.011 307.815L113.939 301.542C114.084 301.671 114.261 301.754 114.45 301.782C114.639 301.809 114.832 301.779 115.005 301.695C115.178 301.611 115.325 301.478 115.427 301.31C115.53 301.142 115.585 300.947 115.585 300.747V289.63C115.585 289.63 120.539 288.157 120.018 283.813C120.018 283.813 122.552 286.184 132.262 286.184C141.973 286.184 144.337 277.57 143.366 272.77C143.366 272.77 141.565 274.713 136.428 274.713C131.291 274.713 109.914 267.969 109.365 281.487C109.365 281.487 107.549 278.719 104.636 281.487L108.394 283.872C108.394 283.872 103.947 283.725 104.636 290.543C105.185 295.932 107.324 306.136 108.211 310.215C108.462 311.344 109.11 312.332 110.026 312.983L112.011 314.382V307.815Z" fill="#263238"/>
<path d="M130.559 296.344V304.472L135.105 303L130.559 296.344Z" fill="#F28F8F"/>
<path d="M122.481 297.743C122.478 298.073 122.569 298.397 122.743 298.673C122.917 298.949 123.165 299.164 123.456 299.292C123.747 299.42 124.068 299.454 124.378 299.39C124.688 299.327 124.972 299.168 125.196 298.934C125.419 298.7 125.571 298.403 125.632 298.078C125.693 297.754 125.66 297.418 125.538 297.114C125.416 296.809 125.21 296.549 124.946 296.367C124.682 296.186 124.373 296.09 124.057 296.093C123.85 296.093 123.645 296.136 123.454 296.219C123.263 296.301 123.089 296.423 122.943 296.576C122.796 296.729 122.68 296.911 122.601 297.111C122.522 297.311 122.481 297.526 122.481 297.743Z" fill="#263238"/>
<path d="M134.317 296.595C134.317 296.924 134.41 297.246 134.585 297.519C134.76 297.793 135.008 298.006 135.299 298.132C135.589 298.258 135.909 298.291 136.217 298.227C136.526 298.163 136.809 298.004 137.032 297.771C137.254 297.539 137.406 297.242 137.467 296.919C137.528 296.597 137.497 296.262 137.376 295.958C137.256 295.654 137.052 295.394 136.791 295.211C136.529 295.028 136.222 294.93 135.907 294.93C135.485 294.93 135.081 295.106 134.783 295.418C134.484 295.73 134.317 296.153 134.317 296.595Z" fill="#263238"/>
<path d="M137.835 293.134L134.739 291.22C134.739 291.22 135.921 289.924 137.103 290.705C137.445 290.985 137.698 291.367 137.829 291.801C137.96 292.235 137.962 292.7 137.835 293.134V293.134Z" fill="#263238"/>
<path d="M120.806 294.34L123.888 292.412C123.888 292.412 122.706 291.117 121.524 291.897C121.183 292.182 120.933 292.567 120.805 293.003C120.677 293.439 120.677 293.905 120.806 294.34Z" fill="#263238"/>
<path d="M132.698 307.757C131.203 307.866 129.716 307.446 128.476 306.564C128.476 306.564 128.181 308.92 130.067 309.361C130.614 309.447 131.174 309.335 131.652 309.043C132.13 308.751 132.5 308.297 132.698 307.757V307.757Z" fill="#F28F8F"/>
<path d="M113.179 299.26C114.966 302.515 114.501 306.461 112.01 307.816C110.392 308.685 105.649 306.815 103.862 303.56C102.075 300.306 103.074 297.522 105.509 296.05C107.943 294.577 111.377 296.006 113.179 299.26Z" fill="#FFA8A7"/>
<path d="M114.08 301.674L108.605 295.461L112.546 292.987L114.08 301.674Z" fill="#253239"/>
<path d="M122.214 347.794L129.743 356.526C129.743 356.526 135.893 355.613 143.028 355.23C148.69 354.61 154.305 353.582 159.832 352.153C159.832 352.153 161.239 345.85 164.251 343.318V348.251C164.251 348.251 168.29 349.723 170.288 347.632C173.736 344.083 176.818 340.814 176.818 348.251C176.818 358.632 172.596 362.843 161.197 362.622C161.197 362.622 132.417 375.242 125.521 373.828C121.299 372.989 109.702 361.547 109.702 361.547L122.214 347.794Z" fill="#FFA8A7"/>
<path d="M91.2523 326.958C96.0935 321.805 101.624 324.205 106.48 329.285C111.335 334.365 122.214 347.794 122.214 347.794C122.214 347.794 121.116 358.263 109.702 361.591C109.702 361.591 94.3062 344.82 92.3359 342.537C88.7613 338.355 86.6643 331.876 91.2523 326.958Z" fill="#263238"/>
<path opacity="0.2" d="M91.2523 326.958C96.0935 321.805 101.624 324.205 106.48 329.285C111.335 334.365 122.214 347.794 122.214 347.794C122.214 347.794 121.116 358.263 109.702 361.591C109.702 361.591 94.3062 344.82 92.3359 342.537C88.7613 338.355 86.6643 331.876 91.2523 326.958Z" fill="white"/>
<path d="M193.369 368.452C193.492 366.783 193.94 365.158 194.686 363.677C195.431 362.196 196.458 360.89 197.704 359.839C204.191 354.656 203.924 359.839 204.079 361.974C204.234 364.109 198.069 371.692 191.314 369.689L193.369 368.452Z" fill="#FFA8A7"/>
<path d="M82.5688 531.755C82.9148 532.561 83.3909 533.298 83.9762 533.935C84.1164 534.058 84.2862 534.14 84.4673 534.171C84.6485 534.202 84.8343 534.18 85.0048 534.109C85.1753 534.038 85.3242 533.92 85.4355 533.767C85.5468 533.615 85.6164 533.433 85.6368 533.242C85.6536 532.755 85.7924 532.281 86.0394 531.868C86.2864 531.454 86.6329 531.116 87.0442 530.886C88.0152 530.459 95.7697 530.312 95.84 531.961C95.8435 533.208 95.7209 534.452 95.4741 535.672C95.4741 535.672 96.7267 546.834 99.1051 551.251C101.483 555.669 105.368 562.811 97.1911 564.902C89.0144 566.993 82.8362 562.457 82.5547 556.42C82.2733 550.383 82.414 546.112 81.8651 545.067C81.3163 544.021 78.4312 543.476 79.529 537.954C80.6267 532.433 80.7956 529.119 82.9066 528.943L82.5688 531.755Z" fill="#455A64"/>
<path d="M88.1418 542.004C88.023 542.008 87.9052 541.98 87.7994 541.923C87.6936 541.867 87.6032 541.783 87.5367 541.68C87.4253 541.513 87.3807 541.307 87.4122 541.106C87.4438 540.906 87.549 540.726 87.7056 540.605C88.9986 539.755 90.4744 539.257 91.9985 539.157C93.5226 539.056 95.0464 539.357 96.4311 540.031C96.5235 540.071 96.6073 540.131 96.6778 540.205C96.7484 540.28 96.8042 540.368 96.8421 540.465C96.88 540.562 96.8992 540.666 96.8987 540.771C96.8982 540.876 96.878 540.979 96.8392 541.076C96.8004 541.173 96.7438 541.26 96.6725 541.334C96.6013 541.408 96.5169 541.466 96.4241 541.506C96.3313 541.546 96.232 541.566 96.1318 541.565C96.0315 541.565 95.9324 541.544 95.84 541.503C94.6848 540.943 93.4154 540.688 92.1439 540.763C90.8725 540.837 89.6382 541.238 88.55 541.93C88.4235 541.995 88.2818 542.021 88.1418 542.004V542.004Z" fill="#EBEBEB"/>
<path d="M89.3525 547.452C89.2345 547.451 89.1184 547.421 89.0134 547.365C88.9083 547.309 88.8172 547.228 88.7473 547.128C88.6374 546.96 88.595 546.753 88.6292 546.552C88.6634 546.351 88.7715 546.172 88.9303 546.053C90.2216 545.2 91.6969 544.698 93.2213 544.595C94.7456 544.492 96.2703 544.791 97.6558 545.464C97.8345 545.551 97.9739 545.707 98.0448 545.899C98.1157 546.092 98.1125 546.305 98.0358 546.495C97.9531 546.682 97.8031 546.827 97.6186 546.899C97.434 546.971 97.2299 546.963 97.0506 546.878C95.8985 546.315 94.631 546.059 93.3613 546.134C92.0916 546.208 90.8594 546.611 89.7747 547.305C89.6544 547.404 89.5052 547.456 89.3525 547.452V547.452Z" fill="#EBEBEB"/>
<path d="M91.2519 552.827C91.1333 552.829 91.0159 552.801 90.9103 552.744C90.8047 552.688 90.7142 552.605 90.6467 552.503C90.5368 552.334 90.4944 552.127 90.5286 551.927C90.5628 551.726 90.6709 551.547 90.8297 551.428C92.1227 550.579 93.5985 550.081 95.1226 549.981C96.6467 549.88 98.1706 550.181 99.5552 550.854C99.6444 550.894 99.7251 550.952 99.7926 551.025C99.8601 551.098 99.9131 551.184 99.9485 551.279C99.9838 551.373 100.001 551.474 99.9986 551.576C99.9963 551.677 99.9747 551.777 99.9352 551.87C99.8523 552.053 99.7056 552.196 99.5251 552.27C99.3446 552.344 99.1439 552.343 98.9641 552.267C97.8086 551.708 96.5394 551.455 95.2682 551.529C93.997 551.604 92.7627 552.004 91.6741 552.694C91.5493 552.782 91.4022 552.828 91.2519 552.827V552.827Z" fill="#EBEBEB"/>
<path d="M127.913 525.57C129.37 526.594 131.099 527.109 132.853 527.042C132.853 527.042 132.023 523.641 134.429 522.492C136.836 521.344 140.678 519.827 141.466 521.196C142.022 522.763 142.326 524.415 142.367 526.085C142.367 526.085 148.095 531.519 152.345 533.05C156.595 534.581 162.196 536.142 161.661 540.251C161.127 544.359 154.793 550.308 146.181 546.214C137.568 542.121 136.02 541.974 133.261 541.532C130.503 541.09 125.366 541.326 125.577 536.51C125.788 531.695 125.394 523.729 127.688 523.081L127.913 525.57Z" fill="#455A64"/>
<path d="M137.779 532.933C137.695 532.947 137.61 532.947 137.526 532.933C137.342 532.863 137.192 532.721 137.108 532.536C137.024 532.352 137.012 532.14 137.075 531.947C137.64 530.565 138.55 529.367 139.708 528.479C140.867 527.591 142.232 527.044 143.662 526.896C143.823 526.919 143.972 526.997 144.086 527.117C144.2 527.238 144.272 527.395 144.292 527.564C144.311 527.733 144.276 527.903 144.193 528.049C144.109 528.195 143.982 528.307 143.831 528.369C142.674 528.486 141.568 528.923 140.626 529.634C139.684 530.346 138.939 531.306 138.469 532.418C138.416 532.566 138.322 532.694 138.199 532.785C138.076 532.877 137.93 532.929 137.779 532.933Z" fill="#EBEBEB"/>
<path d="M142.17 535.966H141.931C141.839 535.935 141.755 535.884 141.682 535.818C141.609 535.752 141.55 535.671 141.508 535.58C141.466 535.49 141.442 535.391 141.437 535.29C141.433 535.19 141.447 535.089 141.48 534.994C141.996 533.615 142.865 532.41 143.992 531.514C145.12 530.618 146.461 530.064 147.87 529.914C148.031 529.934 148.182 530.01 148.298 530.13C148.414 530.25 148.488 530.407 148.509 530.576C148.53 530.745 148.497 530.916 148.414 531.063C148.331 531.21 148.204 531.324 148.053 531.386C146.923 531.513 145.847 531.954 144.936 532.663C144.025 533.373 143.313 534.325 142.874 535.421C142.826 535.578 142.733 535.715 142.606 535.813C142.48 535.911 142.327 535.965 142.17 535.966V535.966Z" fill="#EBEBEB"/>
<path d="M147.715 538.367H147.546C147.355 538.328 147.186 538.212 147.075 538.044C146.965 537.876 146.922 537.669 146.955 537.469C147.222 536.024 147.981 534.731 149.092 533.828C150.203 532.926 151.589 532.477 152.992 532.565C153.188 532.572 153.372 532.66 153.506 532.809C153.641 532.957 153.714 533.155 153.71 533.36C153.71 533.462 153.69 533.564 153.652 533.658C153.613 533.752 153.556 533.837 153.485 533.907C153.414 533.978 153.33 534.032 153.238 534.067C153.146 534.102 153.048 534.117 152.95 534.111C151.901 534.045 150.865 534.377 150.03 535.045C149.196 535.712 148.619 536.672 148.404 537.748C148.37 537.917 148.284 538.068 148.16 538.18C148.035 538.292 147.879 538.358 147.715 538.367V538.367Z" fill="#EBEBEB"/>
<path d="M245.37 55.9853L233.393 63.1122V58.6947C233.393 58.3708 233.393 58.0616 233.393 57.7523C233.393 57.4431 233.393 57.1486 233.393 56.8541V56.751C232.957 50.8611 228.707 48.6229 223.542 51.7593C221.193 53.2542 219.181 55.2635 217.645 57.6493C216.505 49.742 210.257 46.797 202.742 51.347C194.382 56.3976 187.613 68.6635 187.613 78.7501V88.2477C187.613 88.9992 187.425 89.7376 187.067 90.3888C186.709 91.0401 186.193 91.5814 185.572 91.9584L178.535 96.2876C177.008 97.2225 175.741 98.5602 174.862 100.167C173.983 101.774 173.522 103.595 173.525 105.447C173.539 106.208 173.74 106.952 174.11 107.608C174.479 108.264 175.005 108.809 175.635 109.189C176.265 109.57 176.979 109.774 177.706 109.781C178.434 109.789 179.151 109.599 179.788 109.231L245.187 69.709C246.917 68.6625 248.354 67.1603 249.357 65.3519C250.359 63.5436 250.891 61.492 250.901 59.4015C250.909 58.7197 250.745 58.0476 250.426 57.4533C250.106 56.8589 249.643 56.3634 249.081 56.0167C248.52 55.6701 247.881 55.4846 247.23 55.4791C246.578 55.4736 245.936 55.6482 245.37 55.9853V55.9853Z" fill="#E6E6E6"/>
<path d="M136.751 70.7107L127.843 75.9823V72.6986C127.843 72.463 127.843 72.2274 127.843 72.0065C127.843 71.7856 127.843 71.55 127.843 71.3439C127.519 66.9263 124.381 65.336 120.539 67.6478C118.8 68.7724 117.316 70.2799 116.19 72.0654C115.317 66.1753 110.715 64.0402 105.156 67.3975C101.887 69.6116 99.1632 72.602 97.2068 76.1254C95.2504 79.6488 94.1166 83.6057 93.8976 87.6742V94.6981C93.8979 95.2526 93.7589 95.7975 93.4946 96.2782C93.2303 96.7588 92.85 97.1584 92.3918 97.437L87.1846 100.632C86.054 101.327 85.1164 102.319 84.4648 103.51C83.8131 104.701 83.4699 106.049 83.4692 107.421C83.4705 107.989 83.6145 108.546 83.8868 109.038C84.1591 109.529 84.5501 109.937 85.0205 110.22C85.491 110.504 86.0244 110.653 86.5672 110.653C87.1101 110.652 87.6433 110.503 88.1135 110.218L136.498 80.9742C137.782 80.1983 138.849 79.082 139.59 77.7378C140.331 76.3936 140.721 74.8689 140.72 73.3171C140.707 72.8321 140.581 72.3579 140.351 71.9366C140.121 71.5152 139.795 71.1598 139.403 70.9019C139.01 70.644 138.562 70.4916 138.1 70.4583C137.637 70.4249 137.174 70.5116 136.751 70.7107V70.7107Z" fill="#E6E6E6"/>
</svg>
